STARTFONT 2.1
COMMENT
COMMENT Converted from OpenType font "cour.ttf" by "otf2bdf 3.0".
COMMENT
FONT -FreeType-Courier New-Medium-R-Normal--17-120-100-100-P-77-ISO10646-1
SIZE 12 100 100
FONTBOUNDINGBOX 10 23 0 -7
STARTPROPERTIES 19
FOUNDRY "FreeType"
FAMILY_NAME "Courier New"
WEIGHT_NAME "Medium"
SLANT "R"
SETWIDTH_NAME "Normal"
ADD_STYLE_NAME ""
PIXEL_SIZE 17
POINT_SIZE 120
RESOLUTION_X 100
RESOLUTION_Y 100
SPACING "P"
AVERAGE_WIDTH 77
CHARSET_REGISTRY "ISO10646"
CHARSET_ENCODING "1"
FONT_ASCENT 14
FONT_DESCENT 5
COPYRIGHT "Typeface © The Monotype Corporation plc. Data © The Monotype Corporation plc/Type Solutions Inc. 1990-1994. All Rights Reserved"
_OTF_FONTFILE "cour.ttf"
_OTF_PSNAME "CourierNewPSMT"
ENDPROPERTIES
CHARS 1258
STARTCHAR 0020
ENCODING 32
SWIDTH 600 0
DWIDTH 10 0
BBX 0 0 0 0
BITMAP
ENDCHAR
STARTCHAR 0021
ENCODING 33
SWIDTH 600 0
DWIDTH 10 0
BBX 2 10 4 0
BITMAP
80
80
80
80
80
80
80
00
C0
C0
ENDCHAR
STARTCHAR 0022
ENCODING 34
SWIDTH 600 0
DWIDTH 10 0
BBX 6 4 2 6
BITMAP
CC
C8
48
48
ENDCHAR
STARTCHAR 0023
ENCODING 35
SWIDTH 600 0
DWIDTH 10 0
BBX 7 11 1 -1
BITMAP
28
28
28
28
7E
28
28
FC
28
28
28
ENDCHAR
STARTCHAR 0024
ENCODING 36
SWIDTH 600 0
DWIDTH 10 0
BBX 6 12 2 -2
BITMAP
10
10
6C
84
80
60
18
04
84
F8
10
10
ENDCHAR
STARTCHAR 0025
ENCODING 37
SWIDTH 600 0
DWIDTH 10 0
BBX 7 10 1 0
BITMAP
60
90
90
60
0E
70
1C
22
22
1C
ENDCHAR
STARTCHAR 0026
ENCODING 38
SWIDTH 600 0
DWIDTH 10 0
BBX 6 9 2 0
BITMAP
38
40
40
40
20
D4
98
88
74
ENDCHAR
STARTCHAR 0027
ENCODING 39
SWIDTH 600 0
DWIDTH 10 0
BBX 2 5 4 5
BITMAP
C0
C0
C0
C0
80
ENDCHAR
STARTCHAR 0028
ENCODING 40
SWIDTH 600 0
DWIDTH 10 0
BBX 3 12 5 -2
BITMAP
20
40
40
80
80
80
80
80
80
40
40
20
ENDCHAR
STARTCHAR 0029
ENCODING 41
SWIDTH 600 0
DWIDTH 10 0
BBX 3 12 2 -2
BITMAP
80
40
40
40
20
20
20
20
20
40
40
80
ENDCHAR
STARTCHAR 002A
ENCODING 42
SWIDTH 600 0
DWIDTH 10 0
BBX 6 6 1 4
BITMAP
10
10
D4
38
30
48
ENDCHAR
STARTCHAR 002B
ENCODING 43
SWIDTH 600 0
DWIDTH 10 0
BBX 8 8 1 1
BITMAP
10
10
10
FF
10
10
10
10
ENDCHAR
STARTCHAR 002C
ENCODING 44
SWIDTH 600 0
DWIDTH 10 0
BBX 3 5 2 -2
BITMAP
60
60
C0
C0
80
ENDCHAR
STARTCHAR 002D
ENCODING 45
SWIDTH 600 0
DWIDTH 10 0
BBX 7 1 1 4
BITMAP
FE
ENDCHAR
STARTCHAR 002E
ENCODING 46
SWIDTH 600 0
DWIDTH 10 0
BBX 2 2 4 1
BITMAP
C0
C0
ENDCHAR
STARTCHAR 002F
ENCODING 47
SWIDTH 600 0
DWIDTH 10 0
BBX 6 12 2 -1
BITMAP
04
08
08
08
10
10
20
20
40
40
80
80
ENDCHAR
STARTCHAR 0030
ENCODING 48
SWIDTH 600 0
DWIDTH 10 0
BBX 6 10 2 0
BITMAP
30
48
84
84
84
84
84
84
48
30
ENDCHAR
STARTCHAR 0031
ENCODING 49
SWIDTH 600 0
DWIDTH 10 0
BBX 6 10 2 0
BITMAP
10
F0
10
10
10
10
10
10
10
FC
ENDCHAR
STARTCHAR 0032
ENCODING 50
SWIDTH 600 0
DWIDTH 10 0
BBX 7 10 1 0
BITMAP
38
44
42
02
04
08
10
20
40
FE
ENDCHAR
STARTCHAR 0033
ENCODING 51
SWIDTH 600 0
DWIDTH 10 0
BBX 7 10 1 0
BITMAP
7C
02
02
02
1C
04
02
02
C4
78
ENDCHAR
STARTCHAR 0034
ENCODING 52
SWIDTH 600 0
DWIDTH 10 0
BBX 6 10 2 0
BITMAP
18
28
28
48
48
88
FC
08
08
1C
ENDCHAR
STARTCHAR 0035
ENCODING 53
SWIDTH 600 0
DWIDTH 10 0
BBX 7 10 1 0
BITMAP
7C
40
40
7C
44
02
02
02
84
78
ENDCHAR
STARTCHAR 0036
ENCODING 54
SWIDTH 600 0
DWIDTH 10 0
BBX 6 10 2 0
BITMAP
1C
20
40
80
B8
C8
84
84
44
38
ENDCHAR
STARTCHAR 0037
ENCODING 55
SWIDTH 600 0
DWIDTH 10 0
BBX 6 10 2 0
BITMAP
FC
84
04
08
08
08
08
10
10
10
ENDCHAR
STARTCHAR 0038
ENCODING 56
SWIDTH 600 0
DWIDTH 10 0
BBX 6 10 2 0
BITMAP
78
84
84
88
70
48
84
84
84
78
ENDCHAR
STARTCHAR 0039
ENCODING 57
SWIDTH 600 0
DWIDTH 10 0
BBX 6 10 2 0
BITMAP
70
88
84
84
8C
74
04
08
08
F0
ENDCHAR
STARTCHAR 003A
ENCODING 58
SWIDTH 600 0
DWIDTH 10 0
BBX 2 7 4 0
BITMAP
C0
C0
00
00
00
C0
C0
ENDCHAR
STARTCHAR 003B
ENCODING 59
SWIDTH 600 0
DWIDTH 10 0
BBX 3 8 2 -2
BITMAP
60
60
00
00
60
40
C0
80
ENDCHAR
STARTCHAR 003C
ENCODING 60
SWIDTH 600 0
DWIDTH 10 0
BBX 7 8 2 1
BITMAP
02
0C
30
C0
80
60
18
06
ENDCHAR
STARTCHAR 003D
ENCODING 61
SWIDTH 600 0
DWIDTH 10 0
BBX 8 3 1 3
BITMAP
FF
00
FF
ENDCHAR
STARTCHAR 003E
ENCODING 62
SWIDTH 600 0
DWIDTH 10 0
BBX 7 8 1 1
BITMAP
80
60
18
06
02
0C
30
C0
ENDCHAR
STARTCHAR 003F
ENCODING 63
SWIDTH 600 0
DWIDTH 10 0
BBX 6 9 2 0
BITMAP
78
84
04
04
18
20
20
30
30
ENDCHAR
STARTCHAR 0040
ENCODING 64
SWIDTH 600 0
DWIDTH 10 0
BBX 6 11 2 -1
BITMAP
38
44
84
9C
A4
A4
A4
9C
80
40
38
ENDCHAR
STARTCHAR 0041
ENCODING 65
SWIDTH 600 0
DWIDTH 10 0
BBX 9 9 0 0
BITMAP
3800
1400
1400
2400
2200
3E00
4200
4100
E380
ENDCHAR
STARTCHAR 0042
ENCODING 66
SWIDTH 600 0
DWIDTH 10 0
BBX 8 9 1 0
BITMAP
FC
42
42
42
7C
42
41
42
FE
ENDCHAR
STARTCHAR 0043
ENCODING 67
SWIDTH 600 0
DWIDTH 10 0
BBX 8 9 1 0
BITMAP
3D
43
81
80
80
80
80
41
3E
ENDCHAR
STARTCHAR 0044
ENCODING 68
SWIDTH 600 0
DWIDTH 10 0
BBX 8 9 1 0
BITMAP
FC
42
41
41
41
41
41
42
FC
ENDCHAR
STARTCHAR 0045
ENCODING 69
SWIDTH 600 0
DWIDTH 10 0
BBX 9 9 0 0
BITMAP
FF00
2100
2100
2400
3C00
2400
2080
2080
FF80
ENDCHAR
STARTCHAR 0046
ENCODING 70
SWIDTH 600 0
DWIDTH 10 0
BBX 8 9 1 0
BITMAP
FF
41
41
48
78
48
40
40
F8
ENDCHAR
STARTCHAR 0047
ENCODING 71
SWIDTH 600 0
DWIDTH 10 0
BBX 8 9 1 0
BITMAP
3D
43
80
80
80
8F
81
41
3E
ENDCHAR
STARTCHAR 0048
ENCODING 72
SWIDTH 600 0
DWIDTH 10 0
BBX 8 9 1 0
BITMAP
E7
42
42
42
7E
42
42
42
E7
ENDCHAR
STARTCHAR 0049
ENCODING 73
SWIDTH 600 0
DWIDTH 10 0
BBX 6 9 2 0
BITMAP
FC
10
10
10
10
10
10
10
FC
ENDCHAR
STARTCHAR 004A
ENCODING 74
SWIDTH 600 0
DWIDTH 10 0
BBX 8 9 1 0
BITMAP
3F
04
04
04
04
84
84
84
78
ENDCHAR
STARTCHAR 004B
ENCODING 75
SWIDTH 600 0
DWIDTH 10 0
BBX 9 9 1 0
BITMAP
F700
4600
4C00
5800
6800
4400
4400
4200
F380
ENDCHAR
STARTCHAR 004C
ENCODING 76
SWIDTH 600 0
DWIDTH 10 0
BBX 8 9 1 0
BITMAP
F8
20
20
20
20
21
21
21
FF
ENDCHAR
STARTCHAR 004D
ENCODING 77
SWIDTH 600 0
DWIDTH 10 0
BBX 9 9 0 0
BITMAP
C180
6180
6280
5480
5480
4880
4080
4080
E380
ENDCHAR
STARTCHAR 004E
ENCODING 78
SWIDTH 600 0
DWIDTH 10 0
BBX 8 9 1 0
BITMAP
C7
61
51
51
49
45
45
43
E1
ENDCHAR
STARTCHAR 004F
ENCODING 79
SWIDTH 600 0
DWIDTH 10 0
BBX 8 9 1 0
BITMAP
3C
42
82
81
81
81
81
42
3C
ENDCHAR
STARTCHAR 0050
ENCODING 80
SWIDTH 600 0
DWIDTH 10 0
BBX 8 9 1 0
BITMAP
FE
41
41
43
7C
40
40
40
F8
ENDCHAR
STARTCHAR 0051
ENCODING 81
SWIDTH 600 0
DWIDTH 10 0
BBX 8 11 1 -2
BITMAP
3C
42
82
81
81
81
81
42
3C
19
26
ENDCHAR
STARTCHAR 0052
ENCODING 82
SWIDTH 600 0
DWIDTH 10 0
BBX 9 9 1 0
BITMAP
FE00
4100
4100
4200
7C00
4400
4200
4100
F080
ENDCHAR
STARTCHAR 0053
ENCODING 83
SWIDTH 600 0
DWIDTH 10 0
BBX 7 9 1 0
BITMAP
7A
86
82
80
78
06
82
82
FC
ENDCHAR
STARTCHAR 0054
ENCODING 84
SWIDTH 600 0
DWIDTH 10 0
BBX 8 9 1 0
BITMAP
FF
91
91
10
10
10
10
10
7C
ENDCHAR
STARTCHAR 0055
ENCODING 85
SWIDTH 600 0
DWIDTH 10 0
BBX 8 9 1 0
BITMAP
E7
41
41
41
41
41
41
22
1C
ENDCHAR
STARTCHAR 0056
ENCODING 86
SWIDTH 600 0
DWIDTH 10 0
BBX 9 9 0 0
BITMAP
E380
4100
4200
2200
2200
2400
1400
1400
0800
ENDCHAR
STARTCHAR 0057
ENCODING 87
SWIDTH 600 0
DWIDTH 10 0
BBX 9 9 0 0
BITMAP
E380
8100
8900
9500
5500
5500
6500
6300
6300
ENDCHAR
STARTCHAR 0058
ENCODING 88
SWIDTH 600 0
DWIDTH 10 0
BBX 8 9 1 0
BITMAP
E7
42
24
18
08
18
24
42
E7
ENDCHAR
STARTCHAR 0059
ENCODING 89
SWIDTH 600 0
DWIDTH 10 0
BBX 8 9 1 0
BITMAP
E7
22
24
14
08
08
08
08
3E
ENDCHAR
STARTCHAR 005A
ENCODING 90
SWIDTH 600 0
DWIDTH 10 0
BBX 7 9 2 0
BITMAP
FC
84
88
10
10
20
42
82
FE
ENDCHAR
STARTCHAR 005B
ENCODING 91
SWIDTH 600 0
DWIDTH 10 0
BBX 3 12 4 -2
BITMAP
E0
80
80
80
80
80
80
80
80
80
80
E0
ENDCHAR
STARTCHAR 005C
ENCODING 92
SWIDTH 600 0
DWIDTH 10 0
BBX 6 12 2 -1
BITMAP
80
80
40
40
20
20
10
10
08
08
08
04
ENDCHAR
STARTCHAR 005D
ENCODING 93
SWIDTH 600 0
DWIDTH 10 0
BBX 3 12 2 -2
BITMAP
E0
20
20
20
20
20
20
20
20
20
20
E0
ENDCHAR
STARTCHAR 005E
ENCODING 94
SWIDTH 600 0
DWIDTH 10 0
BBX 6 4 2 7
BITMAP
30
50
48
84
ENDCHAR
STARTCHAR 005F
ENCODING 95
SWIDTH 600 0
DWIDTH 10 0
BBX 10 1 0 -5
BITMAP
FFC0
ENDCHAR
STARTCHAR 0060
ENCODING 96
SWIDTH 600 0
DWIDTH 10 0
BBX 3 2 4 8
BITMAP
80
60
ENDCHAR
STARTCHAR 0061
ENCODING 97
SWIDTH 600 0
DWIDTH 10 0
BBX 8 7 1 0
BITMAP
3C
02
3E
42
82
86
7B
ENDCHAR
STARTCHAR 0062
ENCODING 98
SWIDTH 600 0
DWIDTH 10 0
BBX 8 10 1 0
BITMAP
C0
40
40
5C
62
41
41
41
62
DC
ENDCHAR
STARTCHAR 0063
ENCODING 99
SWIDTH 600 0
DWIDTH 10 0
BBX 7 7 1 0
BITMAP
3E
42
80
80
80
42
3C
ENDCHAR
STARTCHAR 0064
ENCODING 100
SWIDTH 600 0
DWIDTH 10 0
BBX 8 10 1 0
BITMAP
06
02
02
3A
46
82
82
82
46
3B
ENDCHAR
STARTCHAR 0065
ENCODING 101
SWIDTH 600 0
DWIDTH 10 0
BBX 8 7 1 0
BITMAP
3C
42
81
FF
80
41
3E
ENDCHAR
STARTCHAR 0066
ENCODING 102
SWIDTH 600 0
DWIDTH 10 0
BBX 7 10 2 0
BITMAP
1E
20
20
FC
20
20
20
20
20
FC
ENDCHAR
STARTCHAR 0067
ENCODING 103
SWIDTH 600 0
DWIDTH 10 0
BBX 8 10 1 -3
BITMAP
3B
46
82
82
82
46
3A
02
02
3C
ENDCHAR
STARTCHAR 0068
ENCODING 104
SWIDTH 600 0
DWIDTH 10 0
BBX 8 10 1 0
BITMAP
C0
40
40
5C
62
42
42
42
42
E7
ENDCHAR
STARTCHAR 0069
ENCODING 105
SWIDTH 600 0
DWIDTH 10 0
BBX 7 10 2 0
BITMAP
10
10
00
70
10
10
10
10
10
FE
ENDCHAR
STARTCHAR 006A
ENCODING 106
SWIDTH 600 0
DWIDTH 10 0
BBX 5 13 2 -3
BITMAP
10
10
00
F8
08
08
08
08
08
08
08
08
F0
ENDCHAR
STARTCHAR 006B
ENCODING 107
SWIDTH 600 0
DWIDTH 10 0
BBX 8 10 2 0
BITMAP
C0
40
40
4E
48
50
70
48
44
C7
ENDCHAR
STARTCHAR 006C
ENCODING 108
SWIDTH 600 0
DWIDTH 10 0
BBX 7 10 1 0
BITMAP
70
10
10
10
10
10
10
10
10
FE
ENDCHAR
STARTCHAR 006D
ENCODING 109
SWIDTH 600 0
DWIDTH 10 0
BBX 10 7 0 0
BITMAP
F700
4880
4880
4880
4880
4880
ECC0
ENDCHAR
STARTCHAR 006E
ENCODING 110
SWIDTH 600 0
DWIDTH 10 0
BBX 8 7 1 0
BITMAP
DC
62
42
42
42
42
E7
ENDCHAR
STARTCHAR 006F
ENCODING 111
SWIDTH 600 0
DWIDTH 10 0
BBX 8 7 1 0
BITMAP
3C
42
81
81
81
42
3C
ENDCHAR
STARTCHAR 0070
ENCODING 112
SWIDTH 600 0
DWIDTH 10 0
BBX 9 10 0 -3
BITMAP
DE00
6100
4080
4080
4080
6100
5E00
4000
4000
F000
ENDCHAR
STARTCHAR 0071
ENCODING 113
SWIDTH 600 0
DWIDTH 10 0
BBX 9 10 1 -3
BITMAP
3B80
4600
8200
8200
8200
4600
3A00
0200
0200
0780
ENDCHAR
STARTCHAR 0072
ENCODING 114
SWIDTH 600 0
DWIDTH 10 0
BBX 7 7 1 0
BITMAP
EE
30
20
20
20
20
FC
ENDCHAR
STARTCHAR 0073
ENCODING 115
SWIDTH 600 0
DWIDTH 10 0
BBX 7 7 2 0
BITMAP
7C
84
C0
3C
02
82
FC
ENDCHAR
STARTCHAR 0074
ENCODING 116
SWIDTH 600 0
DWIDTH 10 0
BBX 7 9 1 0
BITMAP
20
20
FC
20
20
20
20
20
1E
ENDCHAR
STARTCHAR 0075
ENCODING 117
SWIDTH 600 0
DWIDTH 10 0
BBX 8 7 1 0
BITMAP
CE
42
42
42
42
42
3F
ENDCHAR
STARTCHAR 0076
ENCODING 118
SWIDTH 600 0
DWIDTH 10 0
BBX 9 7 0 0
BITMAP
E380
4100
4200
2200
2400
1400
1C00
ENDCHAR
STARTCHAR 0077
ENCODING 119
SWIDTH 600 0
DWIDTH 10 0
BBX 9 7 0 0
BITMAP
E380
4100
4900
5900
5600
3600
2200
ENDCHAR
STARTCHAR 0078
ENCODING 120
SWIDTH 600 0
DWIDTH 10 0
BBX 8 7 1 0
BITMAP
E7
24
18
18
24
42
E7
ENDCHAR
STARTCHAR 0079
ENCODING 121
SWIDTH 600 0
DWIDTH 10 0
BBX 8 10 1 -3
BITMAP
E7
42
42
24
24
18
08
10
10
F8
ENDCHAR
STARTCHAR 007A
ENCODING 122
SWIDTH 600 0
DWIDTH 10 0
BBX 6 7 2 0
BITMAP
FC
88
10
20
60
C4
FC
ENDCHAR
STARTCHAR 007B
ENCODING 123
SWIDTH 600 0
DWIDTH 10 0
BBX 3 12 3 -2
BITMAP
20
40
40
40
40
40
80
40
40
40
40
20
ENDCHAR
STARTCHAR 007C
ENCODING 124
SWIDTH 600 0
DWIDTH 10 0
BBX 1 12 4 -2
BITMAP
80
80
80
80
80
80
80
80
80
80
80
80
ENDCHAR
STARTCHAR 007D
ENCODING 125
SWIDTH 600 0
DWIDTH 10 0
BBX 3 12 3 -2
BITMAP
80
40
40
40
40
20
40
40
40
40
40
80
ENDCHAR
STARTCHAR 007E
ENCODING 126
SWIDTH 600 0
DWIDTH 10 0
BBX 7 3 1 3
BITMAP
60
92
0C
ENDCHAR
STARTCHAR 00A0
ENCODING 160
SWIDTH 600 0
DWIDTH 10 0
BBX 0 0 0 0
BITMAP
ENDCHAR
STARTCHAR 00A1
ENCODING 161
SWIDTH 600 0
DWIDTH 10 0
BBX 2 10 4 -3
BITMAP
C0
C0
00
00
80
80
80
80
80
80
ENDCHAR
STARTCHAR 00A2
ENCODING 162
SWIDTH 600 0
DWIDTH 10 0
BBX 6 10 2 1
BITMAP
10
10
3C
44
80
80
40
3C
10
10
ENDCHAR
STARTCHAR 00A3
ENCODING 163
SWIDTH 600 0
DWIDTH 10 0
BBX 8 9 1 0
BITMAP
38
40
40
40
F8
20
20
41
FE
ENDCHAR
STARTCHAR 00A4
ENCODING 164
SWIDTH 600 0
DWIDTH 10 0
BBX 6 6 2 2
BITMAP
B4
48
84
84
48
B4
ENDCHAR
STARTCHAR 00A5
ENCODING 165
SWIDTH 600 0
DWIDTH 10 0
BBX 8 9 1 0
BITMAP
E7
42
24
18
7E
08
7E
08
3C
ENDCHAR
STARTCHAR 00A6
ENCODING 166
SWIDTH 600 0
DWIDTH 10 0
BBX 1 12 4 -2
BITMAP
80
80
80
80
80
00
00
80
80
80
80
80
ENDCHAR
STARTCHAR 00A7
ENCODING 167
SWIDTH 600 0
DWIDTH 10 0
BBX 8 12 1 -2
BITMAP
1E
62
40
60
90
4C
62
11
0E
04
44
78
ENDCHAR
STARTCHAR 00A8
ENCODING 168
SWIDTH 600 0
DWIDTH 10 0
BBX 4 1 3 8
BITMAP
90
ENDCHAR
STARTCHAR 00A9
ENCODING 169
SWIDTH 600 0
DWIDTH 10 0
BBX 10 9 0 0
BITMAP
1E00
6180
8E80
9240
9040
9040
8E80
4080
3F00
ENDCHAR
STARTCHAR 00AA
ENCODING 170
SWIDTH 600 0
DWIDTH 10 0
BBX 6 4 2 6
BITMAP
78
78
88
7C
ENDCHAR
STARTCHAR 00AB
ENCODING 171
SWIDTH 600 0
DWIDTH 10 0
BBX 8 7 1 0
BITMAP
11
22
44
98
44
22
11
ENDCHAR
STARTCHAR 00AC
ENCODING 172
SWIDTH 600 0
DWIDTH 10 0
BBX 9 5 0 0
BITMAP
FF80
0080
0080
0080
0080
ENDCHAR
STARTCHAR 00AD
ENCODING 173
SWIDTH 600 0
DWIDTH 10 0
BBX 7 1 1 4
BITMAP
FE
ENDCHAR
STARTCHAR 00AE
ENCODING 174
SWIDTH 600 0
DWIDTH 10 0
BBX 10 9 0 0
BITMAP
1E00
6180
5E80
9240
9C40
9440
9B80
6180
1E00
ENDCHAR
STARTCHAR 00AF
ENCODING 175
SWIDTH 600 0
DWIDTH 10 0
BBX 10 1 0 10
BITMAP
FFC0
ENDCHAR
STARTCHAR 00B0
ENCODING 176
SWIDTH 600 0
DWIDTH 10 0
BBX 5 5 3 7
BITMAP
70
88
88
88
70
ENDCHAR
STARTCHAR 00B1
ENCODING 177
SWIDTH 600 0
DWIDTH 10 0
BBX 8 9 1 0
BITMAP
10
10
10
FF
10
10
10
10
FF
ENDCHAR
STARTCHAR 00B2
ENCODING 178
SWIDTH 600 0
DWIDTH 10 0
BBX 4 6 3 4
BITMAP
60
90
10
60
80
F0
ENDCHAR
STARTCHAR 00B3
ENCODING 179
SWIDTH 600 0
DWIDTH 10 0
BBX 4 6 3 4
BITMAP
60
90
60
10
10
60
ENDCHAR
STARTCHAR 00B4
ENCODING 180
SWIDTH 600 0
DWIDTH 10 0
BBX 3 2 4 8
BITMAP
20
C0
ENDCHAR
STARTCHAR 00B5
ENCODING 181
SWIDTH 600 0
DWIDTH 10 0
BBX 8 10 1 -3
BITMAP
C6
42
42
42
42
42
7F
40
40
40
ENDCHAR
STARTCHAR 00B6
ENCODING 182
SWIDTH 600 0
DWIDTH 10 0
BBX 7 11 1 -1
BITMAP
3E
D4
94
94
94
74
14
14
14
14
76
ENDCHAR
STARTCHAR 00B7
ENCODING 183
SWIDTH 600 0
DWIDTH 10 0
BBX 2 2 4 5
BITMAP
C0
C0
ENDCHAR
STARTCHAR 00B8
ENCODING 184
SWIDTH 600 0
DWIDTH 10 0
BBX 3 3 3 -3
BITMAP
40
40
E0
ENDCHAR
STARTCHAR 00B9
ENCODING 185
SWIDTH 600 0
DWIDTH 10 0
BBX 4 5 3 6
BITMAP
C0
40
40
40
F0
ENDCHAR
STARTCHAR 00BA
ENCODING 186
SWIDTH 600 0
DWIDTH 10 0
BBX 5 5 2 5
BITMAP
70
88
88
88
70
ENDCHAR
STARTCHAR 00BB
ENCODING 187
SWIDTH 600 0
DWIDTH 10 0
BBX 8 7 1 0
BITMAP
88
44
22
19
22
44
88
ENDCHAR
STARTCHAR 00BC
ENCODING 188
SWIDTH 600 0
DWIDTH 10 0
BBX 10 10 0 0
BITMAP
C000
4000
4040
4180
F200
0C80
1180
6280
03C0
00C0
ENDCHAR
STARTCHAR 00BD
ENCODING 189
SWIDTH 600 0
DWIDTH 10 0
BBX 10 10 0 0
BITMAP
C000
4000
4080
4100
F780
0A40
3040
4080
0100
0640
ENDCHAR
STARTCHAR 00BE
ENCODING 190
SWIDTH 600 0
DWIDTH 10 0
BBX 9 10 0 0
BITMAP
E000
1000
6000
1180
9200
6D80
1180
6280
0380
0180
ENDCHAR
STARTCHAR 00BF
ENCODING 191
SWIDTH 600 0
DWIDTH 10 0
BBX 6 10 2 -3
BITMAP
30
30
00
00
10
60
80
80
84
78
ENDCHAR
STARTCHAR 00C0
ENCODING 192
SWIDTH 600 0
DWIDTH 10 0
BBX 9 12 0 1
BITMAP
1800
0400
0000
3C00
1400
1400
1200
2200
3E00
2100
4100
E380
ENDCHAR
STARTCHAR 00C1
ENCODING 193
SWIDTH 600 0
DWIDTH 10 0
BBX 9 12 0 1
BITMAP
0400
0800
0000
3800
1400
1400
2400
2200
3E00
4200
4100
E380
ENDCHAR
STARTCHAR 00C2
ENCODING 194
SWIDTH 600 0
DWIDTH 10 0
BBX 9 12 0 1
BITMAP
1800
2600
0000
3800
1400
1400
2400
2200
3E00
4100
4100
E380
ENDCHAR
STARTCHAR 00C3
ENCODING 195
SWIDTH 600 0
DWIDTH 10 0
BBX 9 12 0 0
BITMAP
2000
1C00
0000
3800
1400
1400
2400
2200
3E00
4100
4100
E380
ENDCHAR
STARTCHAR 00C4
ENCODING 196
SWIDTH 600 0
DWIDTH 10 0
BBX 9 12 0 0
BITMAP
2400
0000
0000
3800
1400
1400
2400
2200
3E00
4200
4100
E380
ENDCHAR
STARTCHAR 00C5
ENCODING 197
SWIDTH 600 0
DWIDTH 10 0
BBX 9 13 0 0
BITMAP
0800
1400
1400
0800
3800
1400
1400
1400
2200
3E00
2200
4100
F380
ENDCHAR
STARTCHAR 00C6
ENCODING 198
SWIDTH 600 0
DWIDTH 10 0
BBX 10 9 0 0
BITMAP
7F80
1480
1480
2500
2700
3C00
4440
4440
EFC0
ENDCHAR
STARTCHAR 00C7
ENCODING 199
SWIDTH 600 0
DWIDTH 10 0
BBX 8 12 1 -3
BITMAP
3D
43
81
80
80
80
80
41
3E
08
04
1C
ENDCHAR
STARTCHAR 00C8
ENCODING 200
SWIDTH 600 0
DWIDTH 10 0
BBX 9 12 0 1
BITMAP
0800
0400
0000
FF00
2100
2100
2400
3C00
2400
2080
2080
FF80
ENDCHAR
STARTCHAR 00C9
ENCODING 201
SWIDTH 600 0
DWIDTH 10 0
BBX 9 12 0 1
BITMAP
0400
0800
0000
FF00
2100
2100
2400
3C00
2400
2080
2080
FF80
ENDCHAR
STARTCHAR 00CA
ENCODING 202
SWIDTH 600 0
DWIDTH 10 0
BBX 9 12 0 1
BITMAP
0C00
3200
0000
FF00
2100
2100
2400
3C00
2400
2080
2080
FF80
ENDCHAR
STARTCHAR 00CB
ENCODING 203
SWIDTH 600 0
DWIDTH 10 0
BBX 9 12 0 0
BITMAP
1200
0000
0000
FF00
2100
2100
2400
3C00
2400
2080
2080
FF80
ENDCHAR
STARTCHAR 00CC
ENCODING 204
SWIDTH 600 0
DWIDTH 10 0
BBX 6 12 2 1
BITMAP
20
10
00
FC
10
10
10
10
10
10
10
FC
ENDCHAR
STARTCHAR 00CD
ENCODING 205
SWIDTH 600 0
DWIDTH 10 0
BBX 6 12 2 0
BITMAP
10
20
00
FC
10
10
10
10
10
10
10
FC
ENDCHAR
STARTCHAR 00CE
ENCODING 206
SWIDTH 600 0
DWIDTH 10 0
BBX 6 12 2 1
BITMAP
18
64
00
FC
10
10
10
10
10
10
10
FC
ENDCHAR
STARTCHAR 00CF
ENCODING 207
SWIDTH 600 0
DWIDTH 10 0
BBX 6 12 2 0
BITMAP
48
00
00
FC
10
10
10
10
10
10
10
FC
ENDCHAR
STARTCHAR 00D0
ENCODING 208
SWIDTH 600 0
DWIDTH 10 0
BBX 9 9 0 0
BITMAP
7E00
2100
2080
2080
F880
2080
2080
2100
7E00
ENDCHAR
STARTCHAR 00D1
ENCODING 209
SWIDTH 600 0
DWIDTH 10 0
BBX 8 12 1 0
BITMAP
30
0E
00
C7
61
51
51
49
45
45
43
E1
ENDCHAR
STARTCHAR 00D2
ENCODING 210
SWIDTH 600 0
DWIDTH 10 0
BBX 8 12 1 1
BITMAP
18
04
00
3C
42
82
81
81
81
81
42
3C
ENDCHAR
STARTCHAR 00D3
ENCODING 211
SWIDTH 600 0
DWIDTH 10 0
BBX 8 12 1 1
BITMAP
04
18
00
3C
42
82
81
81
81
81
42
3C
ENDCHAR
STARTCHAR 00D4
ENCODING 212
SWIDTH 600 0
DWIDTH 10 0
BBX 8 12 1 1
BITMAP
1C
22
00
3C
42
82
81
81
81
81
42
3C
ENDCHAR
STARTCHAR 00D5
ENCODING 213
SWIDTH 600 0
DWIDTH 10 0
BBX 8 12 1 0
BITMAP
10
2E
00
3C
42
82
81
81
81
81
42
3C
ENDCHAR
STARTCHAR 00D6
ENCODING 214
SWIDTH 600 0
DWIDTH 10 0
BBX 8 12 1 0
BITMAP
22
00
00
3C
42
82
81
81
81
81
42
3C
ENDCHAR
STARTCHAR 00D7
ENCODING 215
SWIDTH 600 0
DWIDTH 10 0
BBX 5 5 2 2
BITMAP
88
50
20
50
88
ENDCHAR
STARTCHAR 00D8
ENCODING 216
SWIDTH 600 0
DWIDTH 10 0
BBX 8 10 1 0
BITMAP
01
3D
42
86
89
91
91
A1
42
BC
ENDCHAR
STARTCHAR 00D9
ENCODING 217
SWIDTH 600 0
DWIDTH 10 0
BBX 8 12 1 1
BITMAP
10
08
00
E7
41
41
41
41
41
41
22
1C
ENDCHAR
STARTCHAR 00DA
ENCODING 218
SWIDTH 600 0
DWIDTH 10 0
BBX 8 12 1 1
BITMAP
0C
10
00
E7
41
41
41
41
41
41
22
1C
ENDCHAR
STARTCHAR 00DB
ENCODING 219
SWIDTH 600 0
DWIDTH 10 0
BBX 8 12 1 1
BITMAP
18
26
00
E7
41
41
41
41
41
41
22
1C
ENDCHAR
STARTCHAR 00DC
ENCODING 220
SWIDTH 600 0
DWIDTH 10 0
BBX 8 12 1 0
BITMAP
22
00
00
E7
41
41
41
41
41
41
22
1C
ENDCHAR
STARTCHAR 00DD
ENCODING 221
SWIDTH 600 0
DWIDTH 10 0
BBX 8 12 1 1
BITMAP
08
10
00
E7
22
24
14
08
08
08
08
3E
ENDCHAR
STARTCHAR 00DE
ENCODING 222
SWIDTH 600 0
DWIDTH 10 0
BBX 8 9 1 0
BITMAP
F8
40
7E
41
41
43
7C
40
F8
ENDCHAR
STARTCHAR 00DF
ENCODING 223
SWIDTH 600 0
DWIDTH 10 0
BBX 8 10 1 0
BITMAP
38
44
44
58
46
41
41
41
51
EE
ENDCHAR
STARTCHAR 00E0
ENCODING 224
SWIDTH 600 0
DWIDTH 10 0
BBX 8 11 1 1
BITMAP
20
10
08
00
3C
02
3E
42
82
86
7B
ENDCHAR
STARTCHAR 00E1
ENCODING 225
SWIDTH 600 0
DWIDTH 10 0
BBX 8 11 1 0
BITMAP
08
10
20
00
3C
02
3E
C2
82
86
7B
ENDCHAR
STARTCHAR 00E2
ENCODING 226
SWIDTH 600 0
DWIDTH 10 0
BBX 8 10 1 1
BITMAP
18
64
00
7C
02
3E
C2
82
86
7B
ENDCHAR
STARTCHAR 00E3
ENCODING 227
SWIDTH 600 0
DWIDTH 10 0
BBX 8 9 1 0
BITMAP
7E
00
3C
02
3E
C2
82
86
7B
ENDCHAR
STARTCHAR 00E4
ENCODING 228
SWIDTH 600 0
DWIDTH 10 0
BBX 8 9 1 0
BITMAP
44
00
7C
02
3E
C2
82
86
7B
ENDCHAR
STARTCHAR 00E5
ENCODING 229
SWIDTH 600 0
DWIDTH 10 0
BBX 8 11 1 0
BITMAP
18
24
18
00
3C
02
3E
42
82
86
7B
ENDCHAR
STARTCHAR 00E6
ENCODING 230
SWIDTH 600 0
DWIDTH 10 0
BBX 9 7 0 0
BITMAP
7700
0880
7880
CF80
8800
8880
7F00
ENDCHAR
STARTCHAR 00E7
ENCODING 231
SWIDTH 600 0
DWIDTH 10 0
BBX 7 10 1 -3
BITMAP
3E
42
80
80
80
42
3C
10
08
38
ENDCHAR
STARTCHAR 00E8
ENCODING 232
SWIDTH 600 0
DWIDTH 10 0
BBX 8 10 1 1
BITMAP
10
08
00
3C
42
81
FF
80
41
3E
ENDCHAR
STARTCHAR 00E9
ENCODING 233
SWIDTH 600 0
DWIDTH 10 0
BBX 8 10 1 1
BITMAP
08
10
00
3C
42
81
FF
80
41
3E
ENDCHAR
STARTCHAR 00EA
ENCODING 234
SWIDTH 600 0
DWIDTH 10 0
BBX 8 10 1 1
BITMAP
38
44
00
3C
C2
81
FF
80
83
7C
ENDCHAR
STARTCHAR 00EB
ENCODING 235
SWIDTH 600 0
DWIDTH 10 0
BBX 8 9 1 0
BITMAP
24
00
3C
42
81
FF
80
43
3C
ENDCHAR
STARTCHAR 00EC
ENCODING 236
SWIDTH 600 0
DWIDTH 10 0
BBX 7 10 1 0
BITMAP
40
30
00
70
10
10
10
10
10
FE
ENDCHAR
STARTCHAR 00ED
ENCODING 237
SWIDTH 600 0
DWIDTH 10 0
BBX 7 10 1 1
BITMAP
30
40
00
70
10
10
10
10
10
FE
ENDCHAR
STARTCHAR 00EE
ENCODING 238
SWIDTH 600 0
DWIDTH 10 0
BBX 7 10 2 1
BITMAP
30
C8
00
70
10
10
10
10
10
FE
ENDCHAR
STARTCHAR 00EF
ENCODING 239
SWIDTH 600 0
DWIDTH 10 0
BBX 7 9 1 0
BITMAP
48
00
70
10
10
10
10
10
FE
ENDCHAR
STARTCHAR 00F0
ENCODING 240
SWIDTH 600 0
DWIDTH 10 0
BBX 8 10 1 0
BITMAP
1E
34
02
3E
43
81
81
81
42
3C
ENDCHAR
STARTCHAR 00F1
ENCODING 241
SWIDTH 600 0
DWIDTH 10 0
BBX 8 9 1 0
BITMAP
3E
00
DC
62
42
42
42
42
E7
ENDCHAR
STARTCHAR 00F2
ENCODING 242
SWIDTH 600 0
DWIDTH 10 0
BBX 8 10 1 1
BITMAP
10
08
00
3C
42
81
81
81
42
3C
ENDCHAR
STARTCHAR 00F3
ENCODING 243
SWIDTH 600 0
DWIDTH 10 0
BBX 8 10 1 1
BITMAP
18
20
00
3C
42
81
81
81
42
3C
ENDCHAR
STARTCHAR 00F4
ENCODING 244
SWIDTH 600 0
DWIDTH 10 0
BBX 8 10 1 1
BITMAP
38
44
00
3C
42
81
81
81
42
3C
ENDCHAR
STARTCHAR 00F5
ENCODING 245
SWIDTH 600 0
DWIDTH 10 0
BBX 8 9 1 0
BITMAP
7C
00
3C
42
81
81
81
42
3C
ENDCHAR
STARTCHAR 00F6
ENCODING 246
SWIDTH 600 0
DWIDTH 10 0
BBX 8 9 1 0
BITMAP
24
00
3C
42
81
81
81
42
3C
ENDCHAR
STARTCHAR 00F7
ENCODING 247
SWIDTH 600 0
DWIDTH 10 0
BBX 8 7 1 1
BITMAP
10
00
00
FF
00
00
10
ENDCHAR
STARTCHAR 00F8
ENCODING 248
SWIDTH 600 0
DWIDTH 10 0
BBX 8 8 1 0
BITMAP
01
3D
42
85
99
A1
42
BC
ENDCHAR
STARTCHAR 00F9
ENCODING 249
SWIDTH 600 0
DWIDTH 10 0
BBX 8 11 1 0
BITMAP
20
10
08
00
CE
42
42
42
42
42
3F
ENDCHAR
STARTCHAR 00FA
ENCODING 250
SWIDTH 600 0
DWIDTH 10 0
BBX 8 10 1 1
BITMAP
18
20
00
CE
42
42
42
42
42
3F
ENDCHAR
STARTCHAR 00FB
ENCODING 251
SWIDTH 600 0
DWIDTH 10 0
BBX 8 10 1 1
BITMAP
18
64
00
CE
42
42
42
42
46
3B
ENDCHAR
STARTCHAR 00FC
ENCODING 252
SWIDTH 600 0
DWIDTH 10 0
BBX 8 9 1 0
BITMAP
24
00
C6
42
42
42
42
42
3F
ENDCHAR
STARTCHAR 00FD
ENCODING 253
SWIDTH 600 0
DWIDTH 10 0
BBX 8 14 1 -3
BITMAP
04
08
10
00
E7
42
44
24
28
18
10
10
20
F8
ENDCHAR
STARTCHAR 00FE
ENCODING 254
SWIDTH 600 0
DWIDTH 10 0
BBX 9 13 0 -3
BITMAP
C000
4000
4000
5E00
6100
4080
4080
4080
6100
5E00
4000
4000
F000
ENDCHAR
STARTCHAR 00FF
ENCODING 255
SWIDTH 600 0
DWIDTH 10 0
BBX 8 12 1 -3
BITMAP
22
00
E3
42
42
24
24
18
08
10
10
F8
ENDCHAR
STARTCHAR 0100
ENCODING 256
SWIDTH 600 0
DWIDTH 10 0
BBX 9 11 0 0
BITMAP
3E00
0000
3800
1400
1400
2400
2200
3E00
4100
4100
E380
ENDCHAR
STARTCHAR 0101
ENCODING 257
SWIDTH 600 0
DWIDTH 10 0
BBX 8 9 1 0
BITMAP
7C
00
7C
02
3E
C2
82
86
7B
ENDCHAR
STARTCHAR 0102
ENCODING 258
SWIDTH 600 0
DWIDTH 10 0
BBX 9 12 0 1
BITMAP
2200
1C00
0000
3800
1400
1400
2400
2200
3E00
4100
4100
E380
ENDCHAR
STARTCHAR 0103
ENCODING 259
SWIDTH 600 0
DWIDTH 10 0
BBX 8 10 1 0
BITMAP
42
3C
00
3C
02
3E
C2
82
86
7B
ENDCHAR
STARTCHAR 0104
ENCODING 260
SWIDTH 600 0
DWIDTH 10 0
BBX 9 11 0 -2
BITMAP
3800
1400
1400
2400
2200
3E00
4100
4100
E380
0100
0180
ENDCHAR
STARTCHAR 0105
ENCODING 261
SWIDTH 600 0
DWIDTH 10 0
BBX 8 9 1 -2
BITMAP
3C
02
3E
42
82
82
7F
02
03
ENDCHAR
STARTCHAR 0106
ENCODING 262
SWIDTH 600 0
DWIDTH 10 0
BBX 8 13 1 0
BITMAP
04
08
10
00
3D
43
81
80
80
80
80
41
3E
ENDCHAR
STARTCHAR 0107
ENCODING 263
SWIDTH 600 0
DWIDTH 10 0
BBX 7 10 1 1
BITMAP
08
10
00
3E
42
80
80
80
42
3C
ENDCHAR
STARTCHAR 0108
ENCODING 264
SWIDTH 600 0
DWIDTH 10 0
BBX 8 12 1 1
BITMAP
1C
22
00
3D
43
81
80
80
80
80
41
3E
ENDCHAR
STARTCHAR 0109
ENCODING 265
SWIDTH 600 0
DWIDTH 10 0
BBX 7 10 1 1
BITMAP
38
44
00
3E
42
80
80
80
42
3C
ENDCHAR
STARTCHAR 010A
ENCODING 266
SWIDTH 600 0
DWIDTH 10 0
BBX 8 12 1 0
BITMAP
18
18
00
3D
43
81
80
80
80
80
41
3E
ENDCHAR
STARTCHAR 010B
ENCODING 267
SWIDTH 600 0
DWIDTH 10 0
BBX 7 10 1 0
BITMAP
18
18
00
3E
42
80
80
80
42
3C
ENDCHAR
STARTCHAR 010C
ENCODING 268
SWIDTH 600 0
DWIDTH 10 0
BBX 8 12 1 0
BITMAP
22
14
08
3D
43
81
80
80
80
80
41
3E
ENDCHAR
STARTCHAR 010D
ENCODING 269
SWIDTH 600 0
DWIDTH 10 0
BBX 8 10 1 0
BITMAP
22
1C
00
3D
43
80
80
80
41
3E
ENDCHAR
STARTCHAR 010E
ENCODING 270
SWIDTH 600 0
DWIDTH 10 0
BBX 8 12 1 1
BITMAP
64
18
00
FC
42
41
41
41
41
41
42
FC
ENDCHAR
STARTCHAR 010F
ENCODING 271
SWIDTH 600 0
DWIDTH 10 0
BBX 9 10 1 0
BITMAP
0C80
0480
0400
7400
4C00
8400
8400
8400
4C00
7700
ENDCHAR
STARTCHAR 0110
ENCODING 272
SWIDTH 600 0
DWIDTH 10 0
BBX 9 9 0 0
BITMAP
7E00
2100
2080
2080
F880
2080
2080
2100
7E00
ENDCHAR
STARTCHAR 0111
ENCODING 273
SWIDTH 600 0
DWIDTH 10 0
BBX 9 10 1 0
BITMAP
0600
0F80
0200
3A00
4600
8200
8200
8200
4600
3B80
ENDCHAR
STARTCHAR 0112
ENCODING 274
SWIDTH 600 0
DWIDTH 10 0
BBX 9 11 0 0
BITMAP
3E00
0000
FF00
2100
2100
2400
3C00
2400
2080
2080
FF80
ENDCHAR
STARTCHAR 0113
ENCODING 275
SWIDTH 600 0
DWIDTH 10 0
BBX 8 9 1 0
BITMAP
7C
00
3C
C2
81
FF
80
83
7C
ENDCHAR
STARTCHAR 0114
ENCODING 276
SWIDTH 600 0
DWIDTH 10 0
BBX 8 12 1 1
BITMAP
44
38
00
FE
42
42
48
78
48
41
41
FF
ENDCHAR
STARTCHAR 0115
ENCODING 277
SWIDTH 600 0
DWIDTH 10 0
BBX 8 10 1 0
BITMAP
44
38
00
3C
42
81
FF
80
C3
3C
ENDCHAR
STARTCHAR 0116
ENCODING 278
SWIDTH 600 0
DWIDTH 10 0
BBX 9 12 0 0
BITMAP
0C00
0C00
0000
FF00
2100
2100
2400
3C00
2400
2080
2080
FF80
ENDCHAR
STARTCHAR 0117
ENCODING 279
SWIDTH 600 0
DWIDTH 10 0
BBX 8 10 1 0
BITMAP
18
18
00
3C
42
81
FF
80
41
3E
ENDCHAR
STARTCHAR 0118
ENCODING 280
SWIDTH 600 0
DWIDTH 10 0
BBX 8 11 1 -2
BITMAP
FF
41
41
48
78
48
41
41
FF
02
03
ENDCHAR
STARTCHAR 0119
ENCODING 281
SWIDTH 600 0
DWIDTH 10 0
BBX 8 9 1 -2
BITMAP
3C
42
81
FF
80
41
3E
10
18
ENDCHAR
STARTCHAR 011A
ENCODING 282
SWIDTH 600 0
DWIDTH 10 0
BBX 9 12 0 1
BITMAP
1200
0C00
0000
FF00
2100
2100
2400
3C00
2400
2080
2080
FF80
ENDCHAR
STARTCHAR 011B
ENCODING 283
SWIDTH 600 0
DWIDTH 10 0
BBX 8 10 1 0
BITMAP
22
1C
00
3C
42
81
FF
80
41
3E
ENDCHAR
STARTCHAR 011C
ENCODING 284
SWIDTH 600 0
DWIDTH 10 0
BBX 8 12 1 1
BITMAP
18
26
00
3F
41
80
80
80
8F
81
41
3E
ENDCHAR
STARTCHAR 011D
ENCODING 285
SWIDTH 600 0
DWIDTH 10 0
BBX 8 13 1 -2
BITMAP
18
64
00
3B
46
82
82
82
46
3A
02
02
3C
ENDCHAR
STARTCHAR 011E
ENCODING 286
SWIDTH 600 0
DWIDTH 10 0
BBX 8 12 1 0
BITMAP
22
1C
00
3D
43
80
80
80
8F
81
41
3E
ENDCHAR
STARTCHAR 011F
ENCODING 287
SWIDTH 600 0
DWIDTH 10 0
BBX 8 13 1 -3
BITMAP
44
38
00
3B
46
82
82
82
46
3A
02
02
3C
ENDCHAR
STARTCHAR 0120
ENCODING 288
SWIDTH 600 0
DWIDTH 10 0
BBX 8 12 1 0
BITMAP
18
18
00
3D
43
80
80
80
8F
81
41
3E
ENDCHAR
STARTCHAR 0121
ENCODING 289
SWIDTH 600 0
DWIDTH 10 0
BBX 8 13 1 -3
BITMAP
18
18
00
3B
46
82
82
82
46
3A
02
02
3C
ENDCHAR
STARTCHAR 0122
ENCODING 290
SWIDTH 600 0
DWIDTH 10 0
BBX 8 12 1 -3
BITMAP
3D
43
80
80
80
8F
81
41
3E
18
08
30
ENDCHAR
STARTCHAR 0123
ENCODING 291
SWIDTH 600 0
DWIDTH 10 0
BBX 8 13 1 -2
BITMAP
10
18
00
3B
46
82
82
82
46
3A
02
02
3C
ENDCHAR
STARTCHAR 0124
ENCODING 292
SWIDTH 600 0
DWIDTH 10 0
BBX 8 12 1 1
BITMAP
18
26
00
E7
42
42
42
7E
42
42
42
E7
ENDCHAR
STARTCHAR 0125
ENCODING 293
SWIDTH 600 0
DWIDTH 10 0
BBX 8 12 1 0
BITMAP
18
26
C0
40
40
5C
62
42
42
42
42
E7
ENDCHAR
STARTCHAR 0126
ENCODING 294
SWIDTH 600 0
DWIDTH 10 0
BBX 8 9 1 0
BITMAP
E7
42
FF
42
7E
42
42
42
E7
ENDCHAR
STARTCHAR 0127
ENCODING 295
SWIDTH 600 0
DWIDTH 10 0
BBX 9 10 0 0
BITMAP
C000
F800
4000
5E00
6100
4100
4100
4100
4100
E380
ENDCHAR
STARTCHAR 0128
ENCODING 296
SWIDTH 600 0
DWIDTH 10 0
BBX 6 12 2 0
BITMAP
20
5C
00
FC
10
10
10
10
10
10
10
FC
ENDCHAR
STARTCHAR 0129
ENCODING 297
SWIDTH 600 0
DWIDTH 10 0
BBX 7 9 1 0
BITMAP
F8
00
70
10
10
10
10
10
FE
ENDCHAR
STARTCHAR 012A
ENCODING 298
SWIDTH 600 0
DWIDTH 10 0
BBX 6 11 2 0
BITMAP
7C
00
FC
10
10
10
10
10
10
10
FC
ENDCHAR
STARTCHAR 012B
ENCODING 299
SWIDTH 600 0
DWIDTH 10 0
BBX 7 9 2 0
BITMAP
F8
00
70
10
10
10
10
10
FE
ENDCHAR
STARTCHAR 012C
ENCODING 300
SWIDTH 600 0
DWIDTH 10 0
BBX 6 12 2 1
BITMAP
44
38
00
FC
10
10
10
10
10
10
10
FC
ENDCHAR
STARTCHAR 012D
ENCODING 301
SWIDTH 600 0
DWIDTH 10 0
BBX 6 10 2 0
BITMAP
88
70
00
70
10
10
10
10
10
FC
ENDCHAR
STARTCHAR 012E
ENCODING 302
SWIDTH 600 0
DWIDTH 10 0
BBX 6 12 2 -3
BITMAP
FC
10
10
10
10
10
10
10
FC
20
28
10
ENDCHAR
STARTCHAR 012F
ENCODING 303
SWIDTH 600 0
DWIDTH 10 0
BBX 7 13 2 -3
BITMAP
10
10
00
70
10
10
10
10
10
FE
20
28
10
ENDCHAR
STARTCHAR 0130
ENCODING 304
SWIDTH 600 0
DWIDTH 10 0
BBX 6 12 2 0
BITMAP
30
30
00
FC
10
10
10
10
10
10
10
FC
ENDCHAR
STARTCHAR 0131
ENCODING 305
SWIDTH 600 0
DWIDTH 10 0
BBX 7 7 1 0
BITMAP
70
10
10
10
10
10
FE
ENDCHAR
STARTCHAR 0132
ENCODING 306
SWIDTH 600 0
DWIDTH 10 0
BBX 10 9 0 0
BITMAP
F7C0
4100
4100
4100
4100
4100
4900
4900
F600
ENDCHAR
STARTCHAR 0133
ENCODING 307
SWIDTH 600 0
DWIDTH 10 0
BBX 8 13 0 -3
BITMAP
22
22
00
EF
21
21
21
21
21
FD
01
01
1E
ENDCHAR
STARTCHAR 0134
ENCODING 308
SWIDTH 600 0
DWIDTH 10 0
BBX 8 12 1 1
BITMAP
0C
13
00
3F
04
04
04
04
84
84
84
78
ENDCHAR
STARTCHAR 0135
ENCODING 309
SWIDTH 600 0
DWIDTH 10 0
BBX 6 13 2 -2
BITMAP
30
4C
00
F8
08
08
08
08
08
08
08
08
F0
ENDCHAR
STARTCHAR 0136
ENCODING 310
SWIDTH 600 0
DWIDTH 10 0
BBX 9 12 1 -3
BITMAP
F380
4200
4400
5800
6800
4400
4200
4200
F180
0000
0C00
1C00
ENDCHAR
STARTCHAR 0137
ENCODING 311
SWIDTH 600 0
DWIDTH 10 0
BBX 8 13 2 -3
BITMAP
C0
40
40
4E
48
50
70
48
44
C7
00
18
38
ENDCHAR
STARTCHAR 0138
ENCODING 312
SWIDTH 600 0
DWIDTH 10 0
BBX 7 7 1 0
BITMAP
EE
48
70
50
48
44
E2
ENDCHAR
STARTCHAR 0139
ENCODING 313
SWIDTH 600 0
DWIDTH 10 0
BBX 8 12 1 1
BITMAP
08
10
00
F8
20
20
20
20
21
21
21
FF
ENDCHAR
STARTCHAR 013A
ENCODING 314
SWIDTH 600 0
DWIDTH 10 0
BBX 7 13 1 0
BITMAP
08
10
20
70
10
10
10
10
10
10
10
10
FE
ENDCHAR
STARTCHAR 013B
ENCODING 315
SWIDTH 600 0
DWIDTH 10 0
BBX 8 12 1 -3
BITMAP
F8
20
20
20
20
21
21
21
FF
00
18
18
ENDCHAR
STARTCHAR 013C
ENCODING 316
SWIDTH 600 0
DWIDTH 10 0
BBX 7 13 1 -3
BITMAP
70
10
10
10
10
10
10
10
10
FE
00
18
38
ENDCHAR
STARTCHAR 013D
ENCODING 317
SWIDTH 600 0
DWIDTH 10 0
BBX 8 9 1 0
BITMAP
FA
22
20
20
20
21
21
21
FF
ENDCHAR
STARTCHAR 013E
ENCODING 318
SWIDTH 600 0
DWIDTH 10 0
BBX 7 10 1 0
BITMAP
76
14
10
10
10
10
10
10
10
FE
ENDCHAR
STARTCHAR 013F
ENCODING 319
SWIDTH 600 0
DWIDTH 10 0
BBX 8 9 1 0
BITMAP
F8
20
20
2C
2C
21
21
21
FF
ENDCHAR
STARTCHAR 0140
ENCODING 320
SWIDTH 600 0
DWIDTH 10 0
BBX 7 10 1 0
BITMAP
70
10
10
10
1C
1C
10
10
10
FE
ENDCHAR
STARTCHAR 0141
ENCODING 321
SWIDTH 600 0
DWIDTH 10 0
BBX 8 9 1 0
BITMAP
F8
20
20
38
20
E1
21
21
FF
ENDCHAR
STARTCHAR 0142
ENCODING 322
SWIDTH 600 0
DWIDTH 10 0
BBX 7 10 1 0
BITMAP
70
10
10
14
18
30
10
10
10
FE
ENDCHAR
STARTCHAR 0143
ENCODING 323
SWIDTH 600 0
DWIDTH 10 0
BBX 8 12 1 1
BITMAP
0C
10
00
C7
61
51
51
49
45
45
43
E1
ENDCHAR
STARTCHAR 0144
ENCODING 324
SWIDTH 600 0
DWIDTH 10 0
BBX 8 10 1 0
BITMAP
04
18
00
DC
62
42
42
42
42
E7
ENDCHAR
STARTCHAR 0145
ENCODING 325
SWIDTH 600 0
DWIDTH 10 0
BBX 8 12 1 -3
BITMAP
C7
61
51
51
49
45
45
43
E1
00
0C
1C
ENDCHAR
STARTCHAR 0146
ENCODING 326
SWIDTH 600 0
DWIDTH 10 0
BBX 9 10 1 -3
BITMAP
DC00
6200
4200
4200
4200
4200
E380
0000
0C00
1C00
ENDCHAR
STARTCHAR 0147
ENCODING 327
SWIDTH 600 0
DWIDTH 10 0
BBX 8 12 1 1
BITMAP
26
18
00
C7
61
51
51
49
49
45
43
E1
ENDCHAR
STARTCHAR 0148
ENCODING 328
SWIDTH 600 0
DWIDTH 10 0
BBX 8 10 1 0
BITMAP
26
18
00
DC
62
42
42
42
42
E7
ENDCHAR
STARTCHAR 0149
ENCODING 329
SWIDTH 600 0
DWIDTH 10 0
BBX 9 10 0 0
BITMAP
C000
8000
0000
6E00
3100
2100
2100
2100
2100
7380
ENDCHAR
STARTCHAR 014A
ENCODING 330
SWIDTH 600 0
DWIDTH 10 0
BBX 8 9 1 0
BITMAP
DE
61
41
41
41
41
41
41
EE
ENDCHAR
STARTCHAR 014B
ENCODING 331
SWIDTH 600 0
DWIDTH 10 0
BBX 7 10 1 -3
BITMAP
DC
62
42
42
42
42
E2
02
02
1C
ENDCHAR
STARTCHAR 014C
ENCODING 332
SWIDTH 600 0
DWIDTH 10 0
BBX 8 12 1 0
BITMAP
3E
00
00
3C
42
82
81
81
81
81
42
3C
ENDCHAR
STARTCHAR 014D
ENCODING 333
SWIDTH 600 0
DWIDTH 10 0
BBX 8 9 1 0
BITMAP
7C
00
3C
42
81
81
81
42
3C
ENDCHAR
STARTCHAR 014E
ENCODING 334
SWIDTH 600 0
DWIDTH 10 0
BBX 8 12 1 0
BITMAP
22
1C
00
3C
42
82
81
81
81
81
42
3C
ENDCHAR
STARTCHAR 014F
ENCODING 335
SWIDTH 600 0
DWIDTH 10 0
BBX 8 10 1 0
BITMAP
44
38
00
3C
42
81
81
81
42
3C
ENDCHAR
STARTCHAR 0150
ENCODING 336
SWIDTH 600 0
DWIDTH 10 0
BBX 8 12 1 1
BITMAP
0A
34
00
3C
42
82
81
81
81
81
42
3C
ENDCHAR
STARTCHAR 0151
ENCODING 337
SWIDTH 600 0
DWIDTH 10 0
BBX 8 10 1 1
BITMAP
1A
24
00
3C
42
81
81
81
42
3C
ENDCHAR
STARTCHAR 0152
ENCODING 338
SWIDTH 600 0
DWIDTH 10 0
BBX 10 9 0 0
BITMAP
3F80
4480
8480
8500
8700
8400
8440
4440
3FC0
ENDCHAR
STARTCHAR 0153
ENCODING 339
SWIDTH 600 0
DWIDTH 10 0
BBX 9 7 0 0
BITMAP
7700
9880
8880
8F80
8800
9880
7700
ENDCHAR
STARTCHAR 0154
ENCODING 340
SWIDTH 600 0
DWIDTH 10 0
BBX 9 12 1 0
BITMAP
0400
1800
0000
FE00
4100
4100
4200
7C00
4400
4200
4100
F080
ENDCHAR
STARTCHAR 0155
ENCODING 341
SWIDTH 600 0
DWIDTH 10 0
BBX 7 10 1 1
BITMAP
08
30
00
EE
30
20
20
20
20
FC
ENDCHAR
STARTCHAR 0156
ENCODING 342
SWIDTH 600 0
DWIDTH 10 0
BBX 9 12 1 -3
BITMAP
FE00
4100
4100
4200
7C00
4600
4200
4100
F080
0000
0C00
1C00
ENDCHAR
STARTCHAR 0157
ENCODING 343
SWIDTH 600 0
DWIDTH 10 0
BBX 7 10 1 -3
BITMAP
EE
30
20
20
20
20
FC
00
30
70
ENDCHAR
STARTCHAR 0158
ENCODING 344
SWIDTH 600 0
DWIDTH 10 0
BBX 9 12 1 1
BITMAP
6400
1800
0000
FE00
4100
4100
4200
7C00
4400
4200
4100
F080
ENDCHAR
STARTCHAR 0159
ENCODING 345
SWIDTH 600 0
DWIDTH 10 0
BBX 7 10 1 0
BITMAP
64
18
00
EE
30
20
20
20
20
FC
ENDCHAR
STARTCHAR 015A
ENCODING 346
SWIDTH 600 0
DWIDTH 10 0
BBX 7 12 1 1
BITMAP
08
10
00
7A
86
82
80
78
06
82
82
FC
ENDCHAR
STARTCHAR 015B
ENCODING 347
SWIDTH 600 0
DWIDTH 10 0
BBX 7 10 2 1
BITMAP
18
20
00
78
80
C0
3C
02
82
FC
ENDCHAR
STARTCHAR 015C
ENCODING 348
SWIDTH 600 0
DWIDTH 10 0
BBX 7 12 1 1
BITMAP
38
44
00
7A
86
82
80
78
06
82
82
FC
ENDCHAR
STARTCHAR 015D
ENCODING 349
SWIDTH 600 0
DWIDTH 10 0
BBX 7 10 2 1
BITMAP
30
4C
00
7C
84
C0
3C
02
82
FC
ENDCHAR
STARTCHAR 015E
ENCODING 350
SWIDTH 600 0
DWIDTH 10 0
BBX 7 12 1 -3
BITMAP
7A
86
82
80
78
06
82
82
FC
10
08
38
ENDCHAR
STARTCHAR 015F
ENCODING 351
SWIDTH 600 0
DWIDTH 10 0
BBX 7 10 2 -3
BITMAP
7C
84
C0
3C
02
82
FC
10
08
38
ENDCHAR
STARTCHAR 0160
ENCODING 352
SWIDTH 600 0
DWIDTH 10 0
BBX 7 12 1 0
BITMAP
44
28
10
7A
86
82
80
78
06
82
82
FC
ENDCHAR
STARTCHAR 0161
ENCODING 353
SWIDTH 600 0
DWIDTH 10 0
BBX 7 10 2 0
BITMAP
4C
30
00
7C
84
C0
3C
02
82
FC
ENDCHAR
STARTCHAR 0162
ENCODING 354
SWIDTH 600 0
DWIDTH 10 0
BBX 8 12 1 -4
BITMAP
FF
91
91
10
10
10
10
10
7C
00
18
10
ENDCHAR
STARTCHAR 0163
ENCODING 355
SWIDTH 600 0
DWIDTH 10 0
BBX 7 12 1 -4
BITMAP
20
20
FC
20
20
20
20
20
1E
00
18
10
ENDCHAR
STARTCHAR 0164
ENCODING 356
SWIDTH 600 0
DWIDTH 10 0
BBX 8 12 1 1
BITMAP
44
38
00
FF
91
91
10
10
10
10
10
7C
ENDCHAR
STARTCHAR 0165
ENCODING 357
SWIDTH 600 0
DWIDTH 10 0
BBX 8 10 1 0
BITMAP
03
22
20
FC
20
20
20
20
20
1E
ENDCHAR
STARTCHAR 0166
ENCODING 358
SWIDTH 600 0
DWIDTH 10 0
BBX 8 9 1 0
BITMAP
FF
91
91
10
7E
10
10
10
7C
ENDCHAR
STARTCHAR 0167
ENCODING 359
SWIDTH 600 0
DWIDTH 10 0
BBX 8 9 1 0
BITMAP
20
20
FC
20
FC
20
20
20
1F
ENDCHAR
STARTCHAR 0168
ENCODING 360
SWIDTH 600 0
DWIDTH 10 0
BBX 8 12 1 0
BITMAP
30
0C
00
E7
41
41
41
41
41
41
22
1C
ENDCHAR
STARTCHAR 0169
ENCODING 361
SWIDTH 600 0
DWIDTH 10 0
BBX 8 9 1 0
BITMAP
7C
00
CE
42
42
42
42
42
3F
ENDCHAR
STARTCHAR 016A
ENCODING 362
SWIDTH 600 0
DWIDTH 10 0
BBX 8 12 1 0
BITMAP
3E
00
00
E7
41
41
41
41
41
41
22
1C
ENDCHAR
STARTCHAR 016B
ENCODING 363
SWIDTH 600 0
DWIDTH 10 0
BBX 8 9 1 0
BITMAP
7C
00
CE
42
42
42
42
46
3B
ENDCHAR
STARTCHAR 016C
ENCODING 364
SWIDTH 600 0
DWIDTH 10 0
BBX 8 12 1 1
BITMAP
22
1C
00
E7
41
41
41
41
41
41
22
1C
ENDCHAR
STARTCHAR 016D
ENCODING 365
SWIDTH 600 0
DWIDTH 10 0
BBX 8 10 1 0
BITMAP
44
38
00
CE
42
42
42
42
42
3F
ENDCHAR
STARTCHAR 016E
ENCODING 366
SWIDTH 600 0
DWIDTH 10 0
BBX 8 13 1 0
BITMAP
08
14
08
00
F7
41
41
41
41
41
41
22
1C
ENDCHAR
STARTCHAR 016F
ENCODING 367
SWIDTH 600 0
DWIDTH 10 0
BBX 8 11 1 0
BITMAP
18
24
18
00
C6
42
42
42
42
42
3F
ENDCHAR
STARTCHAR 0170
ENCODING 368
SWIDTH 600 0
DWIDTH 10 0
BBX 8 13 1 0
BITMAP
09
12
04
00
E7
41
41
41
41
41
41
62
1C
ENDCHAR
STARTCHAR 0171
ENCODING 369
SWIDTH 600 0
DWIDTH 10 0
BBX 8 10 1 1
BITMAP
16
20
00
CE
42
42
42
42
42
3F
ENDCHAR
STARTCHAR 0172
ENCODING 370
SWIDTH 600 0
DWIDTH 10 0
BBX 8 11 1 -2
BITMAP
E7
41
41
41
41
41
41
22
3C
10
0C
ENDCHAR
STARTCHAR 0173
ENCODING 371
SWIDTH 600 0
DWIDTH 10 0
BBX 9 9 1 -2
BITMAP
C600
4200
4200
4200
4200
4200
3F00
0200
0180
ENDCHAR
STARTCHAR 0174
ENCODING 372
SWIDTH 600 0
DWIDTH 10 0
BBX 9 12 0 1
BITMAP
1C00
2200
0000
E380
8100
8900
5500
5500
5500
6500
6300
6300
ENDCHAR
STARTCHAR 0175
ENCODING 373
SWIDTH 600 0
DWIDTH 10 0
BBX 9 10 0 1
BITMAP
1C00
2200
0000
E380
4100
4900
5900
5600
3600
2200
ENDCHAR
STARTCHAR 0176
ENCODING 374
SWIDTH 600 0
DWIDTH 10 0
BBX 8 12 1 1
BITMAP
1C
26
00
E7
22
24
14
08
08
08
08
3E
ENDCHAR
STARTCHAR 0177
ENCODING 375
SWIDTH 600 0
DWIDTH 10 0
BBX 8 13 1 -2
BITMAP
18
26
00
E7
42
42
24
24
18
08
10
10
F8
ENDCHAR
STARTCHAR 0178
ENCODING 376
SWIDTH 600 0
DWIDTH 10 0
BBX 8 12 1 0
BITMAP
24
00
00
E7
22
24
14
08
08
08
08
3E
ENDCHAR
STARTCHAR 0179
ENCODING 377
SWIDTH 600 0
DWIDTH 10 0
BBX 7 12 2 1
BITMAP
08
30
00
FC
84
88
10
10
20
42
82
FE
ENDCHAR
STARTCHAR 017A
ENCODING 378
SWIDTH 600 0
DWIDTH 10 0
BBX 6 10 2 1
BITMAP
18
20
00
FC
88
10
20
60
44
FC
ENDCHAR
STARTCHAR 017B
ENCODING 379
SWIDTH 600 0
DWIDTH 10 0
BBX 7 12 2 0
BITMAP
30
30
00
FC
84
88
10
10
20
42
82
FE
ENDCHAR
STARTCHAR 017C
ENCODING 380
SWIDTH 600 0
DWIDTH 10 0
BBX 6 10 2 0
BITMAP
30
30
00
FC
88
10
20
60
C4
FC
ENDCHAR
STARTCHAR 017D
ENCODING 381
SWIDTH 600 0
DWIDTH 10 0
BBX 7 12 2 1
BITMAP
4C
30
00
FC
84
88
10
10
20
42
82
FE
ENDCHAR
STARTCHAR 017E
ENCODING 382
SWIDTH 600 0
DWIDTH 10 0
BBX 7 10 2 0
BITMAP
44
38
00
FC
88
10
10
20
42
FE
ENDCHAR
STARTCHAR 017F
ENCODING 383
SWIDTH 600 0
DWIDTH 10 0
BBX 7 10 2 0
BITMAP
1E
20
20
E0
20
20
20
20
20
F8
ENDCHAR
STARTCHAR 018F
ENCODING 399
SWIDTH 600 0
DWIDTH 10 0
BBX 9 9 0 0
BITMAP
5E00
6100
4080
0080
FF80
8080
8080
4100
3E00
ENDCHAR
STARTCHAR 0192
ENCODING 402
SWIDTH 600 0
DWIDTH 10 0
BBX 7 12 1 -2
BITMAP
0E
10
10
10
7C
10
10
10
10
10
10
E0
ENDCHAR
STARTCHAR 01A0
ENCODING 416
SWIDTH 600 0
DWIDTH 10 0
BBX 9 9 1 0
BITMAP
3C80
4300
8200
8100
8100
8100
8100
4200
3C00
ENDCHAR
STARTCHAR 01A1
ENCODING 417
SWIDTH 600 0
DWIDTH 10 0
BBX 9 7 1 0
BITMAP
3C80
4300
8100
8100
8100
4200
3C00
ENDCHAR
STARTCHAR 01AF
ENCODING 431
SWIDTH 600 0
DWIDTH 10 0
BBX 9 11 1 0
BITMAP
0080
0080
E700
4100
4100
4100
4100
4100
4100
2200
1C00
ENDCHAR
STARTCHAR 01B0
ENCODING 432
SWIDTH 600 0
DWIDTH 10 0
BBX 9 7 1 0
BITMAP
C680
4300
4200
4200
4200
4200
3F00
ENDCHAR
STARTCHAR 01CD
ENCODING 461
SWIDTH 600 0
DWIDTH 10 0
BBX 9 12 0 1
BITMAP
2200
1C00
0000
3800
1400
1400
2400
2200
3E00
4100
4100
E380
ENDCHAR
STARTCHAR 01CE
ENCODING 462
SWIDTH 600 0
DWIDTH 10 0
BBX 8 10 1 0
BITMAP
44
38
00
7C
02
3E
C2
82
86
7B
ENDCHAR
STARTCHAR 01CF
ENCODING 463
SWIDTH 600 0
DWIDTH 10 0
BBX 6 12 2 1
BITMAP
44
38
00
FC
10
10
10
10
10
10
10
FC
ENDCHAR
STARTCHAR 01D0
ENCODING 464
SWIDTH 600 0
DWIDTH 10 0
BBX 7 10 1 0
BITMAP
64
18
00
78
08
08
08
08
08
FE
ENDCHAR
STARTCHAR 01D1
ENCODING 465
SWIDTH 600 0
DWIDTH 10 0
BBX 8 12 1 0
BITMAP
22
14
08
3C
42
82
81
81
81
81
42
3C
ENDCHAR
STARTCHAR 01D2
ENCODING 466
SWIDTH 600 0
DWIDTH 10 0
BBX 8 10 1 0
BITMAP
44
38
00
3C
42
81
81
81
42
3C
ENDCHAR
STARTCHAR 01D3
ENCODING 467
SWIDTH 600 0
DWIDTH 10 0
BBX 8 12 1 1
BITMAP
26
18
00
E7
41
41
41
41
41
41
22
1C
ENDCHAR
STARTCHAR 01D4
ENCODING 468
SWIDTH 600 0
DWIDTH 10 0
BBX 8 10 1 0
BITMAP
64
18
00
CE
42
42
42
42
42
3F
ENDCHAR
STARTCHAR 01D5
ENCODING 469
SWIDTH 600 0
DWIDTH 10 0
BBX 8 13 1 0
BITMAP
3E
00
22
00
E7
41
41
41
41
41
41
22
1C
ENDCHAR
STARTCHAR 01D6
ENCODING 470
SWIDTH 600 0
DWIDTH 10 0
BBX 8 12 1 0
BITMAP
3C
00
00
24
00
C6
42
42
42
42
42
3F
ENDCHAR
STARTCHAR 01D7
ENCODING 471
SWIDTH 600 0
DWIDTH 10 0
BBX 8 12 1 1
BITMAP
08
22
00
E7
41
41
41
41
41
41
22
1C
ENDCHAR
STARTCHAR 01D8
ENCODING 472
SWIDTH 600 0
DWIDTH 10 0
BBX 8 12 1 0
BITMAP
04
18
00
24
00
C6
42
42
42
42
42
3F
ENDCHAR
STARTCHAR 01D9
ENCODING 473
SWIDTH 600 0
DWIDTH 10 0
BBX 8 12 1 1
BITMAP
18
42
00
E7
41
41
41
41
41
41
22
1C
ENDCHAR
STARTCHAR 01DA
ENCODING 474
SWIDTH 600 0
DWIDTH 10 0
BBX 8 11 1 1
BITMAP
28
10
24
00
C6
42
42
42
42
42
3F
ENDCHAR
STARTCHAR 01DB
ENCODING 475
SWIDTH 600 0
DWIDTH 10 0
BBX 8 11 1 2
BITMAP
22
00
E7
41
41
41
41
41
41
22
1C
ENDCHAR
STARTCHAR 01DC
ENCODING 476
SWIDTH 600 0
DWIDTH 10 0
BBX 8 12 1 0
BITMAP
20
10
00
24
00
C6
42
42
42
42
42
3F
ENDCHAR
STARTCHAR 01FA
ENCODING 506
SWIDTH 600 0
DWIDTH 10 0
BBX 9 15 0 1
BITMAP
0400
0800
0800
1400
1400
0800
3800
1400
1400
1400
2200
3E00
2200
4100
F380
ENDCHAR
STARTCHAR 01FB
ENCODING 507
SWIDTH 600 0
DWIDTH 10 0
BBX 8 14 1 0
BITMAP
04
08
10
18
24
18
00
3C
02
3E
42
82
86
7B
ENDCHAR
STARTCHAR 01FC
ENCODING 508
SWIDTH 600 0
DWIDTH 10 0
BBX 10 12 0 1
BITMAP
0200
0C00
0000
7F80
1480
2480
2500
2700
3C00
4440
4440
EFC0
ENDCHAR
STARTCHAR 01FD
ENCODING 509
SWIDTH 600 0
DWIDTH 10 0
BBX 9 10 0 1
BITMAP
0200
0C00
0000
7300
0C80
7880
CF80
8800
8880
7F80
ENDCHAR
STARTCHAR 01FE
ENCODING 510
SWIDTH 600 0
DWIDTH 10 0
BBX 8 13 1 0
BITMAP
04
08
10
01
3D
42
86
89
89
91
A1
42
BC
ENDCHAR
STARTCHAR 01FF
ENCODING 511
SWIDTH 600 0
DWIDTH 10 0
BBX 8 10 1 1
BITMAP
0C
10
01
3D
42
85
89
91
62
BC
ENDCHAR
STARTCHAR 0259
ENCODING 601
SWIDTH 600 0
DWIDTH 10 0
BBX 8 7 1 0
BITMAP
FC
02
01
FF
81
42
3C
ENDCHAR
STARTCHAR 02C6
ENCODING 710
SWIDTH 600 0
DWIDTH 10 0
BBX 5 2 3 9
BITMAP
70
88
ENDCHAR
STARTCHAR 02C7
ENCODING 711
SWIDTH 600 0
DWIDTH 10 0
BBX 5 2 3 7
BITMAP
88
70
ENDCHAR
STARTCHAR 02C9
ENCODING 713
SWIDTH 600 0
DWIDTH 10 0
BBX 5 1 3 8
BITMAP
F8
ENDCHAR
STARTCHAR 02D8
ENCODING 728
SWIDTH 600 0
DWIDTH 10 0
BBX 5 2 2 8
BITMAP
88
70
ENDCHAR
STARTCHAR 02D9
ENCODING 729
SWIDTH 600 0
DWIDTH 10 0
BBX 2 2 4 8
BITMAP
C0
C0
ENDCHAR
STARTCHAR 02DA
ENCODING 730
SWIDTH 600 0
DWIDTH 10 0
BBX 3 3 3 8
BITMAP
40
A0
40
ENDCHAR
STARTCHAR 02DB
ENCODING 731
SWIDTH 600 0
DWIDTH 10 0
BBX 2 3 4 -3
BITMAP
40
80
40
ENDCHAR
STARTCHAR 02DC
ENCODING 732
SWIDTH 600 0
DWIDTH 10 0
BBX 5 2 2 7
BITMAP
E8
98
ENDCHAR
STARTCHAR 02DD
ENCODING 733
SWIDTH 600 0
DWIDTH 10 0
BBX 5 2 3 8
BITMAP
48
B0
ENDCHAR
STARTCHAR 0300
ENCODING 768
SWIDTH 600 0
DWIDTH 10 0
BBX 3 2 4 10
BITMAP
80
60
ENDCHAR
STARTCHAR 0301
ENCODING 769
SWIDTH 600 0
DWIDTH 10 0
BBX 3 2 3 10
BITMAP
20
C0
ENDCHAR
STARTCHAR 0303
ENCODING 771
SWIDTH 600 0
DWIDTH 10 0
BBX 5 2 2 11
BITMAP
40
B8
ENDCHAR
STARTCHAR 0309
ENCODING 777
SWIDTH 600 0
DWIDTH 10 0
BBX 3 2 3 10
BITMAP
E0
40
ENDCHAR
STARTCHAR 0323
ENCODING 803
SWIDTH 600 0
DWIDTH 10 0
BBX 2 2 4 -3
BITMAP
C0
C0
ENDCHAR
STARTCHAR 037E
ENCODING 894
SWIDTH 600 0
DWIDTH 10 0
BBX 3 8 2 -2
BITMAP
60
60
00
00
60
40
C0
80
ENDCHAR
STARTCHAR 0384
ENCODING 900
SWIDTH 600 0
DWIDTH 10 0
BBX 3 2 4 8
BITMAP
20
C0
ENDCHAR
STARTCHAR 0385
ENCODING 901
SWIDTH 600 0
DWIDTH 10 0
BBX 5 2 2 7
BITMAP
18
A8
ENDCHAR
STARTCHAR 0386
ENCODING 902
SWIDTH 600 0
DWIDTH 10 0
BBX 9 9 1 0
BITMAP
B800
9400
9400
2400
2200
3E00
4200
4100
E380
ENDCHAR
STARTCHAR 0387
ENCODING 903
SWIDTH 600 0
DWIDTH 10 0
BBX 2 2 4 5
BITMAP
C0
C0
ENDCHAR
STARTCHAR 0388
ENCODING 904
SWIDTH 600 0
DWIDTH 10 0
BBX 10 9 0 0
BITMAP
3F80
9080
9080
1200
1E00
1200
1040
1040
3FC0
ENDCHAR
STARTCHAR 0389
ENCODING 905
SWIDTH 600 0
DWIDTH 10 0
BBX 9 9 0 0
BITMAP
3B80
9080
1080
1080
1F80
1080
1080
1080
3B80
ENDCHAR
STARTCHAR 038A
ENCODING 906
SWIDTH 600 0
DWIDTH 10 0
BBX 8 9 0 0
BITMAP
3F
84
04
04
04
04
04
04
3F
ENDCHAR
STARTCHAR 038C
ENCODING 908
SWIDTH 600 0
DWIDTH 10 0
BBX 9 9 0 0
BITMAP
9E00
A100
C100
4080
4080
4080
4100
2100
1E00
ENDCHAR
STARTCHAR 038E
ENCODING 910
SWIDTH 600 0
DWIDTH 10 0
BBX 9 9 0 0
BITMAP
B380
9100
9200
0A00
0400
0400
0400
0400
1F00
ENDCHAR
STARTCHAR 038F
ENCODING 911
SWIDTH 600 0
DWIDTH 10 0
BBX 10 9 0 0
BITMAP
9F00
A080
C040
4040
4040
4040
2080
5B40
7BC0
ENDCHAR
STARTCHAR 0390
ENCODING 912
SWIDTH 600 0
DWIDTH 10 0
BBX 5 11 2 0
BITMAP
08
10
A8
00
20
20
20
20
20
20
38
ENDCHAR
STARTCHAR 0391
ENCODING 913
SWIDTH 600 0
DWIDTH 10 0
BBX 9 9 0 0
BITMAP
3800
1400
1400
2400
2200
3E00
4200
4100
E380
ENDCHAR
STARTCHAR 0392
ENCODING 914
SWIDTH 600 0
DWIDTH 10 0
BBX 8 9 1 0
BITMAP
FC
42
42
42
7C
42
41
42
FE
ENDCHAR
STARTCHAR 0393
ENCODING 915
SWIDTH 600 0
DWIDTH 10 0
BBX 8 9 1 0
BITMAP
FF
21
21
21
20
20
20
20
F8
ENDCHAR
STARTCHAR 0394
ENCODING 916
SWIDTH 600 0
DWIDTH 10 0
BBX 8 9 1 0
BITMAP
18
28
28
24
44
42
82
82
FF
ENDCHAR
STARTCHAR 0395
ENCODING 917
SWIDTH 600 0
DWIDTH 10 0
BBX 9 9 0 0
BITMAP
FF00
2100
2100
2400
3C00
2400
2080
2080
FF80
ENDCHAR
STARTCHAR 0396
ENCODING 918
SWIDTH 600 0
DWIDTH 10 0
BBX 7 9 2 0
BITMAP
FC
84
88
10
10
20
42
82
FE
ENDCHAR
STARTCHAR 0397
ENCODING 919
SWIDTH 600 0
DWIDTH 10 0
BBX 8 9 1 0
BITMAP
E7
42
42
42
7E
42
42
42
E7
ENDCHAR
STARTCHAR 0398
ENCODING 920
SWIDTH 600 0
DWIDTH 10 0
BBX 8 9 1 0
BITMAP
3C
42
82
A3
BF
A3
82
42
3C
ENDCHAR
STARTCHAR 0399
ENCODING 921
SWIDTH 600 0
DWIDTH 10 0
BBX 6 9 2 0
BITMAP
FC
10
10
10
10
10
10
10
FC
ENDCHAR
STARTCHAR 039A
ENCODING 922
SWIDTH 600 0
DWIDTH 10 0
BBX 9 9 1 0
BITMAP
F700
4600
4C00
5800
6800
4400
4400
4200
F380
ENDCHAR
STARTCHAR 039B
ENCODING 923
SWIDTH 600 0
DWIDTH 10 0
BBX 9 9 0 0
BITMAP
3800
1400
1400
1400
2200
2200
2200
4100
E380
ENDCHAR
STARTCHAR 039C
ENCODING 924
SWIDTH 600 0
DWIDTH 10 0
BBX 9 9 0 0
BITMAP
C180
6180
6280
5480
5480
4880
4080
4080
E380
ENDCHAR
STARTCHAR 039D
ENCODING 925
SWIDTH 600 0
DWIDTH 10 0
BBX 8 9 1 0
BITMAP
C7
61
51
51
49
45
45
43
E1
ENDCHAR
STARTCHAR 039E
ENCODING 926
SWIDTH 600 0
DWIDTH 10 0
BBX 8 9 1 0
BITMAP
FF
81
81
44
7C
44
81
81
FF
ENDCHAR
STARTCHAR 039F
ENCODING 927
SWIDTH 600 0
DWIDTH 10 0
BBX 8 9 1 0
BITMAP
3C
42
82
81
81
81
81
42
3C
ENDCHAR
STARTCHAR 03A0
ENCODING 928
SWIDTH 600 0
DWIDTH 10 0
BBX 8 9 1 0
BITMAP
FF
42
42
42
42
42
42
42
E7
ENDCHAR
STARTCHAR 03A1
ENCODING 929
SWIDTH 600 0
DWIDTH 10 0
BBX 8 9 1 0
BITMAP
FE
41
41
43
7C
40
40
40
F8
ENDCHAR
STARTCHAR 03A3
ENCODING 931
SWIDTH 600 0
DWIDTH 10 0
BBX 7 9 1 0
BITMAP
FE
42
42
20
10
20
22
42
FE
ENDCHAR
STARTCHAR 03A4
ENCODING 932
SWIDTH 600 0
DWIDTH 10 0
BBX 8 9 1 0
BITMAP
FF
91
91
10
10
10
10
10
7C
ENDCHAR
STARTCHAR 03A5
ENCODING 933
SWIDTH 600 0
DWIDTH 10 0
BBX 8 9 1 0
BITMAP
E7
22
24
14
08
08
08
08
3E
ENDCHAR
STARTCHAR 03A6
ENCODING 934
SWIDTH 600 0
DWIDTH 10 0
BBX 9 9 1 0
BITMAP
3C00
3E00
4900
8880
8880
8880
4900
3E00
3C00
ENDCHAR
STARTCHAR 03A7
ENCODING 935
SWIDTH 600 0
DWIDTH 10 0
BBX 8 9 1 0
BITMAP
E7
42
24
18
08
18
24
42
E7
ENDCHAR
STARTCHAR 03A8
ENCODING 936
SWIDTH 600 0
DWIDTH 10 0
BBX 9 9 0 0
BITMAP
DF80
4900
4900
4900
4900
3E00
0800
0800
1E00
ENDCHAR
STARTCHAR 03A9
ENCODING 937
SWIDTH 600 0
DWIDTH 10 0
BBX 9 9 0 0
BITMAP
3E00
4100
8080
8080
8080
8080
4100
B680
F780
ENDCHAR
STARTCHAR 03AA
ENCODING 938
SWIDTH 600 0
DWIDTH 10 0
BBX 6 12 2 0
BITMAP
48
00
00
FC
10
10
10
10
10
10
10
FC
ENDCHAR
STARTCHAR 03AB
ENCODING 939
SWIDTH 600 0
DWIDTH 10 0
BBX 8 12 1 0
BITMAP
24
00
00
E7
22
24
14
08
08
08
08
3E
ENDCHAR
STARTCHAR 03AC
ENCODING 940
SWIDTH 600 0
DWIDTH 10 0
BBX 8 11 1 0
BITMAP
08
08
10
00
39
49
86
82
86
46
7B
ENDCHAR
STARTCHAR 03AD
ENCODING 941
SWIDTH 600 0
DWIDTH 10 0
BBX 5 11 2 0
BITMAP
10
10
20
00
70
88
80
70
C0
80
78
ENDCHAR
STARTCHAR 03AE
ENCODING 942
SWIDTH 600 0
DWIDTH 10 0
BBX 7 13 1 -2
BITMAP
0C
10
00
DC
62
42
42
42
42
E2
02
02
02
ENDCHAR
STARTCHAR 03AF
ENCODING 943
SWIDTH 600 0
DWIDTH 10 0
BBX 4 10 3 1
BITMAP
60
C0
00
40
40
40
40
40
40
70
ENDCHAR
STARTCHAR 03B0
ENCODING 944
SWIDTH 600 0
DWIDTH 10 0
BBX 8 10 1 1
BITMAP
04
4A
00
C7
42
42
42
42
42
3C
ENDCHAR
STARTCHAR 03B1
ENCODING 945
SWIDTH 600 0
DWIDTH 10 0
BBX 8 7 1 0
BITMAP
39
45
86
82
82
46
3B
ENDCHAR
STARTCHAR 03B2
ENCODING 946
SWIDTH 600 0
DWIDTH 10 0
BBX 7 13 2 -3
BITMAP
78
84
84
88
B0
9C
82
82
C4
B8
80
80
80
ENDCHAR
STARTCHAR 03B3
ENCODING 947
SWIDTH 600 0
DWIDTH 10 0
BBX 9 10 1 -3
BITMAP
C180
4200
2200
2400
1400
1800
0800
0800
0800
0800
ENDCHAR
STARTCHAR 03B4
ENCODING 948
SWIDTH 600 0
DWIDTH 10 0
BBX 7 10 1 0
BITMAP
7C
20
10
38
44
82
82
82
44
38
ENDCHAR
STARTCHAR 03B5
ENCODING 949
SWIDTH 600 0
DWIDTH 10 0
BBX 5 7 2 0
BITMAP
78
80
80
70
C0
80
78
ENDCHAR
STARTCHAR 03B6
ENCODING 950
SWIDTH 600 0
DWIDTH 10 0
BBX 6 13 3 -3
BITMAP
78
10
10
20
40
80
80
80
80
60
1C
04
18
ENDCHAR
STARTCHAR 03B7
ENCODING 951
SWIDTH 600 0
DWIDTH 10 0
BBX 7 10 1 -3
BITMAP
DC
62
42
42
42
42
E2
02
02
02
ENDCHAR
STARTCHAR 03B8
ENCODING 952
SWIDTH 600 0
DWIDTH 10 0
BBX 7 10 1 0
BITMAP
38
44
84
82
FE
82
82
84
44
38
ENDCHAR
STARTCHAR 03B9
ENCODING 953
SWIDTH 600 0
DWIDTH 10 0
BBX 3 7 4 0
BITMAP
80
80
80
80
80
80
E0
ENDCHAR
STARTCHAR 03BA
ENCODING 954
SWIDTH 600 0
DWIDTH 10 0
BBX 7 7 1 0
BITMAP
CE
48
50
70
48
44
E6
ENDCHAR
STARTCHAR 03BB
ENCODING 955
SWIDTH 600 0
DWIDTH 10 0
BBX 9 10 1 0
BITMAP
6000
1000
1000
0800
1800
1400
2200
2200
4100
E380
ENDCHAR
STARTCHAR 03BC
ENCODING 956
SWIDTH 600 0
DWIDTH 10 0
BBX 8 10 1 -3
BITMAP
C6
42
42
42
42
42
7F
40
40
40
ENDCHAR
STARTCHAR 03BD
ENCODING 957
SWIDTH 600 0
DWIDTH 10 0
BBX 8 7 0 0
BITMAP
C2
41
21
21
12
14
08
ENDCHAR
STARTCHAR 03BE
ENCODING 958
SWIDTH 600 0
DWIDTH 10 0
BBX 6 13 2 -3
BITMAP
78
40
40
40
30
60
80
80
80
70
0C
04
18
ENDCHAR
STARTCHAR 03BF
ENCODING 959
SWIDTH 600 0
DWIDTH 10 0
BBX 8 7 1 0
BITMAP
3C
42
81
81
81
42
3C
ENDCHAR
STARTCHAR 03C0
ENCODING 960
SWIDTH 600 0
DWIDTH 10 0
BBX 8 7 1 0
BITMAP
FF
42
42
42
42
42
E7
ENDCHAR
STARTCHAR 03C1
ENCODING 961
SWIDTH 600 0
DWIDTH 10 0
BBX 8 10 1 -3
BITMAP
3C
42
81
81
81
C2
BC
80
80
80
ENDCHAR
STARTCHAR 03C2
ENCODING 962
SWIDTH 600 0
DWIDTH 10 0
BBX 7 10 1 -3
BITMAP
3E
42
82
80
80
80
60
1C
04
18
ENDCHAR
STARTCHAR 03C3
ENCODING 963
SWIDTH 600 0
DWIDTH 10 0
BBX 8 7 1 0
BITMAP
3F
42
81
81
81
42
3C
ENDCHAR
STARTCHAR 03C4
ENCODING 964
SWIDTH 600 0
DWIDTH 10 0
BBX 5 7 2 0
BITMAP
F8
20
20
20
20
20
38
ENDCHAR
STARTCHAR 03C5
ENCODING 965
SWIDTH 600 0
DWIDTH 10 0
BBX 8 7 1 0
BITMAP
C7
42
42
42
42
42
3C
ENDCHAR
STARTCHAR 03C6
ENCODING 966
SWIDTH 600 0
DWIDTH 10 0
BBX 8 10 1 -3
BITMAP
2C
52
91
91
91
52
3C
10
10
10
ENDCHAR
STARTCHAR 03C7
ENCODING 967
SWIDTH 600 0
DWIDTH 10 0
BBX 8 10 1 -3
BITMAP
C4
48
28
30
10
10
28
28
44
43
ENDCHAR
STARTCHAR 03C8
ENCODING 968
SWIDTH 600 0
DWIDTH 10 0
BBX 8 13 1 -3
BITMAP
08
08
08
CB
4A
4A
4A
4A
4A
3C
08
08
08
ENDCHAR
STARTCHAR 03C9
ENCODING 969
SWIDTH 600 0
DWIDTH 10 0
BBX 8 7 1 0
BITMAP
24
42
81
89
89
89
76
ENDCHAR
STARTCHAR 03CA
ENCODING 970
SWIDTH 600 0
DWIDTH 10 0
BBX 4 9 3 0
BITMAP
90
00
20
20
20
20
20
20
30
ENDCHAR
STARTCHAR 03CB
ENCODING 971
SWIDTH 600 0
DWIDTH 10 0
BBX 8 9 1 0
BITMAP
24
00
C7
42
42
42
42
42
3C
ENDCHAR
STARTCHAR 03CC
ENCODING 972
SWIDTH 600 0
DWIDTH 10 0
BBX 8 10 1 1
BITMAP
18
20
00
3C
42
81
81
81
42
3C
ENDCHAR
STARTCHAR 03CD
ENCODING 973
SWIDTH 600 0
DWIDTH 10 0
BBX 8 10 1 1
BITMAP
08
10
00
C7
42
42
42
42
42
3C
ENDCHAR
STARTCHAR 03CE
ENCODING 974
SWIDTH 600 0
DWIDTH 10 0
BBX 8 11 1 0
BITMAP
08
08
10
00
24
42
81
89
89
89
76
ENDCHAR
STARTCHAR 0401
ENCODING 1025
SWIDTH 600 0
DWIDTH 10 0
BBX 9 12 0 0
BITMAP
1200
0000
0000
FF00
2100
2100
2400
3C00
2400
2080
2080
FF80
ENDCHAR
STARTCHAR 0402
ENCODING 1026
SWIDTH 600 0
DWIDTH 10 0
BBX 9 9 0 0
BITMAP
FE00
9200
9200
1700
1880
1080
1080
1080
3900
ENDCHAR
STARTCHAR 0403
ENCODING 1027
SWIDTH 600 0
DWIDTH 10 0
BBX 8 12 1 1
BITMAP
08
10
00
FF
21
21
21
20
20
20
20
F8
ENDCHAR
STARTCHAR 0404
ENCODING 1028
SWIDTH 600 0
DWIDTH 10 0
BBX 8 9 1 0
BITMAP
3D
43
81
80
F8
80
80
41
3E
ENDCHAR
STARTCHAR 0405
ENCODING 1029
SWIDTH 600 0
DWIDTH 10 0
BBX 7 9 1 0
BITMAP
7A
86
82
80
78
06
82
82
FC
ENDCHAR
STARTCHAR 0406
ENCODING 1030
SWIDTH 600 0
DWIDTH 10 0
BBX 6 9 2 0
BITMAP
FC
10
10
10
10
10
10
10
FC
ENDCHAR
STARTCHAR 0407
ENCODING 1031
SWIDTH 600 0
DWIDTH 10 0
BBX 6 12 2 0
BITMAP
48
00
00
FC
10
10
10
10
10
10
10
FC
ENDCHAR
STARTCHAR 0408
ENCODING 1032
SWIDTH 600 0
DWIDTH 10 0
BBX 8 9 1 0
BITMAP
3F
04
04
04
04
84
84
84
78
ENDCHAR
STARTCHAR 0409
ENCODING 1033
SWIDTH 600 0
DWIDTH 10 0
BBX 9 9 0 0
BITMAP
3F00
1400
1400
1700
1480
1480
1480
9480
EF00
ENDCHAR
STARTCHAR 040A
ENCODING 1034
SWIDTH 600 0
DWIDTH 10 0
BBX 10 9 0 0
BITMAP
FC00
4800
4800
4800
7F00
48C0
4840
4840
FF80
ENDCHAR
STARTCHAR 040B
ENCODING 1035
SWIDTH 600 0
DWIDTH 10 0
BBX 10 9 0 0
BITMAP
FE00
9200
9200
1700
1880
1080
1080
1080
39C0
ENDCHAR
STARTCHAR 040C
ENCODING 1036
SWIDTH 600 0
DWIDTH 10 0
BBX 9 12 1 0
BITMAP
0400
1800
0000
F300
4500
4400
4800
7800
4400
4400
4200
F180
ENDCHAR
STARTCHAR 040E
ENCODING 1038
SWIDTH 600 0
DWIDTH 10 0
BBX 9 12 0 1
BITMAP
2200
1C00
0000
E380
4100
2200
2400
1400
1800
0800
5000
6000
ENDCHAR
STARTCHAR 040F
ENCODING 1039
SWIDTH 600 0
DWIDTH 10 0
BBX 8 11 1 -3
BITMAP
E7
42
42
42
42
42
42
42
FF
08
08
ENDCHAR
STARTCHAR 0410
ENCODING 1040
SWIDTH 600 0
DWIDTH 10 0
BBX 9 9 0 0
BITMAP
3800
1400
1400
2400
2200
3E00
4200
4100
E380
ENDCHAR
STARTCHAR 0411
ENCODING 1041
SWIDTH 600 0
DWIDTH 10 0
BBX 9 9 0 0
BITMAP
FF00
2100
2100
2000
3E00
2100
2080
2100
FF00
ENDCHAR
STARTCHAR 0412
ENCODING 1042
SWIDTH 600 0
DWIDTH 10 0
BBX 8 9 1 0
BITMAP
FC
42
42
42
7C
42
41
42
FE
ENDCHAR
STARTCHAR 0413
ENCODING 1043
SWIDTH 600 0
DWIDTH 10 0
BBX 8 9 1 0
BITMAP
FF
21
21
21
20
20
20
20
F8
ENDCHAR
STARTCHAR 0414
ENCODING 1044
SWIDTH 600 0
DWIDTH 10 0
BBX 9 11 0 -3
BITMAP
7F80
1100
1100
1100
1100
1100
1100
2100
FF80
8080
8080
ENDCHAR
STARTCHAR 0415
ENCODING 1045
SWIDTH 600 0
DWIDTH 10 0
BBX 9 9 0 0
BITMAP
FF00
2100
2100
2400
3C00
2400
2080
2080
FF80
ENDCHAR
STARTCHAR 0416
ENCODING 1046
SWIDTH 600 0
DWIDTH 10 0
BBX 9 9 0 0
BITMAP
DD80
CA80
2A00
2A00
1C00
2A00
4A00
4900
DC80
ENDCHAR
STARTCHAR 0417
ENCODING 1047
SWIDTH 600 0
DWIDTH 10 0
BBX 8 9 1 0
BITMAP
5E
61
41
01
1E
03
01
C1
3E
ENDCHAR
STARTCHAR 0418
ENCODING 1048
SWIDTH 600 0
DWIDTH 10 0
BBX 9 9 0 0
BITMAP
F180
4300
4500
4500
4900
5100
5100
6100
C380
ENDCHAR
STARTCHAR 0419
ENCODING 1049
SWIDTH 600 0
DWIDTH 10 0
BBX 9 12 0 1
BITMAP
2000
1C00
0000
F180
4300
4500
4500
4900
5100
5100
6100
C380
ENDCHAR
STARTCHAR 041A
ENCODING 1050
SWIDTH 600 0
DWIDTH 10 0
BBX 9 9 1 0
BITMAP
F300
4500
4400
4800
7800
4800
4400
4200
F380
ENDCHAR
STARTCHAR 041B
ENCODING 1051
SWIDTH 600 0
DWIDTH 10 0
BBX 9 9 0 0
BITMAP
7F80
1100
1100
1100
1100
1100
1100
9100
E380
ENDCHAR
STARTCHAR 041C
ENCODING 1052
SWIDTH 600 0
DWIDTH 10 0
BBX 9 9 0 0
BITMAP
C180
6180
6280
5480
5480
4880
4080
4080
E380
ENDCHAR
STARTCHAR 041D
ENCODING 1053
SWIDTH 600 0
DWIDTH 10 0
BBX 8 9 1 0
BITMAP
E7
42
42
42
7E
42
42
42
E7
ENDCHAR
STARTCHAR 041E
ENCODING 1054
SWIDTH 600 0
DWIDTH 10 0
BBX 8 9 1 0
BITMAP
3C
42
82
81
81
81
81
42
3C
ENDCHAR
STARTCHAR 041F
ENCODING 1055
SWIDTH 600 0
DWIDTH 10 0
BBX 8 9 1 0
BITMAP
FF
42
42
42
42
42
42
42
E7
ENDCHAR
STARTCHAR 0420
ENCODING 1056
SWIDTH 600 0
DWIDTH 10 0
BBX 8 9 1 0
BITMAP
FE
41
41
43
7C
40
40
40
F8
ENDCHAR
STARTCHAR 0421
ENCODING 1057
SWIDTH 600 0
DWIDTH 10 0
BBX 8 9 1 0
BITMAP
3D
43
81
80
80
80
80
41
3E
ENDCHAR
STARTCHAR 0422
ENCODING 1058
SWIDTH 600 0
DWIDTH 10 0
BBX 8 9 1 0
BITMAP
FF
91
91
10
10
10
10
10
7C
ENDCHAR
STARTCHAR 0423
ENCODING 1059
SWIDTH 600 0
DWIDTH 10 0
BBX 9 9 0 0
BITMAP
E380
4100
2200
2200
1400
1800
0800
5000
6000
ENDCHAR
STARTCHAR 0424
ENCODING 1060
SWIDTH 600 0
DWIDTH 10 0
BBX 9 9 1 0
BITMAP
1C00
3E00
4900
8880
8880
8880
4900
3E00
1C00
ENDCHAR
STARTCHAR 0425
ENCODING 1061
SWIDTH 600 0
DWIDTH 10 0
BBX 8 9 1 0
BITMAP
E7
42
24
18
08
18
24
42
E7
ENDCHAR
STARTCHAR 0426
ENCODING 1062
SWIDTH 600 0
DWIDTH 10 0
BBX 9 11 1 -2
BITMAP
E700
4200
4200
4200
4200
4200
4200
4200
FF80
0080
0080
ENDCHAR
STARTCHAR 0427
ENCODING 1063
SWIDTH 600 0
DWIDTH 10 0
BBX 8 9 0 0
BITMAP
E7
42
42
42
46
3A
02
02
0F
ENDCHAR
STARTCHAR 0428
ENCODING 1064
SWIDTH 600 0
DWIDTH 10 0
BBX 10 9 0 0
BITMAP
ED80
4880
4880
4880
4880
4880
4880
4880
FFC0
ENDCHAR
STARTCHAR 0429
ENCODING 1065
SWIDTH 600 0
DWIDTH 10 0
BBX 10 11 0 -2
BITMAP
ED80
4880
4880
4880
4880
4880
4880
4880
FFC0
0040
0040
ENDCHAR
STARTCHAR 042A
ENCODING 1066
SWIDTH 600 0
DWIDTH 10 0
BBX 10 9 0 0
BITMAP
F800
9000
9000
9000
1F00
10C0
1040
1040
3F80
ENDCHAR
STARTCHAR 042B
ENCODING 1067
SWIDTH 600 0
DWIDTH 10 0
BBX 10 9 0 0
BITMAP
E1C0
4080
4080
4080
7880
4680
4280
4280
FDC0
ENDCHAR
STARTCHAR 042C
ENCODING 1068
SWIDTH 600 0
DWIDTH 10 0
BBX 8 9 1 0
BITMAP
E0
40
40
40
7C
43
41
41
FE
ENDCHAR
STARTCHAR 042D
ENCODING 1069
SWIDTH 600 0
DWIDTH 10 0
BBX 8 9 1 0
BITMAP
BC
C2
81
01
3F
01
01
82
7C
ENDCHAR
STARTCHAR 042E
ENCODING 1070
SWIDTH 600 0
DWIDTH 10 0
BBX 10 9 0 0
BITMAP
E700
5880
5040
7040
5040
5040
5040
4880
E700
ENDCHAR
STARTCHAR 042F
ENCODING 1071
SWIDTH 600 0
DWIDTH 10 0
BBX 9 9 0 0
BITMAP
3F80
4200
4200
4200
3E00
1200
2200
4200
8780
ENDCHAR
STARTCHAR 0430
ENCODING 1072
SWIDTH 600 0
DWIDTH 10 0
BBX 8 7 1 0
BITMAP
3C
02
3E
42
82
86
7B
ENDCHAR
STARTCHAR 0431
ENCODING 1073
SWIDTH 600 0
DWIDTH 10 0
BBX 8 9 1 0
BITMAP
3E
40
BC
C2
81
81
81
42
3C
ENDCHAR
STARTCHAR 0432
ENCODING 1074
SWIDTH 600 0
DWIDTH 10 0
BBX 8 7 1 0
BITMAP
FC
42
42
7C
42
41
FE
ENDCHAR
STARTCHAR 0433
ENCODING 1075
SWIDTH 600 0
DWIDTH 10 0
BBX 8 7 1 0
BITMAP
FF
21
21
21
20
20
F8
ENDCHAR
STARTCHAR 0434
ENCODING 1076
SWIDTH 600 0
DWIDTH 10 0
BBX 9 9 1 -2
BITMAP
7F80
2200
2200
2200
2200
4200
FF80
8080
8080
ENDCHAR
STARTCHAR 0435
ENCODING 1077
SWIDTH 600 0
DWIDTH 10 0
BBX 8 7 1 0
BITMAP
3C
42
81
FF
80
41
3E
ENDCHAR
STARTCHAR 0436
ENCODING 1078
SWIDTH 600 0
DWIDTH 10 0
BBX 9 7 0 0
BITMAP
DD80
AA80
2A00
1C00
2A00
4900
DD80
ENDCHAR
STARTCHAR 0437
ENCODING 1079
SWIDTH 600 0
DWIDTH 10 0
BBX 7 7 2 0
BITMAP
BC
C2
82
3C
02
02
FC
ENDCHAR
STARTCHAR 0438
ENCODING 1080
SWIDTH 600 0
DWIDTH 10 0
BBX 9 7 0 0
BITMAP
E180
4300
4500
4900
5100
6100
C380
ENDCHAR
STARTCHAR 0439
ENCODING 1081
SWIDTH 600 0
DWIDTH 10 0
BBX 9 10 0 0
BITMAP
2000
2200
1C00
E180
4300
4500
4900
5100
6100
C380
ENDCHAR
STARTCHAR 043A
ENCODING 1082
SWIDTH 600 0
DWIDTH 10 0
BBX 8 7 1 0
BITMAP
E7
49
48
70
48
44
E3
ENDCHAR
STARTCHAR 043B
ENCODING 1083
SWIDTH 600 0
DWIDTH 10 0
BBX 9 7 0 0
BITMAP
3F80
1100
1100
1100
1100
9100
E380
ENDCHAR
STARTCHAR 043C
ENCODING 1084
SWIDTH 600 0
DWIDTH 10 0
BBX 9 7 0 0
BITMAP
C180
6300
6500
5500
5500
4900
E380
ENDCHAR
STARTCHAR 043D
ENCODING 1085
SWIDTH 600 0
DWIDTH 10 0
BBX 8 7 1 0
BITMAP
E7
42
42
7E
42
42
E7
ENDCHAR
STARTCHAR 043E
ENCODING 1086
SWIDTH 600 0
DWIDTH 10 0
BBX 8 7 1 0
BITMAP
3C
42
81
81
81
42
3C
ENDCHAR
STARTCHAR 043F
ENCODING 1087
SWIDTH 600 0
DWIDTH 10 0
BBX 8 7 1 0
BITMAP
FF
42
42
42
42
42
E7
ENDCHAR
STARTCHAR 0440
ENCODING 1088
SWIDTH 600 0
DWIDTH 10 0
BBX 9 10 0 -3
BITMAP
DE00
6100
4080
4080
4080
6100
5E00
4000
4000
F000
ENDCHAR
STARTCHAR 0441
ENCODING 1089
SWIDTH 600 0
DWIDTH 10 0
BBX 7 7 1 0
BITMAP
3E
42
80
80
80
42
3C
ENDCHAR
STARTCHAR 0442
ENCODING 1090
SWIDTH 600 0
DWIDTH 10 0
BBX 7 7 1 0
BITMAP
FE
92
92
10
10
10
7C
ENDCHAR
STARTCHAR 0443
ENCODING 1091
SWIDTH 600 0
DWIDTH 10 0
BBX 9 9 0 -2
BITMAP
E380
4100
2200
2400
1400
0800
0800
5000
6000
ENDCHAR
STARTCHAR 0444
ENCODING 1092
SWIDTH 600 0
DWIDTH 10 0
BBX 8 11 1 -2
BITMAP
18
08
7E
49
89
89
89
89
7E
08
3E
ENDCHAR
STARTCHAR 0445
ENCODING 1093
SWIDTH 600 0
DWIDTH 10 0
BBX 8 7 1 0
BITMAP
E7
24
18
18
24
42
E7
ENDCHAR
STARTCHAR 0446
ENCODING 1094
SWIDTH 600 0
DWIDTH 10 0
BBX 9 9 1 -2
BITMAP
E700
4200
4200
4200
4200
4200
FF80
0080
0080
ENDCHAR
STARTCHAR 0447
ENCODING 1095
SWIDTH 600 0
DWIDTH 10 0
BBX 8 7 1 0
BITMAP
E7
42
42
46
3A
02
0F
ENDCHAR
STARTCHAR 0448
ENCODING 1096
SWIDTH 600 0
DWIDTH 10 0
BBX 9 7 0 0
BITMAP
CD80
4900
4900
4900
4900
4900
FF80
ENDCHAR
STARTCHAR 0449
ENCODING 1097
SWIDTH 600 0
DWIDTH 10 0
BBX 10 9 0 -2
BITMAP
CD80
4900
4900
4900
4900
4900
FFC0
0040
0040
ENDCHAR
STARTCHAR 044A
ENCODING 1098
SWIDTH 600 0
DWIDTH 10 0
BBX 9 7 0 0
BITMAP
F800
9000
9000
1F00
1080
1080
3F00
ENDCHAR
STARTCHAR 044B
ENCODING 1099
SWIDTH 600 0
DWIDTH 10 0
BBX 9 7 0 0
BITMAP
E380
4100
4100
7900
4500
4500
FB80
ENDCHAR
STARTCHAR 044C
ENCODING 1100
SWIDTH 600 0
DWIDTH 10 0
BBX 7 7 1 0
BITMAP
E0
40
40
7C
42
42
FC
ENDCHAR
STARTCHAR 044D
ENCODING 1101
SWIDTH 600 0
DWIDTH 10 0
BBX 7 7 1 0
BITMAP
F8
84
02
3E
02
84
78
ENDCHAR
STARTCHAR 044E
ENCODING 1102
SWIDTH 600 0
DWIDTH 10 0
BBX 9 7 0 0
BITMAP
EF00
5100
5080
7080
5080
5100
EE00
ENDCHAR
STARTCHAR 044F
ENCODING 1103
SWIDTH 600 0
DWIDTH 10 0
BBX 7 7 2 0
BITMAP
7E
84
84
7C
44
84
0E
ENDCHAR
STARTCHAR 0451
ENCODING 1105
SWIDTH 600 0
DWIDTH 10 0
BBX 8 9 1 0
BITMAP
24
00
3C
42
81
FF
80
43
3C
ENDCHAR
STARTCHAR 0452
ENCODING 1106
SWIDTH 600 0
DWIDTH 10 0
BBX 8 13 1 -3
BITMAP
C0
F8
40
5E
61
41
41
41
41
E1
01
01
3E
ENDCHAR
STARTCHAR 0453
ENCODING 1107
SWIDTH 600 0
DWIDTH 10 0
BBX 8 10 1 1
BITMAP
08
10
00
FF
21
21
21
20
20
F8
ENDCHAR
STARTCHAR 0454
ENCODING 1108
SWIDTH 600 0
DWIDTH 10 0
BBX 7 7 1 0
BITMAP
3E
42
80
F8
80
42
3C
ENDCHAR
STARTCHAR 0455
ENCODING 1109
SWIDTH 600 0
DWIDTH 10 0
BBX 7 7 2 0
BITMAP
7C
84
C0
3C
02
82
FC
ENDCHAR
STARTCHAR 0456
ENCODING 1110
SWIDTH 600 0
DWIDTH 10 0
BBX 7 10 2 0
BITMAP
10
10
00
70
10
10
10
10
10
FE
ENDCHAR
STARTCHAR 0457
ENCODING 1111
SWIDTH 600 0
DWIDTH 10 0
BBX 7 9 1 0
BITMAP
48
00
70
10
10
10
10
10
FE
ENDCHAR
STARTCHAR 0458
ENCODING 1112
SWIDTH 600 0
DWIDTH 10 0
BBX 5 13 2 -3
BITMAP
10
10
00
F8
08
08
08
08
08
08
08
08
F0
ENDCHAR
STARTCHAR 0459
ENCODING 1113
SWIDTH 600 0
DWIDTH 10 0
BBX 9 7 0 0
BITMAP
7E00
1400
1400
1700
1480
9480
EF00
ENDCHAR
STARTCHAR 045A
ENCODING 1114
SWIDTH 600 0
DWIDTH 10 0
BBX 10 7 0 0
BITMAP
EE00
4400
4400
7F80
4440
4440
EF80
ENDCHAR
STARTCHAR 045B
ENCODING 1115
SWIDTH 600 0
DWIDTH 10 0
BBX 9 10 0 0
BITMAP
C000
F800
4000
5E00
6100
4100
4100
4100
4100
E380
ENDCHAR
STARTCHAR 045C
ENCODING 1116
SWIDTH 600 0
DWIDTH 10 0
BBX 8 10 1 0
BITMAP
04
18
00
E3
45
48
70
4C
44
E3
ENDCHAR
STARTCHAR 045E
ENCODING 1118
SWIDTH 600 0
DWIDTH 10 0
BBX 9 12 0 -2
BITMAP
2200
1C00
0000
E380
4100
2200
2400
1400
1800
0800
5000
6000
ENDCHAR
STARTCHAR 045F
ENCODING 1119
SWIDTH 600 0
DWIDTH 10 0
BBX 8 9 1 -3
BITMAP
E7
42
42
42
42
42
FF
08
08
ENDCHAR
STARTCHAR 0490
ENCODING 1168
SWIDTH 600 0
DWIDTH 10 0
BBX 8 11 1 1
BITMAP
01
01
FF
20
20
20
20
20
20
20
F8
ENDCHAR
STARTCHAR 0491
ENCODING 1169
SWIDTH 600 0
DWIDTH 10 0
BBX 8 9 1 0
BITMAP
01
01
FF
20
20
20
20
20
F8
ENDCHAR
STARTCHAR 0492
ENCODING 1170
SWIDTH 600 0
DWIDTH 10 0
BBX 8 9 1 0
BITMAP
FF
21
21
21
F8
20
20
20
F8
ENDCHAR
STARTCHAR 0493
ENCODING 1171
SWIDTH 600 0
DWIDTH 10 0
BBX 8 7 1 0
BITMAP
FF
21
21
F9
20
20
F8
ENDCHAR
STARTCHAR 0496
ENCODING 1174
SWIDTH 600 0
DWIDTH 10 0
BBX 10 11 0 -3
BITMAP
DD80
CA80
2A00
2A00
1C00
2A00
4A00
4900
9CC0
0040
0040
ENDCHAR
STARTCHAR 0497
ENCODING 1175
SWIDTH 600 0
DWIDTH 10 0
BBX 10 9 0 -2
BITMAP
DD80
AA80
2A00
1C00
2A00
4900
DDC0
0040
0040
ENDCHAR
STARTCHAR 049A
ENCODING 1178
SWIDTH 600 0
DWIDTH 10 0
BBX 9 11 1 -3
BITMAP
F300
4500
4400
4800
7800
4800
4400
4200
F380
0080
0080
ENDCHAR
STARTCHAR 049B
ENCODING 1179
SWIDTH 600 0
DWIDTH 10 0
BBX 9 9 1 -2
BITMAP
E300
4D00
4800
7000
4800
4400
E380
0080
0080
ENDCHAR
STARTCHAR 049C
ENCODING 1180
SWIDTH 600 0
DWIDTH 10 0
BBX 9 9 1 0
BITMAP
F300
4500
5800
5800
7000
5800
5400
4400
F380
ENDCHAR
STARTCHAR 049D
ENCODING 1181
SWIDTH 600 0
DWIDTH 10 0
BBX 8 7 1 0
BITMAP
E3
55
58
70
5C
44
E3
ENDCHAR
STARTCHAR 04A2
ENCODING 1186
SWIDTH 600 0
DWIDTH 10 0
BBX 9 11 1 -3
BITMAP
E700
4200
4200
4200
7E00
4200
4200
4200
E780
0080
0080
ENDCHAR
STARTCHAR 04A3
ENCODING 1187
SWIDTH 600 0
DWIDTH 10 0
BBX 8 9 1 -2
BITMAP
E7
42
42
7E
42
42
E7
01
01
ENDCHAR
STARTCHAR 04AE
ENCODING 1198
SWIDTH 600 0
DWIDTH 10 0
BBX 8 9 1 0
BITMAP
E7
42
24
14
08
08
08
08
3C
ENDCHAR
STARTCHAR 04AF
ENCODING 1199
SWIDTH 600 0
DWIDTH 10 0
BBX 8 10 1 -3
BITMAP
E7
42
22
24
14
14
08
08
08
3E
ENDCHAR
STARTCHAR 04B0
ENCODING 1200
SWIDTH 600 0
DWIDTH 10 0
BBX 8 9 1 0
BITMAP
E7
42
24
14
08
7E
08
08
3C
ENDCHAR
STARTCHAR 04B1
ENCODING 1201
SWIDTH 600 0
DWIDTH 10 0
BBX 8 10 1 -3
BITMAP
E7
42
42
24
14
18
7E
08
08
3E
ENDCHAR
STARTCHAR 04B2
ENCODING 1202
SWIDTH 600 0
DWIDTH 10 0
BBX 9 11 1 -3
BITMAP
E700
4200
2400
1800
0800
1800
2400
4200
E780
0080
0080
ENDCHAR
STARTCHAR 04B3
ENCODING 1203
SWIDTH 600 0
DWIDTH 10 0
BBX 8 8 1 -2
BITMAP
E7
24
18
18
24
42
E7
01
ENDCHAR
STARTCHAR 04B8
ENCODING 1208
SWIDTH 600 0
DWIDTH 10 0
BBX 8 9 0 0
BITMAP
E7
42
4A
4A
4A
3E
0A
0A
0F
ENDCHAR
STARTCHAR 04B9
ENCODING 1209
SWIDTH 600 0
DWIDTH 10 0
BBX 8 7 1 0
BITMAP
E7
42
4A
4A
3E
0A
0F
ENDCHAR
STARTCHAR 04BA
ENCODING 1210
SWIDTH 600 0
DWIDTH 10 0
BBX 8 9 1 0
BITMAP
F0
40
40
5C
62
42
42
42
E7
ENDCHAR
STARTCHAR 04BB
ENCODING 1211
SWIDTH 600 0
DWIDTH 10 0
BBX 8 7 1 0
BITMAP
F0
40
5C
62
42
42
E7
ENDCHAR
STARTCHAR 04D8
ENCODING 1240
SWIDTH 600 0
DWIDTH 10 0
BBX 9 9 0 0
BITMAP
5E00
6100
4080
0080
FF80
8080
8080
4100
3E00
ENDCHAR
STARTCHAR 04D9
ENCODING 1241
SWIDTH 600 0
DWIDTH 10 0
BBX 8 7 1 0
BITMAP
FC
02
01
FF
81
42
3C
ENDCHAR
STARTCHAR 04E8
ENCODING 1256
SWIDTH 600 0
DWIDTH 10 0
BBX 8 9 1 0
BITMAP
3C
42
82
FF
81
81
82
42
3C
ENDCHAR
STARTCHAR 04E9
ENCODING 1257
SWIDTH 600 0
DWIDTH 10 0
BBX 7 7 1 0
BITMAP
38
44
82
FE
82
44
38
ENDCHAR
STARTCHAR 05B0
ENCODING 1456
SWIDTH 600 0
DWIDTH 10 0
BBX 1 3 4 -4
BITMAP
80
00
80
ENDCHAR
STARTCHAR 05B1
ENCODING 1457
SWIDTH 600 0
DWIDTH 10 0
BBX 5 3 2 -4
BITMAP
A8
00
48
ENDCHAR
STARTCHAR 05B2
ENCODING 1458
SWIDTH 600 0
DWIDTH 10 0
BBX 4 3 3 -4
BITMAP
F0
00
10
ENDCHAR
STARTCHAR 05B3
ENCODING 1459
SWIDTH 600 0
DWIDTH 10 0
BBX 5 3 3 -4
BITMAP
E8
40
08
ENDCHAR
STARTCHAR 05B4
ENCODING 1460
SWIDTH 600 0
DWIDTH 10 0
BBX 1 1 4 -2
BITMAP
80
ENDCHAR
STARTCHAR 05B5
ENCODING 1461
SWIDTH 600 0
DWIDTH 10 0
BBX 3 1 3 -2
BITMAP
A0
ENDCHAR
STARTCHAR 05B6
ENCODING 1462
SWIDTH 600 0
DWIDTH 10 0
BBX 3 3 3 -4
BITMAP
A0
00
40
ENDCHAR
STARTCHAR 05B7
ENCODING 1463
SWIDTH 600 0
DWIDTH 10 0
BBX 3 1 3 -2
BITMAP
E0
ENDCHAR
STARTCHAR 05B8
ENCODING 1464
SWIDTH 600 0
DWIDTH 10 0
BBX 3 2 3 -4
BITMAP
E0
40
ENDCHAR
STARTCHAR 05B9
ENCODING 1465
SWIDTH 600 0
DWIDTH 10 0
BBX 1 1 4 10
BITMAP
80
ENDCHAR
STARTCHAR 05BB
ENCODING 1467
SWIDTH 600 0
DWIDTH 10 0
BBX 5 3 3 -4
BITMAP
80
20
08
ENDCHAR
STARTCHAR 05BC
ENCODING 1468
SWIDTH 600 0
DWIDTH 10 0
BBX 1 1 4 4
BITMAP
80
ENDCHAR
STARTCHAR 05BD
ENCODING 1469
SWIDTH 600 0
DWIDTH 10 0
BBX 1 3 4 -4
BITMAP
80
80
80
ENDCHAR
STARTCHAR 05BE
ENCODING 1470
SWIDTH 600 0
DWIDTH 10 0
BBX 7 1 1 7
BITMAP
FE
ENDCHAR
STARTCHAR 05BF
ENCODING 1471
SWIDTH 600 0
DWIDTH 10 0
BBX 3 1 3 9
BITMAP
E0
ENDCHAR
STARTCHAR 05C0
ENCODING 1472
SWIDTH 600 0
DWIDTH 10 0
BBX 1 8 4 0
BITMAP
80
80
80
80
80
80
80
80
ENDCHAR
STARTCHAR 05C1
ENCODING 1473
SWIDTH 600 0
DWIDTH 10 0
BBX 1 1 7 9
BITMAP
80
ENDCHAR
STARTCHAR 05C2
ENCODING 1474
SWIDTH 600 0
DWIDTH 10 0
BBX 1 1 1 9
BITMAP
80
ENDCHAR
STARTCHAR 05C3
ENCODING 1475
SWIDTH 600 0
DWIDTH 10 0
BBX 2 8 4 1
BITMAP
C0
C0
00
00
00
00
C0
C0
ENDCHAR
STARTCHAR 05D0
ENCODING 1488
SWIDTH 600 0
DWIDTH 10 0
BBX 7 8 1 0
BITMAP
0E
42
22
54
98
88
84
C0
ENDCHAR
STARTCHAR 05D1
ENCODING 1489
SWIDTH 600 0
DWIDTH 10 0
BBX 7 8 1 0
BITMAP
F8
04
04
04
04
04
04
FE
ENDCHAR
STARTCHAR 05D2
ENCODING 1490
SWIDTH 600 0
DWIDTH 10 0
BBX 5 8 2 0
BITMAP
60
10
10
10
10
10
30
C8
ENDCHAR
STARTCHAR 05D3
ENCODING 1491
SWIDTH 600 0
DWIDTH 10 0
BBX 7 8 1 0
BITMAP
FE
04
04
04
04
04
04
04
ENDCHAR
STARTCHAR 05D4
ENCODING 1492
SWIDTH 600 0
DWIDTH 10 0
BBX 7 8 1 0
BITMAP
FC
02
02
82
82
82
82
82
ENDCHAR
STARTCHAR 05D5
ENCODING 1493
SWIDTH 600 0
DWIDTH 10 0
BBX 3 8 3 0
BITMAP
E0
20
20
20
20
20
20
20
ENDCHAR
STARTCHAR 05D6
ENCODING 1494
SWIDTH 600 0
DWIDTH 10 0
BBX 5 8 3 0
BITMAP
F8
20
20
20
20
20
20
20
ENDCHAR
STARTCHAR 05D7
ENCODING 1495
SWIDTH 600 0
DWIDTH 10 0
BBX 7 8 1 0
BITMAP
FE
44
44
44
44
44
44
44
ENDCHAR
STARTCHAR 05D8
ENCODING 1496
SWIDTH 600 0
DWIDTH 10 0
BBX 8 8 0 0
BITMAP
E2
25
25
21
21
21
21
1E
ENDCHAR
STARTCHAR 05D9
ENCODING 1497
SWIDTH 600 0
DWIDTH 10 0
BBX 3 4 3 4
BITMAP
E0
20
20
20
ENDCHAR
STARTCHAR 05DA
ENCODING 1498
SWIDTH 600 0
DWIDTH 10 0
BBX 7 10 1 -2
BITMAP
FE
04
04
04
04
04
04
04
04
06
ENDCHAR
STARTCHAR 05DB
ENCODING 1499
SWIDTH 600 0
DWIDTH 10 0
BBX 7 8 1 0
BITMAP
F8
04
02
02
02
02
04
F8
ENDCHAR
STARTCHAR 05DC
ENCODING 1500
SWIDTH 600 0
DWIDTH 10 0
BBX 6 10 1 0
BITMAP
80
80
FC
04
04
04
08
10
10
18
ENDCHAR
STARTCHAR 05DD
ENCODING 1501
SWIDTH 600 0
DWIDTH 10 0
BBX 7 8 1 0
BITMAP
FC
42
42
42
42
42
42
7E
ENDCHAR
STARTCHAR 05DE
ENCODING 1502
SWIDTH 600 0
DWIDTH 10 0
BBX 7 8 1 0
BITMAP
DC
62
42
42
42
42
42
4E
ENDCHAR
STARTCHAR 05DF
ENCODING 1503
SWIDTH 600 0
DWIDTH 10 0
BBX 4 10 3 -2
BITMAP
E0
20
20
20
20
20
20
20
20
30
ENDCHAR
STARTCHAR 05E0
ENCODING 1504
SWIDTH 600 0
DWIDTH 10 0
BBX 4 8 2 0
BITMAP
70
10
10
10
10
10
10
F0
ENDCHAR
STARTCHAR 05E1
ENCODING 1505
SWIDTH 600 0
DWIDTH 10 0
BBX 8 8 0 0
BITMAP
FE
21
21
21
21
21
21
1E
ENDCHAR
STARTCHAR 05E2
ENCODING 1506
SWIDTH 600 0
DWIDTH 10 0
BBX 6 8 2 0
BITMAP
CC
44
44
44
44
44
48
F0
ENDCHAR
STARTCHAR 05E3
ENCODING 1507
SWIDTH 600 0
DWIDTH 10 0
BBX 7 10 2 -2
BITMAP
F8
84
84
84
74
04
04
04
04
06
ENDCHAR
STARTCHAR 05E4
ENCODING 1508
SWIDTH 600 0
DWIDTH 10 0
BBX 6 8 2 0
BITMAP
F8
84
84
84
74
04
04
F8
ENDCHAR
STARTCHAR 05E5
ENCODING 1509
SWIDTH 600 0
DWIDTH 10 0
BBX 7 10 2 -2
BITMAP
EE
22
22
24
38
20
20
20
20
30
ENDCHAR
STARTCHAR 05E6
ENCODING 1510
SWIDTH 600 0
DWIDTH 10 0
BBX 6 8 2 0
BITMAP
DC
44
44
28
10
10
08
78
ENDCHAR
STARTCHAR 05E7
ENCODING 1511
SWIDTH 600 0
DWIDTH 10 0
BBX 7 11 1 -3
BITMAP
FE
02
02
42
44
48
48
4C
40
40
40
ENDCHAR
STARTCHAR 05E8
ENCODING 1512
SWIDTH 600 0
DWIDTH 10 0
BBX 7 8 1 0
BITMAP
FC
02
02
02
02
02
02
02
ENDCHAR
STARTCHAR 05E9
ENCODING 1513
SWIDTH 600 0
DWIDTH 10 0
BBX 7 8 1 0
BITMAP
D6
92
92
92
92
92
92
7C
ENDCHAR
STARTCHAR 05EA
ENCODING 1514
SWIDTH 600 0
DWIDTH 10 0
BBX 7 8 2 0
BITMAP
FC
42
42
42
42
42
42
C2
ENDCHAR
STARTCHAR 05F0
ENCODING 1520
SWIDTH 600 0
DWIDTH 10 0
BBX 7 8 1 0
BITMAP
EE
22
22
22
22
22
22
22
ENDCHAR
STARTCHAR 05F1
ENCODING 1521
SWIDTH 600 0
DWIDTH 10 0
BBX 7 8 1 0
BITMAP
EE
22
22
22
02
02
02
02
ENDCHAR
STARTCHAR 05F2
ENCODING 1522
SWIDTH 600 0
DWIDTH 10 0
BBX 7 4 1 4
BITMAP
EE
22
22
22
ENDCHAR
STARTCHAR 05F3
ENCODING 1523
SWIDTH 600 0
DWIDTH 10 0
BBX 3 4 4 4
BITMAP
20
40
C0
80
ENDCHAR
STARTCHAR 05F4
ENCODING 1524
SWIDTH 600 0
DWIDTH 10 0
BBX 6 4 2 4
BITMAP
24
48
58
90
ENDCHAR
STARTCHAR 060C
ENCODING 1548
SWIDTH 600 0
DWIDTH 10 0
BBX 2 4 4 0
BITMAP
40
80
C0
C0
ENDCHAR
STARTCHAR 061B
ENCODING 1563
SWIDTH 600 0
DWIDTH 10 0
BBX 2 8 4 0
BITMAP
40
80
C0
C0
00
00
C0
C0
ENDCHAR
STARTCHAR 061F
ENCODING 1567
SWIDTH 600 0
DWIDTH 10 0
BBX 6 9 2 0
BITMAP
78
84
80
80
60
10
10
30
30
ENDCHAR
STARTCHAR 0621
ENCODING 1569
SWIDTH 600 0
DWIDTH 10 0
BBX 4 4 4 0
BITMAP
40
80
F0
40
ENDCHAR
STARTCHAR 0622
ENCODING 1570
SWIDTH 600 0
DWIDTH 10 0
BBX 5 10 2 1
BITMAP
F8
00
20
20
20
20
20
20
20
20
ENDCHAR
STARTCHAR 0623
ENCODING 1571
SWIDTH 600 0
DWIDTH 10 0
BBX 2 12 3 0
BITMAP
40
80
40
00
40
40
40
40
40
40
40
40
ENDCHAR
STARTCHAR 0624
ENCODING 1572
SWIDTH 600 0
DWIDTH 10 0
BBX 6 12 2 -3
BITMAP
10
20
10
00
08
14
14
24
1C
04
08
F0
ENDCHAR
STARTCHAR 0625
ENCODING 1573
SWIDTH 600 0
DWIDTH 10 0
BBX 2 12 3 -3
BITMAP
40
40
40
40
40
40
40
00
00
40
80
40
ENDCHAR
STARTCHAR 0626
ENCODING 1574
SWIDTH 600 0
DWIDTH 10 0
BBX 8 9 1 -2
BITMAP
20
10
03
0C
08
87
81
82
7C
ENDCHAR
STARTCHAR 0627
ENCODING 1575
SWIDTH 600 0
DWIDTH 10 0
BBX 1 7 4 2
BITMAP
80
80
80
80
80
80
80
ENDCHAR
STARTCHAR 0628
ENCODING 1576
SWIDTH 600 0
DWIDTH 10 0
BBX 9 7 0 -2
BITMAP
0080
8080
8080
7F00
0000
0000
0C00
ENDCHAR
STARTCHAR 0629
ENCODING 1577
SWIDTH 600 0
DWIDTH 10 0
BBX 4 8 4 1
BITMAP
E0
00
00
60
70
90
90
E0
ENDCHAR
STARTCHAR 062A
ENCODING 1578
SWIDTH 600 0
DWIDTH 10 0
BBX 9 7 0 1
BITMAP
0400
0C00
0000
0080
8080
8080
7F00
ENDCHAR
STARTCHAR 062B
ENCODING 1579
SWIDTH 600 0
DWIDTH 10 0
BBX 9 8 0 1
BITMAP
0800
1400
1C00
0000
0080
8080
8080
7F00
ENDCHAR
STARTCHAR 062C
ENCODING 1580
SWIDTH 600 0
DWIDTH 10 0
BBX 7 9 2 -4
BITMAP
20
DC
60
40
90
90
80
42
3C
ENDCHAR
STARTCHAR 062D
ENCODING 1581
SWIDTH 600 0
DWIDTH 10 0
BBX 7 9 2 -4
BITMAP
20
DC
60
40
80
80
80
42
3C
ENDCHAR
STARTCHAR 062E
ENCODING 1582
SWIDTH 600 0
DWIDTH 10 0
BBX 7 12 2 -3
BITMAP
18
00
00
20
DC
60
40
80
80
80
42
3C
ENDCHAR
STARTCHAR 062F
ENCODING 1583
SWIDTH 600 0
DWIDTH 10 0
BBX 5 6 3 1
BITMAP
20
10
08
08
08
F0
ENDCHAR
STARTCHAR 0630
ENCODING 1584
SWIDTH 600 0
DWIDTH 10 0
BBX 5 9 3 1
BITMAP
40
00
00
20
10
08
08
08
F0
ENDCHAR
STARTCHAR 0631
ENCODING 1585
SWIDTH 600 0
DWIDTH 10 0
BBX 6 8 2 -2
BITMAP
08
0C
04
04
04
08
18
F0
ENDCHAR
STARTCHAR 0632
ENCODING 1586
SWIDTH 600 0
DWIDTH 10 0
BBX 6 11 2 -2
BITMAP
10
00
00
08
0C
04
04
04
08
18
F0
ENDCHAR
STARTCHAR 0633
ENCODING 1587
SWIDTH 600 0
DWIDTH 10 0
BBX 9 8 0 -2
BITMAP
0080
4080
8A80
8A80
8F00
8800
9000
7000
ENDCHAR
STARTCHAR 0634
ENCODING 1588
SWIDTH 600 0
DWIDTH 10 0
BBX 9 12 0 -2
BITMAP
0400
0400
0A00
0000
0080
4080
8A80
8A80
8F00
8800
9000
7000
ENDCHAR
STARTCHAR 0635
ENCODING 1589
SWIDTH 600 0
DWIDTH 10 0
BBX 10 8 0 -3
BITMAP
0180
4240
8A40
8C40
8F80
8800
8800
7000
ENDCHAR
STARTCHAR 0636
ENCODING 1590
SWIDTH 600 0
DWIDTH 10 0
BBX 10 11 0 -3
BITMAP
0100
0100
0000
0180
4240
8A40
8C40
8F80
8800
8800
7000
ENDCHAR
STARTCHAR 0637
ENCODING 1591
SWIDTH 600 0
DWIDTH 10 0
BBX 9 9 0 1
BITMAP
1000
1000
1000
1000
1300
1480
1880
1080
FF00
ENDCHAR
STARTCHAR 0638
ENCODING 1592
SWIDTH 600 0
DWIDTH 10 0
BBX 9 9 0 1
BITMAP
1000
1400
1400
1000
1300
1480
1880
1080
FF00
ENDCHAR
STARTCHAR 0639
ENCODING 1593
SWIDTH 600 0
DWIDTH 10 0
BBX 7 10 2 -4
BITMAP
70
C0
80
F0
20
C0
80
80
C2
7C
ENDCHAR
STARTCHAR 063A
ENCODING 1594
SWIDTH 600 0
DWIDTH 10 0
BBX 7 13 2 -3
BITMAP
20
00
00
70
C0
80
F0
20
C0
80
80
C2
7C
ENDCHAR
STARTCHAR 0640
ENCODING 1600
SWIDTH 600 0
DWIDTH 10 0
BBX 10 1 0 0
BITMAP
FFC0
ENDCHAR
STARTCHAR 0641
ENCODING 1601
SWIDTH 600 0
DWIDTH 10 0
BBX 10 9 0 0
BITMAP
0100
0100
0000
0180
02C0
0240
83C0
8040
7F80
ENDCHAR
STARTCHAR 0642
ENCODING 1602
SWIDTH 600 0
DWIDTH 10 0
BBX 8 11 1 -2
BITMAP
07
00
00
02
05
05
07
81
81
82
7C
ENDCHAR
STARTCHAR 0643
ENCODING 1603
SWIDTH 600 0
DWIDTH 10 0
BBX 8 9 1 1
BITMAP
01
01
11
11
09
11
81
81
7E
ENDCHAR
STARTCHAR 0644
ENCODING 1604
SWIDTH 600 0
DWIDTH 10 0
BBX 7 10 2 -1
BITMAP
06
04
04
04
02
02
02
82
82
7C
ENDCHAR
STARTCHAR 0645
ENCODING 1605
SWIDTH 600 0
DWIDTH 10 0
BBX 6 9 3 -5
BITMAP
70
88
84
7C
80
80
80
40
40
ENDCHAR
STARTCHAR 0646
ENCODING 1606
SWIDTH 600 0
DWIDTH 10 0
BBX 7 11 2 -2
BITMAP
10
00
00
00
44
82
82
82
82
C4
78
ENDCHAR
STARTCHAR 0647
ENCODING 1607
SWIDTH 600 0
DWIDTH 10 0
BBX 4 5 4 1
BITMAP
60
70
90
90
E0
ENDCHAR
STARTCHAR 0648
ENCODING 1608
SWIDTH 600 0
DWIDTH 10 0
BBX 6 8 1 -3
BITMAP
08
14
14
14
1C
04
08
F0
ENDCHAR
STARTCHAR 0649
ENCODING 1609
SWIDTH 600 0
DWIDTH 10 0
BBX 8 7 1 -3
BITMAP
03
0C
08
87
81
82
7C
ENDCHAR
STARTCHAR 064A
ENCODING 1610
SWIDTH 600 0
DWIDTH 10 0
BBX 8 9 1 -5
BITMAP
03
0C
08
87
81
82
7C
00
38
ENDCHAR
STARTCHAR 064B
ENCODING 1611
SWIDTH 600 0
DWIDTH 10 0
BBX 2 2 4 10
BITMAP
40
80
ENDCHAR
STARTCHAR 064C
ENCODING 1612
SWIDTH 600 0
DWIDTH 10 0
BBX 4 4 3 9
BITMAP
10
70
A0
40
ENDCHAR
STARTCHAR 064D
ENCODING 1613
SWIDTH 600 0
DWIDTH 10 0
BBX 2 2 4 -4
BITMAP
40
80
ENDCHAR
STARTCHAR 064E
ENCODING 1614
SWIDTH 600 0
DWIDTH 10 0
BBX 0 0 4 10
BITMAP
ENDCHAR
STARTCHAR 064F
ENCODING 1615
SWIDTH 600 0
DWIDTH 10 0
BBX 3 4 3 9
BITMAP
20
60
20
C0
ENDCHAR
STARTCHAR 0650
ENCODING 1616
SWIDTH 600 0
DWIDTH 10 0
BBX 0 0 4 -3
BITMAP
ENDCHAR
STARTCHAR 0651
ENCODING 1617
SWIDTH 600 0
DWIDTH 10 0
BBX 3 2 3 11
BITMAP
60
80
ENDCHAR
STARTCHAR 0652
ENCODING 1618
SWIDTH 600 0
DWIDTH 10 0
BBX 2 3 4 10
BITMAP
C0
C0
80
ENDCHAR
STARTCHAR 0660
ENCODING 1632
SWIDTH 600 0
DWIDTH 10 0
BBX 2 3 4 4
BITMAP
80
C0
40
ENDCHAR
STARTCHAR 0661
ENCODING 1633
SWIDTH 600 0
DWIDTH 10 0
BBX 3 8 3 2
BITMAP
80
40
40
20
20
20
20
20
ENDCHAR
STARTCHAR 0662
ENCODING 1634
SWIDTH 600 0
DWIDTH 10 0
BBX 4 7 3 1
BITMAP
90
60
40
20
20
20
20
ENDCHAR
STARTCHAR 0663
ENCODING 1635
SWIDTH 600 0
DWIDTH 10 0
BBX 6 8 2 1
BITMAP
94
EC
40
60
20
20
20
20
ENDCHAR
STARTCHAR 0664
ENCODING 1636
SWIDTH 600 0
DWIDTH 10 0
BBX 3 9 3 1
BITMAP
20
40
80
E0
20
40
80
C0
20
ENDCHAR
STARTCHAR 0665
ENCODING 1637
SWIDTH 600 0
DWIDTH 10 0
BBX 5 5 3 2
BITMAP
30
C8
88
88
70
ENDCHAR
STARTCHAR 0666
ENCODING 1638
SWIDTH 600 0
DWIDTH 10 0
BBX 5 9 2 0
BITMAP
80
F0
10
10
10
10
18
08
08
ENDCHAR
STARTCHAR 0667
ENCODING 1639
SWIDTH 600 0
DWIDTH 10 0
BBX 5 7 2 2
BITMAP
88
50
50
50
30
20
20
ENDCHAR
STARTCHAR 0668
ENCODING 1640
SWIDTH 600 0
DWIDTH 10 0
BBX 5 8 2 0
BITMAP
40
20
60
60
50
90
88
08
ENDCHAR
STARTCHAR 0669
ENCODING 1641
SWIDTH 600 0
DWIDTH 10 0
BBX 5 8 2 0
BITMAP
70
90
90
F0
10
10
10
08
ENDCHAR
STARTCHAR 066A
ENCODING 1642
SWIDTH 600 0
DWIDTH 10 0
BBX 7 12 1 -1
BITMAP
02
C4
C4
04
08
08
10
10
20
26
46
40
ENDCHAR
STARTCHAR 066B
ENCODING 1643
SWIDTH 600 0
DWIDTH 10 0
BBX 2 4 4 -1
BITMAP
C0
C0
40
80
ENDCHAR
STARTCHAR 066D
ENCODING 1645
SWIDTH 600 0
DWIDTH 10 0
BBX 5 6 2 0
BITMAP
20
20
A8
70
50
10
ENDCHAR
STARTCHAR 0670
ENCODING 1648
SWIDTH 600 0
DWIDTH 10 0
BBX 1 3 5 11
BITMAP
80
80
80
ENDCHAR
STARTCHAR 0671
ENCODING 1649
SWIDTH 600 0
DWIDTH 10 0
BBX 3 12 3 0
BITMAP
20
E0
00
00
40
40
40
40
40
40
40
40
ENDCHAR
STARTCHAR 0674
ENCODING 1652
SWIDTH 600 0
DWIDTH 10 0
BBX 2 3 3 9
BITMAP
40
80
40
ENDCHAR
STARTCHAR 067E
ENCODING 1662
SWIDTH 600 0
DWIDTH 10 0
BBX 9 8 0 -3
BITMAP
0080
8080
8080
7F00
0000
0C00
0800
0C00
ENDCHAR
STARTCHAR 0686
ENCODING 1670
SWIDTH 600 0
DWIDTH 10 0
BBX 7 9 2 -4
BITMAP
20
DC
60
40
98
88
80
42
3C
ENDCHAR
STARTCHAR 0698
ENCODING 1688
SWIDTH 600 0
DWIDTH 10 0
BBX 6 13 2 -3
BITMAP
10
10
3C
00
00
08
0C
04
04
04
08
18
F0
ENDCHAR
STARTCHAR 06A4
ENCODING 1700
SWIDTH 600 0
DWIDTH 10 0
BBX 10 10 0 1
BITMAP
0100
0280
0380
0000
0180
02C0
0240
83C0
8040
7F80
ENDCHAR
STARTCHAR 06A9
ENCODING 1705
SWIDTH 600 0
DWIDTH 10 0
BBX 9 9 0 1
BITMAP
0180
0200
0400
2400
1200
0100
8080
8080
7F80
ENDCHAR
STARTCHAR 06AF
ENCODING 1711
SWIDTH 600 0
DWIDTH 10 0
BBX 10 10 0 0
BITMAP
0040
0180
06C0
0300
0400
0600
0100
8080
8080
7F80
ENDCHAR
STARTCHAR 06CC
ENCODING 1740
SWIDTH 600 0
DWIDTH 10 0
BBX 8 7 1 -3
BITMAP
03
0C
08
87
81
82
7C
ENDCHAR
STARTCHAR 06D5
ENCODING 1749
SWIDTH 600 0
DWIDTH 10 0
BBX 4 5 4 1
BITMAP
60
70
90
90
E0
ENDCHAR
STARTCHAR 06E4
ENCODING 1764
SWIDTH 600 0
DWIDTH 10 0
BBX 5 1 2 11
BITMAP
F8
ENDCHAR
STARTCHAR 06F0
ENCODING 1776
SWIDTH 600 0
DWIDTH 10 0
BBX 2 3 4 4
BITMAP
80
C0
40
ENDCHAR
STARTCHAR 06F1
ENCODING 1777
SWIDTH 600 0
DWIDTH 10 0
BBX 3 8 3 2
BITMAP
80
40
40
20
20
20
20
20
ENDCHAR
STARTCHAR 06F2
ENCODING 1778
SWIDTH 600 0
DWIDTH 10 0
BBX 4 7 3 1
BITMAP
90
60
40
20
20
20
20
ENDCHAR
STARTCHAR 06F3
ENCODING 1779
SWIDTH 600 0
DWIDTH 10 0
BBX 6 8 2 1
BITMAP
94
EC
40
60
20
20
20
20
ENDCHAR
STARTCHAR 06F4
ENCODING 1780
SWIDTH 600 0
DWIDTH 10 0
BBX 6 9 2 0
BITMAP
18
A0
64
78
20
20
20
20
20
ENDCHAR
STARTCHAR 06F5
ENCODING 1781
SWIDTH 600 0
DWIDTH 10 0
BBX 6 9 2 0
BITMAP
20
30
10
68
48
84
84
84
F8
ENDCHAR
STARTCHAR 06F6
ENCODING 1782
SWIDTH 600 0
DWIDTH 10 0
BBX 5 8 2 0
BITMAP
30
C0
88
F0
20
40
40
40
ENDCHAR
STARTCHAR 06F7
ENCODING 1783
SWIDTH 600 0
DWIDTH 10 0
BBX 5 7 2 2
BITMAP
88
50
50
50
30
20
20
ENDCHAR
STARTCHAR 06F8
ENCODING 1784
SWIDTH 600 0
DWIDTH 10 0
BBX 5 8 2 0
BITMAP
40
20
60
60
50
90
88
08
ENDCHAR
STARTCHAR 06F9
ENCODING 1785
SWIDTH 600 0
DWIDTH 10 0
BBX 5 8 2 0
BITMAP
70
90
90
F0
10
10
10
08
ENDCHAR
STARTCHAR 1E80
ENCODING 7808
SWIDTH 600 0
DWIDTH 10 0
BBX 9 12 0 1
BITMAP
1800
0400
0000
E380
4100
4D00
5500
5500
5500
5300
6300
2300
ENDCHAR
STARTCHAR 1E81
ENCODING 7809
SWIDTH 600 0
DWIDTH 10 0
BBX 9 10 0 0
BITMAP
1000
0800
0000
E380
4100
4900
5900
5600
3600
2200
ENDCHAR
STARTCHAR 1E82
ENCODING 7810
SWIDTH 600 0
DWIDTH 10 0
BBX 9 12 0 1
BITMAP
0400
0800
0000
E380
8100
8900
8D00
5500
5500
6500
6600
6200
ENDCHAR
STARTCHAR 1E83
ENCODING 7811
SWIDTH 600 0
DWIDTH 10 0
BBX 9 10 0 0
BITMAP
0400
0800
0000
E380
4100
4900
4900
5600
3200
2200
ENDCHAR
STARTCHAR 1E84
ENCODING 7812
SWIDTH 600 0
DWIDTH 10 0
BBX 9 12 0 0
BITMAP
2200
0000
0000
E380
8100
8900
9500
9500
6500
6500
6300
6300
ENDCHAR
STARTCHAR 1E85
ENCODING 7813
SWIDTH 600 0
DWIDTH 10 0
BBX 9 9 0 0
BITMAP
2200
0000
E380
8100
4900
5900
5600
6600
2200
ENDCHAR
STARTCHAR 1EA0
ENCODING 7840
SWIDTH 600 0
DWIDTH 10 0
BBX 9 12 0 -3
BITMAP
3C00
1400
1400
2200
2200
3E00
4100
4100
E380
0000
0C00
0C00
ENDCHAR
STARTCHAR 1EA1
ENCODING 7841
SWIDTH 600 0
DWIDTH 10 0
BBX 8 9 1 -2
BITMAP
3C
02
3E
42
82
86
7B
30
30
ENDCHAR
STARTCHAR 1EA2
ENCODING 7842
SWIDTH 600 0
DWIDTH 10 0
BBX 9 12 0 0
BITMAP
1C00
0800
0000
3800
1400
1400
2400
2200
3E00
4200
4100
E380
ENDCHAR
STARTCHAR 1EA3
ENCODING 7843
SWIDTH 600 0
DWIDTH 10 0
BBX 8 10 1 0
BITMAP
38
10
00
3C
02
3E
C2
82
86
7B
ENDCHAR
STARTCHAR 1EA4
ENCODING 7844
SWIDTH 600 0
DWIDTH 10 0
BBX 9 12 0 1
BITMAP
0C00
0000
1C00
3800
1400
1400
1400
2200
3E00
2100
4100
E380
ENDCHAR
STARTCHAR 1EA5
ENCODING 7845
SWIDTH 600 0
DWIDTH 10 0
BBX 8 12 1 1
BITMAP
18
20
18
64
00
7C
02
3E
C2
82
86
7B
ENDCHAR
STARTCHAR 1EA6
ENCODING 7846
SWIDTH 600 0
DWIDTH 10 0
BBX 9 12 0 1
BITMAP
1800
0600
1C00
3800
1400
1400
1400
2200
3E00
2100
4100
E380
ENDCHAR
STARTCHAR 1EA7
ENCODING 7847
SWIDTH 600 0
DWIDTH 10 0
BBX 8 13 1 0
BITMAP
10
08
04
18
64
00
7C
02
3E
C2
82
86
7B
ENDCHAR
STARTCHAR 1EA8
ENCODING 7848
SWIDTH 600 0
DWIDTH 10 0
BBX 9 13 0 0
BITMAP
1C00
0800
0800
1600
3800
1400
1400
1200
2200
3E00
2100
4100
E380
ENDCHAR
STARTCHAR 1EA9
ENCODING 7849
SWIDTH 600 0
DWIDTH 10 0
BBX 8 13 1 0
BITMAP
38
08
10
10
6C
00
7C
02
3E
C2
82
86
7B
ENDCHAR
STARTCHAR 1EAA
ENCODING 7850
SWIDTH 600 0
DWIDTH 10 0
BBX 9 13 0 0
BITMAP
1000
2E00
0800
0600
3800
1400
1400
1400
2200
3E00
2200
4100
E380
ENDCHAR
STARTCHAR 1EAB
ENCODING 7851
SWIDTH 600 0
DWIDTH 10 0
BBX 8 13 1 0
BITMAP
30
4C
00
18
64
00
3C
02
3E
C2
82
86
7B
ENDCHAR
STARTCHAR 1EAC
ENCODING 7852
SWIDTH 600 0
DWIDTH 10 0
BBX 9 13 0 -2
BITMAP
1C00
3C00
1400
1400
1200
2200
3E00
2100
4100
E380
0000
0C00
0C00
ENDCHAR
STARTCHAR 1EAD
ENCODING 7853
SWIDTH 600 0
DWIDTH 10 0
BBX 8 12 1 -1
BITMAP
38
44
00
7C
02
3E
C2
82
86
7B
30
30
ENDCHAR
STARTCHAR 1EAE
ENCODING 7854
SWIDTH 600 0
DWIDTH 10 0
BBX 9 12 0 1
BITMAP
0C00
0200
0C00
3800
1400
1400
1200
2200
3E00
2100
4100
E380
ENDCHAR
STARTCHAR 1EAF
ENCODING 7855
SWIDTH 600 0
DWIDTH 10 0
BBX 8 13 1 0
BITMAP
04
08
10
42
3C
00
3C
02
3E
C2
82
86
7B
ENDCHAR
STARTCHAR 1EB0
ENCODING 7856
SWIDTH 600 0
DWIDTH 10 0
BBX 9 12 0 1
BITMAP
0C00
0200
0C00
3800
1400
1400
1400
2200
3E00
2100
4100
E380
ENDCHAR
STARTCHAR 1EB1
ENCODING 7857
SWIDTH 600 0
DWIDTH 10 0
BBX 8 13 1 1
BITMAP
20
10
08
42
3C
00
3C
02
3E
C2
82
86
7B
ENDCHAR
STARTCHAR 1EB2
ENCODING 7858
SWIDTH 600 0
DWIDTH 10 0
BBX 9 13 0 0
BITMAP
0C00
0800
0200
0C00
3800
1400
1400
2400
2200
3E00
2100
4100
E380
ENDCHAR
STARTCHAR 1EB3
ENCODING 7859
SWIDTH 600 0
DWIDTH 10 0
BBX 8 13 1 0
BITMAP
38
08
10
42
3C
00
3C
02
3E
C2
82
86
7B
ENDCHAR
STARTCHAR 1EB4
ENCODING 7860
SWIDTH 600 0
DWIDTH 10 0
BBX 9 13 0 0
BITMAP
1000
2E00
0200
0C00
3800
1400
1400
1400
2200
3E00
2200
4100
E380
ENDCHAR
STARTCHAR 1EB5
ENCODING 7861
SWIDTH 600 0
DWIDTH 10 0
BBX 8 13 1 0
BITMAP
30
4C
00
42
3C
00
3C
02
3E
C2
82
86
7B
ENDCHAR
STARTCHAR 1EB6
ENCODING 7862
SWIDTH 600 0
DWIDTH 10 0
BBX 9 14 0 -3
BITMAP
0200
0C00
3C00
1400
1400
1200
2200
3E00
2100
4100
E380
0000
0C00
0C00
ENDCHAR
STARTCHAR 1EB7
ENCODING 7863
SWIDTH 600 0
DWIDTH 10 0
BBX 8 12 1 -2
BITMAP
42
3C
00
3C
02
3E
C2
82
86
7B
30
30
ENDCHAR
STARTCHAR 1EB8
ENCODING 7864
SWIDTH 600 0
DWIDTH 10 0
BBX 9 12 0 -3
BITMAP
FF00
2100
2100
2400
3C00
2400
2080
2080
FF80
0000
0C00
0C00
ENDCHAR
STARTCHAR 1EB9
ENCODING 7865
SWIDTH 600 0
DWIDTH 10 0
BBX 8 9 1 -2
BITMAP
3C
42
81
FF
80
41
3E
18
18
ENDCHAR
STARTCHAR 1EBA
ENCODING 7866
SWIDTH 600 0
DWIDTH 10 0
BBX 9 12 0 0
BITMAP
1C00
0800
0000
FF00
2100
2100
2400
3C00
2400
2080
2080
FF80
ENDCHAR
STARTCHAR 1EBB
ENCODING 7867
SWIDTH 600 0
DWIDTH 10 0
BBX 8 10 1 0
BITMAP
38
10
00
3C
42
81
FF
80
41
3E
ENDCHAR
STARTCHAR 1EBC
ENCODING 7868
SWIDTH 600 0
DWIDTH 10 0
BBX 9 12 0 0
BITMAP
1800
2600
0000
FF00
2100
2100
2400
3C00
2400
2080
2080
FF80
ENDCHAR
STARTCHAR 1EBD
ENCODING 7869
SWIDTH 600 0
DWIDTH 10 0
BBX 8 9 1 0
BITMAP
7C
00
3C
42
81
FF
80
83
7C
ENDCHAR
STARTCHAR 1EBE
ENCODING 7870
SWIDTH 600 0
DWIDTH 10 0
BBX 9 12 0 1
BITMAP
0C00
1000
1C00
FF00
2100
2100
2400
3C00
2400
2080
2080
FF80
ENDCHAR
STARTCHAR 1EBF
ENCODING 7871
SWIDTH 600 0
DWIDTH 10 0
BBX 8 12 1 1
BITMAP
10
20
18
64
00
3C
C2
81
FF
80
83
7C
ENDCHAR
STARTCHAR 1EC0
ENCODING 7872
SWIDTH 600 0
DWIDTH 10 0
BBX 9 12 0 1
BITMAP
0C00
0200
1E00
FF00
2100
2100
2400
3C00
2400
2080
2080
FF80
ENDCHAR
STARTCHAR 1EC1
ENCODING 7873
SWIDTH 600 0
DWIDTH 10 0
BBX 8 12 1 1
BITMAP
08
04
18
64
00
3C
C2
81
FF
80
83
7C
ENDCHAR
STARTCHAR 1EC2
ENCODING 7874
SWIDTH 600 0
DWIDTH 10 0
BBX 9 13 0 0
BITMAP
0C00
0800
0800
1600
FF00
2100
2100
2400
3C00
2400
2080
2080
FF80
ENDCHAR
STARTCHAR 1EC3
ENCODING 7875
SWIDTH 600 0
DWIDTH 10 0
BBX 8 13 1 0
BITMAP
38
08
10
10
6C
00
3C
C2
81
FF
80
83
7C
ENDCHAR
STARTCHAR 1EC4
ENCODING 7876
SWIDTH 600 0
DWIDTH 10 0
BBX 9 13 0 0
BITMAP
1800
2600
0800
1600
FF00
2100
2100
2400
3C00
2400
2080
2080
FF80
ENDCHAR
STARTCHAR 1EC5
ENCODING 7877
SWIDTH 600 0
DWIDTH 10 0
BBX 8 13 1 0
BITMAP
20
5C
00
18
64
00
3C
42
81
FF
80
C3
3C
ENDCHAR
STARTCHAR 1EC6
ENCODING 7878
SWIDTH 600 0
DWIDTH 10 0
BBX 9 13 0 -2
BITMAP
1E00
FF00
2100
2100
2400
3C00
2400
2080
2080
FF80
0000
0C00
0C00
ENDCHAR
STARTCHAR 1EC7
ENCODING 7879
SWIDTH 600 0
DWIDTH 10 0
BBX 8 12 1 -1
BITMAP
18
64
00
3C
C2
81
FF
80
83
7C
18
18
ENDCHAR
STARTCHAR 1EC8
ENCODING 7880
SWIDTH 600 0
DWIDTH 10 0
BBX 6 12 2 0
BITMAP
38
10
00
FC
10
10
10
10
10
10
10
FC
ENDCHAR
STARTCHAR 1EC9
ENCODING 7881
SWIDTH 600 0
DWIDTH 10 0
BBX 7 10 1 0
BITMAP
38
10
00
70
10
10
10
10
10
FE
ENDCHAR
STARTCHAR 1ECA
ENCODING 7882
SWIDTH 600 0
DWIDTH 10 0
BBX 6 12 2 -3
BITMAP
FC
10
10
10
10
10
10
10
FC
00
30
30
ENDCHAR
STARTCHAR 1ECB
ENCODING 7883
SWIDTH 600 0
DWIDTH 10 0
BBX 7 13 2 -3
BITMAP
10
10
00
70
10
10
10
10
10
FE
00
30
30
ENDCHAR
STARTCHAR 1ECC
ENCODING 7884
SWIDTH 600 0
DWIDTH 10 0
BBX 8 11 1 -2
BITMAP
3C
42
82
81
81
81
81
42
3C
18
18
ENDCHAR
STARTCHAR 1ECD
ENCODING 7885
SWIDTH 600 0
DWIDTH 10 0
BBX 8 9 1 -2
BITMAP
3C
42
81
81
81
42
3C
18
18
ENDCHAR
STARTCHAR 1ECE
ENCODING 7886
SWIDTH 600 0
DWIDTH 10 0
BBX 8 13 1 0
BITMAP
18
04
08
00
3C
42
82
81
81
81
81
42
3C
ENDCHAR
STARTCHAR 1ECF
ENCODING 7887
SWIDTH 600 0
DWIDTH 10 0
BBX 8 10 1 0
BITMAP
38
10
00
3C
42
81
81
81
42
3C
ENDCHAR
STARTCHAR 1ED0
ENCODING 7888
SWIDTH 600 0
DWIDTH 10 0
BBX 8 12 1 1
BITMAP
1C
00
3C
3C
42
82
81
81
81
81
42
3C
ENDCHAR
STARTCHAR 1ED1
ENCODING 7889
SWIDTH 600 0
DWIDTH 10 0
BBX 8 12 1 1
BITMAP
18
20
18
64
00
3C
42
81
81
81
42
3C
ENDCHAR
STARTCHAR 1ED2
ENCODING 7890
SWIDTH 600 0
DWIDTH 10 0
BBX 8 12 1 1
BITMAP
18
00
3C
3C
42
82
81
81
81
81
42
3C
ENDCHAR
STARTCHAR 1ED3
ENCODING 7891
SWIDTH 600 0
DWIDTH 10 0
BBX 8 12 1 1
BITMAP
10
08
18
64
00
3C
42
81
81
81
42
3C
ENDCHAR
STARTCHAR 1ED4
ENCODING 7892
SWIDTH 600 0
DWIDTH 10 0
BBX 8 13 1 0
BITMAP
0C
08
08
34
3C
42
82
81
81
81
81
42
3C
ENDCHAR
STARTCHAR 1ED5
ENCODING 7893
SWIDTH 600 0
DWIDTH 10 0
BBX 8 13 1 0
BITMAP
38
08
10
10
6C
00
3C
42
81
81
81
42
3C
ENDCHAR
STARTCHAR 1ED6
ENCODING 7894
SWIDTH 600 0
DWIDTH 10 0
BBX 8 13 1 0
BITMAP
10
0C
18
24
3C
42
82
81
81
81
81
42
3C
ENDCHAR
STARTCHAR 1ED7
ENCODING 7895
SWIDTH 600 0
DWIDTH 10 0
BBX 8 13 1 0
BITMAP
30
4C
00
18
64
00
3C
42
81
81
81
42
3C
ENDCHAR
STARTCHAR 1ED8
ENCODING 7896
SWIDTH 600 0
DWIDTH 10 0
BBX 8 12 1 -1
BITMAP
3C
3C
42
82
81
81
81
81
42
3C
18
18
ENDCHAR
STARTCHAR 1ED9
ENCODING 7897
SWIDTH 600 0
DWIDTH 10 0
BBX 8 12 1 -1
BITMAP
18
64
00
3C
42
81
81
81
42
3C
18
18
ENDCHAR
STARTCHAR 1EDA
ENCODING 7898
SWIDTH 600 0
DWIDTH 10 0
BBX 9 12 1 1
BITMAP
0400
1800
0000
3C80
4300
8200
8100
8100
8100
8100
4200
3C00
ENDCHAR
STARTCHAR 1EDB
ENCODING 7899
SWIDTH 600 0
DWIDTH 10 0
BBX 9 10 1 1
BITMAP
1800
2000
0000
3C80
4300
8100
8100
8100
4200
3C00
ENDCHAR
STARTCHAR 1EDC
ENCODING 7900
SWIDTH 600 0
DWIDTH 10 0
BBX 9 12 1 1
BITMAP
1000
0800
0000
3C80
4300
8200
8100
8100
8100
8100
4200
3C00
ENDCHAR
STARTCHAR 1EDD
ENCODING 7901
SWIDTH 600 0
DWIDTH 10 0
BBX 9 10 1 1
BITMAP
1000
0800
0000
3C80
4300
8100
8100
8100
4200
3C00
ENDCHAR
STARTCHAR 1EDE
ENCODING 7902
SWIDTH 600 0
DWIDTH 10 0
BBX 9 13 1 0
BITMAP
1800
0400
0800
0000
3C80
4300
8200
8100
8100
8100
8100
4200
3C00
ENDCHAR
STARTCHAR 1EDF
ENCODING 7903
SWIDTH 600 0
DWIDTH 10 0
BBX 9 10 1 0
BITMAP
3800
1000
0000
3C80
4300
8100
8100
8100
4200
3C00
ENDCHAR
STARTCHAR 1EE0
ENCODING 7904
SWIDTH 600 0
DWIDTH 10 0
BBX 9 12 1 0
BITMAP
1000
2E00
0000
3C80
4300
8200
8100
8100
8100
8100
4200
3C00
ENDCHAR
STARTCHAR 1EE1
ENCODING 7905
SWIDTH 600 0
DWIDTH 10 0
BBX 9 9 1 0
BITMAP
7C00
0000
3C80
4300
8100
8100
8100
4200
3C00
ENDCHAR
STARTCHAR 1EE2
ENCODING 7906
SWIDTH 600 0
DWIDTH 10 0
BBX 9 11 1 -2
BITMAP
3C80
4300
8200
8100
8100
8100
8100
4200
3C00
1800
1800
ENDCHAR
STARTCHAR 1EE3
ENCODING 7907
SWIDTH 600 0
DWIDTH 10 0
BBX 9 9 1 -2
BITMAP
3C80
4300
8100
8100
8100
4200
3C00
1800
1800
ENDCHAR
STARTCHAR 1EE4
ENCODING 7908
SWIDTH 600 0
DWIDTH 10 0
BBX 8 11 1 -2
BITMAP
E7
41
41
41
41
41
41
22
1C
18
18
ENDCHAR
STARTCHAR 1EE5
ENCODING 7909
SWIDTH 600 0
DWIDTH 10 0
BBX 8 9 1 -2
BITMAP
C6
42
42
42
42
42
3F
18
18
ENDCHAR
STARTCHAR 1EE6
ENCODING 7910
SWIDTH 600 0
DWIDTH 10 0
BBX 8 13 1 0
BITMAP
18
04
08
00
E7
41
41
41
41
41
41
22
1C
ENDCHAR
STARTCHAR 1EE7
ENCODING 7911
SWIDTH 600 0
DWIDTH 10 0
BBX 8 10 1 0
BITMAP
38
10
00
CE
42
42
42
42
42
3F
ENDCHAR
STARTCHAR 1EE8
ENCODING 7912
SWIDTH 600 0
DWIDTH 10 0
BBX 9 12 1 1
BITMAP
0C00
0080
0080
E700
4100
4100
4100
4100
4100
4100
2200
1C00
ENDCHAR
STARTCHAR 1EE9
ENCODING 7913
SWIDTH 600 0
DWIDTH 10 0
BBX 9 10 1 1
BITMAP
1800
2000
0000
C680
4300
4200
4200
4200
4200
3F00
ENDCHAR
STARTCHAR 1EEA
ENCODING 7914
SWIDTH 600 0
DWIDTH 10 0
BBX 9 12 1 1
BITMAP
1800
0880
0080
E700
4100
4100
4100
4100
4100
4100
2200
1C00
ENDCHAR
STARTCHAR 1EEB
ENCODING 7915
SWIDTH 600 0
DWIDTH 10 0
BBX 9 11 1 0
BITMAP
2000
1000
0800
0000
C680
4300
4200
4200
4200
4200
3F00
ENDCHAR
STARTCHAR 1EEC
ENCODING 7916
SWIDTH 600 0
DWIDTH 10 0
BBX 9 13 1 0
BITMAP
1C00
0400
0880
0080
E700
4100
4100
4100
4100
4100
4100
2200
1C00
ENDCHAR
STARTCHAR 1EED
ENCODING 7917
SWIDTH 600 0
DWIDTH 10 0
BBX 9 10 1 0
BITMAP
3800
1000
0000
CE80
4300
4200
4200
4200
4200
3F00
ENDCHAR
STARTCHAR 1EEE
ENCODING 7918
SWIDTH 600 0
DWIDTH 10 0
BBX 9 12 1 0
BITMAP
3000
0E80
0080
E700
4100
4100
4100
4100
4100
4100
2200
1C00
ENDCHAR
STARTCHAR 1EEF
ENCODING 7919
SWIDTH 600 0
DWIDTH 10 0
BBX 9 9 1 0
BITMAP
7C00
0000
C680
4300
4200
4200
4200
4200
3F00
ENDCHAR
STARTCHAR 1EF0
ENCODING 7920
SWIDTH 600 0
DWIDTH 10 0
BBX 9 13 1 -2
BITMAP
0080
0080
E700
4100
4100
4100
4100
4100
4100
2200
1C00
1800
1800
ENDCHAR
STARTCHAR 1EF1
ENCODING 7921
SWIDTH 600 0
DWIDTH 10 0
BBX 9 9 1 -2
BITMAP
C680
4300
4200
4200
4200
4200
3F00
1800
1800
ENDCHAR
STARTCHAR 1EF2
ENCODING 7922
SWIDTH 600 0
DWIDTH 10 0
BBX 8 12 1 1
BITMAP
10
08
00
E7
22
24
14
08
08
08
08
3E
ENDCHAR
STARTCHAR 1EF3
ENCODING 7923
SWIDTH 600 0
DWIDTH 10 0
BBX 8 14 1 -3
BITMAP
20
10
08
00
E7
42
42
24
14
18
08
10
10
F8
ENDCHAR
STARTCHAR 1EF4
ENCODING 7924
SWIDTH 600 0
DWIDTH 10 0
BBX 8 12 1 -3
BITMAP
E7
22
24
14
08
08
08
08
3E
00
18
18
ENDCHAR
STARTCHAR 1EF5
ENCODING 7925
SWIDTH 600 0
DWIDTH 10 0
BBX 8 10 1 -3
BITMAP
E7
42
42
24
24
18
08
10
13
FB
ENDCHAR
STARTCHAR 1EF6
ENCODING 7926
SWIDTH 600 0
DWIDTH 10 0
BBX 8 12 1 0
BITMAP
1C
08
00
E3
22
24
14
08
08
08
08
3E
ENDCHAR
STARTCHAR 1EF7
ENCODING 7927
SWIDTH 600 0
DWIDTH 10 0
BBX 8 13 1 -3
BITMAP
18
08
00
E7
42
42
24
14
18
08
10
10
F8
ENDCHAR
STARTCHAR 1EF8
ENCODING 7928
SWIDTH 600 0
DWIDTH 10 0
BBX 8 12 1 0
BITMAP
10
0E
00
E7
22
24
14
08
08
08
08
3E
ENDCHAR
STARTCHAR 1EF9
ENCODING 7929
SWIDTH 600 0
DWIDTH 10 0
BBX 8 12 1 -3
BITMAP
3E
00
E7
42
22
24
24
18
08
10
10
F8
ENDCHAR
STARTCHAR 200C
ENCODING 8204
SWIDTH 600 0
DWIDTH 10 0
BBX 1 12 4 -2
BITMAP
80
80
80
80
80
80
80
80
80
80
80
80
ENDCHAR
STARTCHAR 200D
ENCODING 8205
SWIDTH 600 0
DWIDTH 10 0
BBX 3 13 3 -1
BITMAP
A0
40
E0
40
40
40
40
40
40
40
40
40
40
ENDCHAR
STARTCHAR 200E
ENCODING 8206
SWIDTH 600 0
DWIDTH 10 0
BBX 5 13 3 -1
BITMAP
10
F8
90
80
80
80
80
80
80
80
80
80
80
ENDCHAR
STARTCHAR 200F
ENCODING 8207
SWIDTH 600 0
DWIDTH 10 0
BBX 5 13 2 -1
BITMAP
40
F8
48
08
08
08
08
08
08
08
08
08
08
ENDCHAR
STARTCHAR 2013
ENCODING 8211
SWIDTH 600 0
DWIDTH 10 0
BBX 7 1 1 4
BITMAP
FE
ENDCHAR
STARTCHAR 2014
ENCODING 8212
SWIDTH 600 0
DWIDTH 10 0
BBX 10 1 0 4
BITMAP
FFC0
ENDCHAR
STARTCHAR 2015
ENCODING 8213
SWIDTH 600 0
DWIDTH 10 0
BBX 9 1 0 4
BITMAP
FF80
ENDCHAR
STARTCHAR 2017
ENCODING 8215
SWIDTH 600 0
DWIDTH 10 0
BBX 10 3 0 -5
BITMAP
FFC0
0000
FFC0
ENDCHAR
STARTCHAR 2018
ENCODING 8216
SWIDTH 600 0
DWIDTH 10 0
BBX 3 5 4 5
BITMAP
C0
C0
60
60
20
ENDCHAR
STARTCHAR 2019
ENCODING 8217
SWIDTH 600 0
DWIDTH 10 0
BBX 3 5 2 5
BITMAP
60
60
C0
C0
80
ENDCHAR
STARTCHAR 201A
ENCODING 8218
SWIDTH 600 0
DWIDTH 10 0
BBX 3 5 2 -3
BITMAP
60
60
C0
C0
80
ENDCHAR
STARTCHAR 201B
ENCODING 8219
SWIDTH 600 0
DWIDTH 10 0
BBX 3 5 4 5
BITMAP
C0
C0
60
60
20
ENDCHAR
STARTCHAR 201C
ENCODING 8220
SWIDTH 600 0
DWIDTH 10 0
BBX 6 4 2 6
BITMAP
D8
48
64
24
ENDCHAR
STARTCHAR 201D
ENCODING 8221
SWIDTH 600 0
DWIDTH 10 0
BBX 6 4 2 6
BITMAP
4C
48
98
90
ENDCHAR
STARTCHAR 201E
ENCODING 8222
SWIDTH 600 0
DWIDTH 10 0
BBX 6 4 2 -2
BITMAP
4C
48
98
90
ENDCHAR
STARTCHAR 2020
ENCODING 8224
SWIDTH 600 0
DWIDTH 10 0
BBX 6 11 2 -1
BITMAP
20
20
20
FC
20
20
20
20
20
20
20
ENDCHAR
STARTCHAR 2021
ENCODING 8225
SWIDTH 600 0
DWIDTH 10 0
BBX 6 11 2 -1
BITMAP
20
20
20
FC
20
20
20
FC
20
20
20
ENDCHAR
STARTCHAR 2022
ENCODING 8226
SWIDTH 600 0
DWIDTH 10 0
BBX 4 4 3 3
BITMAP
60
F0
F0
60
ENDCHAR
STARTCHAR 2026
ENCODING 8230
SWIDTH 600 0
DWIDTH 10 0
BBX 8 2 1 0
BITMAP
D9
DB
ENDCHAR
STARTCHAR 2030
ENCODING 8240
SWIDTH 600 0
DWIDTH 10 0
BBX 9 10 0 0
BITMAP
4000
A000
A000
4100
0E00
7000
3100
4A80
4A80
3100
ENDCHAR
STARTCHAR 2032
ENCODING 8242
SWIDTH 600 0
DWIDTH 10 0
BBX 2 5 4 5
BITMAP
C0
C0
C0
80
80
ENDCHAR
STARTCHAR 2033
ENCODING 8243
SWIDTH 600 0
DWIDTH 10 0
BBX 6 5 2 5
BITMAP
CC
CC
88
88
90
ENDCHAR
STARTCHAR 2039
ENCODING 8249
SWIDTH 600 0
DWIDTH 10 0
BBX 4 7 1 0
BITMAP
10
20
40
80
40
20
10
ENDCHAR
STARTCHAR 203A
ENCODING 8250
SWIDTH 600 0
DWIDTH 10 0
BBX 4 7 5 0
BITMAP
80
40
20
10
20
40
80
ENDCHAR
STARTCHAR 203C
ENCODING 8252
SWIDTH 600 0
DWIDTH 10 0
BBX 5 10 2 0
BITMAP
88
88
88
88
88
88
08
00
D8
D8
ENDCHAR
STARTCHAR 203E
ENCODING 8254
SWIDTH 600 0
DWIDTH 10 0
BBX 5 1 3 8
BITMAP
F8
ENDCHAR
STARTCHAR 2044
ENCODING 8260
SWIDTH 600 0
DWIDTH 10 0
BBX 8 5 1 2
BITMAP
01
06
18
20
C0
ENDCHAR
STARTCHAR 207F
ENCODING 8319
SWIDTH 600 0
DWIDTH 10 0
BBX 5 5 2 4
BITMAP
F0
88
88
88
D8
ENDCHAR
STARTCHAR 20A3
ENCODING 8355
SWIDTH 600 0
DWIDTH 10 0
BBX 8 9 1 0
BITMAP
FF
41
41
48
78
48
F0
40
F8
ENDCHAR
STARTCHAR 20A4
ENCODING 8356
SWIDTH 600 0
DWIDTH 10 0
BBX 7 9 1 0
BITMAP
38
40
40
F8
F8
20
40
42
FE
ENDCHAR
STARTCHAR 20A7
ENCODING 8359
SWIDTH 600 0
DWIDTH 10 0
BBX 10 9 0 -1
BITMAP
FC00
4200
4200
7C00
5000
7D80
5300
51C0
FFC0
ENDCHAR
STARTCHAR 20AA
ENCODING 8362
SWIDTH 600 0
DWIDTH 10 0
BBX 9 8 1 0
BITMAP
F880
8480
8480
9480
9480
9080
9080
9F80
ENDCHAR
STARTCHAR 20AB
ENCODING 8363
SWIDTH 600 0
DWIDTH 10 0
BBX 6 9 2 1
BITMAP
0C
1C
74
CC
84
84
44
38
FC
ENDCHAR
STARTCHAR 20AC
ENCODING 8364
SWIDTH 600 0
DWIDTH 10 0
BBX 9 9 0 0
BITMAP
1E80
2180
4080
FE00
FC00
4000
4000
2080
1F00
ENDCHAR
STARTCHAR 2105
ENCODING 8453
SWIDTH 600 0
DWIDTH 10 0
BBX 7 10 1 0
BITMAP
70
80
80
70
06
38
4C
32
22
1C
ENDCHAR
STARTCHAR 2113
ENCODING 8467
SWIDTH 600 0
DWIDTH 10 0
BBX 4 9 2 0
BITMAP
30
50
50
60
60
40
C0
40
60
ENDCHAR
STARTCHAR 2116
ENCODING 8470
SWIDTH 600 0
DWIDTH 10 0
BBX 9 9 0 0
BITMAP
CE00
6580
6580
6580
5580
5400
4D80
4C00
E400
ENDCHAR
STARTCHAR 2122
ENCODING 8482
SWIDTH 600 0
DWIDTH 10 0
BBX 10 5 0 4
BITMAP
FC80
AE80
2680
2580
76C0
ENDCHAR
STARTCHAR 2126
ENCODING 8486
SWIDTH 600 0
DWIDTH 10 0
BBX 9 9 0 0
BITMAP
3E00
4100
8080
8080
8080
8080
4100
B680
F780
ENDCHAR
STARTCHAR 212E
ENCODING 8494
SWIDTH 600 0
DWIDTH 10 0
BBX 8 9 1 0
BITMAP
3C
42
C3
C3
FF
C0
C0
42
3C
ENDCHAR
STARTCHAR 2153
ENCODING 8531
SWIDTH 600 0
DWIDTH 10 0
BBX 10 10 0 0
BITMAP
C000
4000
4080
4100
F780
0A40
3040
4180
0040
0380
ENDCHAR
STARTCHAR 2154
ENCODING 8532
SWIDTH 600 0
DWIDTH 10 0
BBX 10 10 0 0
BITMAP
E000
1000
2080
4300
F580
0A40
3040
4180
0040
0380
ENDCHAR
STARTCHAR 215B
ENCODING 8539
SWIDTH 600 0
DWIDTH 10 0
BBX 10 10 0 0
BITMAP
C000
4000
4080
4100
F780
0A40
3240
4180
0240
0180
ENDCHAR
STARTCHAR 215C
ENCODING 8540
SWIDTH 600 0
DWIDTH 10 0
BBX 9 10 0 0
BITMAP
E000
1000
6100
1200
EF00
1480
6480
8300
0480
0300
ENDCHAR
STARTCHAR 215D
ENCODING 8541
SWIDTH 600 0
DWIDTH 10 0
BBX 9 10 0 0
BITMAP
E000
E000
9100
1200
6F00
1480
2480
C300
0480
0300
ENDCHAR
STARTCHAR 215E
ENCODING 8542
SWIDTH 600 0
DWIDTH 10 0
BBX 10 10 0 0
BITMAP
F000
1000
2100
2600
2980
1240
6240
8180
0240
0180
ENDCHAR
STARTCHAR 2190
ENCODING 8592
SWIDTH 600 0
DWIDTH 10 0
BBX 10 3 0 1
BITMAP
4000
FFC0
4000
ENDCHAR
STARTCHAR 2191
ENCODING 8593
SWIDTH 600 0
DWIDTH 10 0
BBX 3 9 3 -2
BITMAP
40
E0
40
40
40
40
40
40
40
ENDCHAR
STARTCHAR 2192
ENCODING 8594
SWIDTH 600 0
DWIDTH 10 0
BBX 10 3 0 1
BITMAP
0080
FFC0
0080
ENDCHAR
STARTCHAR 2193
ENCODING 8595
SWIDTH 600 0
DWIDTH 10 0
BBX 3 9 3 -2
BITMAP
40
40
40
40
40
40
40
E0
40
ENDCHAR
STARTCHAR 2194
ENCODING 8596
SWIDTH 600 0
DWIDTH 10 0
BBX 10 3 0 1
BITMAP
4080
FFC0
4080
ENDCHAR
STARTCHAR 2195
ENCODING 8597
SWIDTH 600 0
DWIDTH 10 0
BBX 3 10 3 -2
BITMAP
40
E0
40
40
40
40
40
40
E0
40
ENDCHAR
STARTCHAR 21A8
ENCODING 8616
SWIDTH 600 0
DWIDTH 10 0
BBX 4 11 3 -3
BITMAP
40
60
40
40
40
40
40
40
60
40
F0
ENDCHAR
STARTCHAR 2202
ENCODING 8706
SWIDTH 600 0
DWIDTH 10 0
BBX 7 10 1 0
BITMAP
1C
22
02
02
1E
62
84
84
88
70
ENDCHAR
STARTCHAR 2206
ENCODING 8710
SWIDTH 600 0
DWIDTH 10 0
BBX 8 9 1 0
BITMAP
18
28
28
44
44
42
82
82
FF
ENDCHAR
STARTCHAR 220F
ENCODING 8719
SWIDTH 600 0
DWIDTH 10 0
BBX 9 13 0 -3
BITMAP
FF80
4100
4100
4100
4100
4100
4100
4100
4100
4100
4100
4100
E380
ENDCHAR
STARTCHAR 2211
ENCODING 8721
SWIDTH 600 0
DWIDTH 10 0
BBX 9 13 0 -3
BITMAP
FF80
4080
2080
2000
1000
0800
0800
0800
1000
2000
4080
4080
FF80
ENDCHAR
STARTCHAR 2212
ENCODING 8722
SWIDTH 600 0
DWIDTH 10 0
BBX 8 1 1 4
BITMAP
FF
ENDCHAR
STARTCHAR 2215
ENCODING 8725
SWIDTH 600 0
DWIDTH 10 0
BBX 8 5 1 2
BITMAP
01
06
18
20
C0
ENDCHAR
STARTCHAR 2219
ENCODING 8729
SWIDTH 600 0
DWIDTH 10 0
BBX 2 2 4 5
BITMAP
C0
C0
ENDCHAR
STARTCHAR 221A
ENCODING 8730
SWIDTH 600 0
DWIDTH 10 0
BBX 8 12 1 -1
BITMAP
01
01
01
01
22
E2
12
12
0A
0A
04
04
ENDCHAR
STARTCHAR 221E
ENCODING 8734
SWIDTH 600 0
DWIDTH 10 0
BBX 8 4 1 3
BITMAP
66
99
99
66
ENDCHAR
STARTCHAR 221F
ENCODING 8735
SWIDTH 600 0
DWIDTH 10 0
BBX 10 10 0 0
BITMAP
8000
8000
8000
8000
8000
8000
8000
8000
8000
FFC0
ENDCHAR
STARTCHAR 2229
ENCODING 8745
SWIDTH 600 0
DWIDTH 10 0
BBX 7 9 1 0
BITMAP
38
44
82
82
82
82
82
82
82
ENDCHAR
STARTCHAR 222B
ENCODING 8747
SWIDTH 600 0
DWIDTH 10 0
BBX 6 12 2 -3
BITMAP
0C
10
10
10
10
10
10
10
10
10
A0
60
ENDCHAR
STARTCHAR 2248
ENCODING 8776
SWIDTH 600 0
DWIDTH 10 0
BBX 7 5 1 2
BITMAP
62
92
0C
60
9C
ENDCHAR
STARTCHAR 2260
ENCODING 8800
SWIDTH 600 0
DWIDTH 10 0
BBX 8 10 1 0
BITMAP
02
04
04
FF
08
08
FF
10
20
20
ENDCHAR
STARTCHAR 2261
ENCODING 8801
SWIDTH 600 0
DWIDTH 10 0
BBX 8 6 1 1
BITMAP
FF
00
FF
00
00
FF
ENDCHAR
STARTCHAR 2264
ENCODING 8804
SWIDTH 600 0
DWIDTH 10 0
BBX 8 10 1 1
BITMAP
01
06
18
60
40
30
0C
03
00
FF
ENDCHAR
STARTCHAR 2265
ENCODING 8805
SWIDTH 600 0
DWIDTH 10 0
BBX 8 10 1 1
BITMAP
80
60
18
06
02
0C
30
C0
00
FF
ENDCHAR
STARTCHAR 2302
ENCODING 8962
SWIDTH 600 0
DWIDTH 10 0
BBX 8 9 1 1
BITMAP
18
24
42
42
81
81
81
81
FF
ENDCHAR
STARTCHAR 2310
ENCODING 8976
SWIDTH 600 0
DWIDTH 10 0
BBX 9 5 1 0
BITMAP
FF80
8000
8000
8000
8000
ENDCHAR
STARTCHAR 2320
ENCODING 8992
SWIDTH 600 0
DWIDTH 10 0
BBX 3 18 4 -5
BITMAP
60
A0
80
80
80
80
80
80
80
80
80
80
80
80
80
80
80
80
ENDCHAR
STARTCHAR 2321
ENCODING 8993
SWIDTH 600 0
DWIDTH 10 0
BBX 3 18 2 -4
BITMAP
20
20
20
20
20
20
20
20
20
20
20
20
20
20
20
20
A0
C0
ENDCHAR
STARTCHAR 2500
ENCODING 9472
SWIDTH 600 0
DWIDTH 10 0
BBX 10 1 0 4
BITMAP
FFC0
ENDCHAR
STARTCHAR 2502
ENCODING 9474
SWIDTH 600 0
DWIDTH 10 0
BBX 1 18 4 -5
BITMAP
80
80
80
80
80
80
80
80
80
80
80
80
80
80
80
80
80
80
ENDCHAR
STARTCHAR 250C
ENCODING 9484
SWIDTH 600 0
DWIDTH 10 0
BBX 5 9 4 -5
BITMAP
F8
80
80
80
80
80
80
80
80
ENDCHAR
STARTCHAR 2510
ENCODING 9488
SWIDTH 600 0
DWIDTH 10 0
BBX 5 9 0 -5
BITMAP
F8
08
08
08
08
08
08
08
08
ENDCHAR
STARTCHAR 2514
ENCODING 9492
SWIDTH 600 0
DWIDTH 10 0
BBX 5 10 4 3
BITMAP
80
80
80
80
80
80
80
80
80
F8
ENDCHAR
STARTCHAR 2518
ENCODING 9496
SWIDTH 600 0
DWIDTH 10 0
BBX 5 10 0 3
BITMAP
08
08
08
08
08
08
08
08
08
F8
ENDCHAR
STARTCHAR 251C
ENCODING 9500
SWIDTH 600 0
DWIDTH 10 0
BBX 5 18 4 -5
BITMAP
80
80
80
80
80
80
80
80
80
F8
80
80
80
80
80
80
80
80
ENDCHAR
STARTCHAR 2524
ENCODING 9508
SWIDTH 600 0
DWIDTH 10 0
BBX 5 18 0 -5
BITMAP
08
08
08
08
08
08
08
08
08
F8
08
08
08
08
08
08
08
08
ENDCHAR
STARTCHAR 252C
ENCODING 9516
SWIDTH 600 0
DWIDTH 10 0
BBX 10 9 0 -5
BITMAP
FFC0
0800
0800
0800
0800
0800
0800
0800
0800
ENDCHAR
STARTCHAR 2534
ENCODING 9524
SWIDTH 600 0
DWIDTH 10 0
BBX 10 10 0 3
BITMAP
0800
0800
0800
0800
0800
0800
0800
0800
0800
FFC0
ENDCHAR
STARTCHAR 253C
ENCODING 9532
SWIDTH 600 0
DWIDTH 10 0
BBX 10 18 0 -5
BITMAP
0800
0800
0800
0800
0800
0800
0800
0800
0800
FFC0
0800
0800
0800
0800
0800
0800
0800
0800
ENDCHAR
STARTCHAR 2550
ENCODING 9552
SWIDTH 600 0
DWIDTH 10 0
BBX 10 4 0 2
BITMAP
FFC0
0000
0000
FFC0
ENDCHAR
STARTCHAR 2551
ENCODING 9553
SWIDTH 600 0
DWIDTH 10 0
BBX 4 18 3 -5
BITMAP
90
90
90
90
90
90
90
90
90
90
90
90
90
90
90
90
90
90
ENDCHAR
STARTCHAR 2552
ENCODING 9554
SWIDTH 600 0
DWIDTH 10 0
BBX 5 10 4 -5
BITMAP
F8
80
80
F8
80
80
80
80
80
80
ENDCHAR
STARTCHAR 2553
ENCODING 9555
SWIDTH 600 0
DWIDTH 10 0
BBX 7 9 3 -5
BITMAP
FE
A0
A0
A0
A0
A0
A0
A0
A0
ENDCHAR
STARTCHAR 2554
ENCODING 9556
SWIDTH 600 0
DWIDTH 10 0
BBX 7 11 3 -5
BITMAP
FE
80
80
9E
90
90
90
90
90
90
90
ENDCHAR
STARTCHAR 2555
ENCODING 9557
SWIDTH 600 0
DWIDTH 10 0
BBX 5 10 0 -5
BITMAP
F8
08
08
F8
08
08
08
08
08
08
ENDCHAR
STARTCHAR 2556
ENCODING 9558
SWIDTH 600 0
DWIDTH 10 0
BBX 6 9 1 -5
BITMAP
FC
24
24
24
24
24
24
24
24
ENDCHAR
STARTCHAR 2557
ENCODING 9559
SWIDTH 600 0
DWIDTH 10 0
BBX 7 11 0 -5
BITMAP
FE
02
02
F2
12
12
12
12
12
12
12
ENDCHAR
STARTCHAR 2558
ENCODING 9560
SWIDTH 600 0
DWIDTH 10 0
BBX 5 11 4 1
BITMAP
80
80
80
80
80
80
80
80
F8
80
F8
ENDCHAR
STARTCHAR 2559
ENCODING 9561
SWIDTH 600 0
DWIDTH 10 0
BBX 7 10 3 3
BITMAP
A0
A0
A0
A0
A0
A0
A0
A0
A0
FE
ENDCHAR
STARTCHAR 255A
ENCODING 9562
SWIDTH 600 0
DWIDTH 10 0
BBX 7 11 3 2
BITMAP
90
90
90
90
90
90
90
9E
80
80
FE
ENDCHAR
STARTCHAR 255B
ENCODING 9563
SWIDTH 600 0
DWIDTH 10 0
BBX 5 11 0 1
BITMAP
08
08
08
08
08
08
08
08
F8
08
F8
ENDCHAR
STARTCHAR 255C
ENCODING 9564
SWIDTH 600 0
DWIDTH 10 0
BBX 6 10 1 3
BITMAP
24
24
24
24
24
24
24
24
24
FC
ENDCHAR
STARTCHAR 255D
ENCODING 9565
SWIDTH 600 0
DWIDTH 10 0
BBX 7 11 0 2
BITMAP
12
12
12
12
12
12
12
F2
02
02
FE
ENDCHAR
STARTCHAR 255E
ENCODING 9566
SWIDTH 600 0
DWIDTH 10 0
BBX 5 18 4 -5
BITMAP
80
80
80
80
80
80
80
F8
80
80
F8
80
80
80
80
80
80
80
ENDCHAR
STARTCHAR 255F
ENCODING 9567
SWIDTH 600 0
DWIDTH 10 0
BBX 7 18 3 -5
BITMAP
90
90
90
90
90
90
90
90
90
9E
90
90
90
90
90
90
90
90
ENDCHAR
STARTCHAR 2560
ENCODING 9568
SWIDTH 600 0
DWIDTH 10 0
BBX 7 18 3 -5
BITMAP
90
90
90
90
90
90
90
9E
80
80
9E
90
90
90
90
90
90
90
ENDCHAR
STARTCHAR 2561
ENCODING 9569
SWIDTH 600 0
DWIDTH 10 0
BBX 5 18 0 -5
BITMAP
08
08
08
08
08
08
08
F8
08
08
F8
08
08
08
08
08
08
08
ENDCHAR
STARTCHAR 2562
ENCODING 9570
SWIDTH 600 0
DWIDTH 10 0
BBX 7 18 0 -5
BITMAP
12
12
12
12
12
12
12
12
12
F2
12
12
12
12
12
12
12
12
ENDCHAR
STARTCHAR 2563
ENCODING 9571
SWIDTH 600 0
DWIDTH 10 0
BBX 7 18 0 -5
BITMAP
12
12
12
12
12
12
12
F2
02
02
F2
12
12
12
12
12
12
12
ENDCHAR
STARTCHAR 2564
ENCODING 9572
SWIDTH 600 0
DWIDTH 10 0
BBX 10 11 0 -5
BITMAP
FFC0
0000
0000
FFC0
0800
0800
0800
0800
0800
0800
0800
ENDCHAR
STARTCHAR 2565
ENCODING 9573
SWIDTH 600 0
DWIDTH 10 0
BBX 10 9 0 -5
BITMAP
FFC0
1200
1200
1200
1200
1200
1200
1200
1200
ENDCHAR
STARTCHAR 2566
ENCODING 9574
SWIDTH 600 0
DWIDTH 10 0
BBX 10 11 0 -5
BITMAP
FFC0
0000
0000
F3C0
1200
1200
1200
1200
1200
1200
1200
ENDCHAR
STARTCHAR 2567
ENCODING 9575
SWIDTH 600 0
DWIDTH 10 0
BBX 10 11 0 3
BITMAP
0800
0800
0800
0800
0800
0800
0800
FFC0
0000
0000
FFC0
ENDCHAR
STARTCHAR 2568
ENCODING 9576
SWIDTH 600 0
DWIDTH 10 0
BBX 10 10 0 3
BITMAP
1200
1200
1200
1200
1200
1200
1200
1200
1200
FFC0
ENDCHAR
STARTCHAR 2569
ENCODING 9577
SWIDTH 600 0
DWIDTH 10 0
BBX 10 11 0 3
BITMAP
1200
1200
1200
1200
1200
1200
1200
F3C0
0000
0000
FFC0
ENDCHAR
STARTCHAR 256A
ENCODING 9578
SWIDTH 600 0
DWIDTH 10 0
BBX 10 18 0 -5
BITMAP
0800
0800
0800
0800
0800
0800
0800
FFC0
0800
0800
FFC0
0800
0800
0800
0800
0800
0800
0800
ENDCHAR
STARTCHAR 256B
ENCODING 9579
SWIDTH 600 0
DWIDTH 10 0
BBX 10 18 0 -5
BITMAP
1200
1200
1200
1200
1200
1200
1200
1200
1200
FFC0
1200
1200
1200
1200
1200
1200
1200
1200
ENDCHAR
STARTCHAR 256C
ENCODING 9580
SWIDTH 600 0
DWIDTH 10 0
BBX 10 18 0 -4
BITMAP
1200
1200
1200
1200
1200
1200
1200
F3C0
0000
0000
F3C0
1200
1200
1200
1200
1200
1200
1200
ENDCHAR
STARTCHAR 2580
ENCODING 9600
SWIDTH 600 0
DWIDTH 10 0
BBX 10 9 0 4
BITMAP
FFC0
FFC0
FFC0
FFC0
FFC0
FFC0
FFC0
FFC0
FFC0
ENDCHAR
STARTCHAR 2584
ENCODING 9604
SWIDTH 600 0
DWIDTH 10 0
BBX 10 9 0 -5
BITMAP
FFC0
FFC0
FFC0
FFC0
FFC0
FFC0
FFC0
FFC0
FFC0
ENDCHAR
STARTCHAR 2588
ENCODING 9608
SWIDTH 600 0
DWIDTH 10 0
BBX 10 18 0 -5
BITMAP
FFC0
FFC0
FFC0
FFC0
FFC0
FFC0
FFC0
FFC0
FFC0
FFC0
FFC0
FFC0
FFC0
FFC0
FFC0
FFC0
FFC0
FFC0
ENDCHAR
STARTCHAR 258C
ENCODING 9612
SWIDTH 600 0
DWIDTH 10 0
BBX 5 18 0 -5
BITMAP
F8
F8
F8
F8
F8
F8
F8
F8
F8
F8
F8
F8
F8
F8
F8
F8
F8
F8
ENDCHAR
STARTCHAR 2590
ENCODING 9616
SWIDTH 600 0
DWIDTH 10 0
BBX 5 18 5 -5
BITMAP
F8
F8
F8
F8
F8
F8
F8
F8
F8
F8
F8
F8
F8
F8
F8
F8
F8
F8
ENDCHAR
STARTCHAR 2591
ENCODING 9617
SWIDTH 600 0
DWIDTH 10 0
BBX 9 20 1 -5
BITMAP
8880
2200
8880
2200
8880
2200
8880
2200
8880
2200
8880
2200
8880
2200
8880
2200
8880
2200
8880
2200
ENDCHAR
STARTCHAR 2592
ENCODING 9618
SWIDTH 600 0
DWIDTH 10 0
BBX 10 20 0 -5
BITMAP
5540
AA80
5540
AA80
5540
AA80
5540
AA80
5540
AA80
5540
AA80
5540
AA80
5540
AA80
5540
AA80
5540
AA80
ENDCHAR
STARTCHAR 2593
ENCODING 9619
SWIDTH 600 0
DWIDTH 10 0
BBX 10 20 0 -5
BITMAP
5540
FFC0
5540
FFC0
5540
FFC0
5540
FFC0
5540
FFC0
5540
FFC0
5540
FFC0
5540
FFC0
5540
FFC0
5540
FFC0
ENDCHAR
STARTCHAR 25A0
ENCODING 9632
SWIDTH 600 0
DWIDTH 10 0
BBX 10 10 0 0
BITMAP
FFC0
FFC0
FFC0
FFC0
FFC0
FFC0
FFC0
FFC0
FFC0
FFC0
ENDCHAR
STARTCHAR 25A1
ENCODING 9633
SWIDTH 600 0
DWIDTH 10 0
BBX 10 10 0 0
BITMAP
FFC0
8040
8040
8040
8040
8040
8040
8040
8040
FFC0
ENDCHAR
STARTCHAR 25AA
ENCODING 9642
SWIDTH 600 0
DWIDTH 10 0
BBX 4 4 3 3
BITMAP
F0
F0
F0
F0
ENDCHAR
STARTCHAR 25AB
ENCODING 9643
SWIDTH 600 0
DWIDTH 10 0
BBX 4 4 3 3
BITMAP
F0
90
90
F0
ENDCHAR
STARTCHAR 25AC
ENCODING 9644
SWIDTH 600 0
DWIDTH 10 0
BBX 10 2 0 3
BITMAP
FFC0
FFC0
ENDCHAR
STARTCHAR 25B2
ENCODING 9650
SWIDTH 600 0
DWIDTH 10 0
BBX 9 9 0 1
BITMAP
0800
0C00
1C00
1E00
3E00
3F00
7F00
7F80
FF80
ENDCHAR
STARTCHAR 25BA
ENCODING 9658
SWIDTH 600 0
DWIDTH 10 0
BBX 10 9 0 0
BITMAP
C000
F000
FC00
FF00
FFC0
FF00
FC00
F000
8000
ENDCHAR
STARTCHAR 25BC
ENCODING 9660
SWIDTH 600 0
DWIDTH 10 0
BBX 9 9 0 -1
BITMAP
FF80
7F80
7F00
3F00
3E00
1E00
1C00
0C00
0800
ENDCHAR
STARTCHAR 25C4
ENCODING 9668
SWIDTH 600 0
DWIDTH 10 0
BBX 10 9 0 0
BITMAP
00C0
03C0
0FC0
3FC0
FFC0
3FC0
0FC0
01C0
0040
ENDCHAR
STARTCHAR 25CA
ENCODING 9674
SWIDTH 600 0
DWIDTH 10 0
BBX 8 11 1 0
BITMAP
18
28
24
44
42
81
42
44
24
28
18
ENDCHAR
STARTCHAR 25CB
ENCODING 9675
SWIDTH 600 0
DWIDTH 10 0
BBX 7 7 1 1
BITMAP
38
44
82
82
82
44
38
ENDCHAR
STARTCHAR 25CF
ENCODING 9679
SWIDTH 600 0
DWIDTH 10 0
BBX 7 7 1 1
BITMAP
38
7C
FE
FE
FE
7C
38
ENDCHAR
STARTCHAR 25D8
ENCODING 9688
SWIDTH 600 0
DWIDTH 10 0
BBX 8 8 1 0
BITMAP
FF
FF
E7
C3
C3
E7
FF
FF
ENDCHAR
STARTCHAR 25D9
ENCODING 9689
SWIDTH 600 0
DWIDTH 10 0
BBX 9 9 0 0
BITMAP
FF80
C180
9E80
BF80
BF80
BF80
BF80
DF80
FF80
ENDCHAR
STARTCHAR 25E6
ENCODING 9702
SWIDTH 600 0
DWIDTH 10 0
BBX 4 4 3 3
BITMAP
60
90
90
60
ENDCHAR
STARTCHAR 263A
ENCODING 9786
SWIDTH 600 0
DWIDTH 10 0
BBX 10 9 0 0
BITMAP
1E00
6180
4080
9240
8040
9240
8C80
6180
1E00
ENDCHAR
STARTCHAR 263B
ENCODING 9787
SWIDTH 600 0
DWIDTH 10 0
BBX 8 9 0 0
BITMAP
3C
7E
FF
DF
FF
FF
FF
7E
3C
ENDCHAR
STARTCHAR 263C
ENCODING 9788
SWIDTH 600 0
DWIDTH 10 0
BBX 9 10 0 -2
BITMAP
0800
4800
5D00
2200
4100
C180
4100
2200
5D00
0800
ENDCHAR
STARTCHAR 2640
ENCODING 9792
SWIDTH 600 0
DWIDTH 10 0
BBX 5 9 2 0
BITMAP
70
88
88
88
70
20
F8
20
20
ENDCHAR
STARTCHAR 2642
ENCODING 9794
SWIDTH 600 0
DWIDTH 10 0
BBX 7 7 1 2
BITMAP
06
06
78
88
88
88
70
ENDCHAR
STARTCHAR 2660
ENCODING 9824
SWIDTH 600 0
DWIDTH 10 0
BBX 7 9 1 1
BITMAP
10
10
38
FC
FE
FE
FE
10
FE
ENDCHAR
STARTCHAR 2663
ENCODING 9827
SWIDTH 600 0
DWIDTH 10 0
BBX 9 9 0 0
BITMAP
3C00
3C00
FF80
FF80
FF80
EB80
0800
1800
7E00
ENDCHAR
STARTCHAR 2665
ENCODING 9829
SWIDTH 600 0
DWIDTH 10 0
BBX 8 8 1 -1
BITMAP
66
FF
FF
7F
7E
3C
18
18
ENDCHAR
STARTCHAR 2666
ENCODING 9830
SWIDTH 600 0
DWIDTH 10 0
BBX 7 9 1 0
BITMAP
18
18
3C
7E
FE
7E
3C
18
10
ENDCHAR
STARTCHAR 266A
ENCODING 9834
SWIDTH 600 0
DWIDTH 10 0
BBX 5 9 2 0
BITMAP
20
20
30
28
28
28
20
E0
C0
ENDCHAR
STARTCHAR 266B
ENCODING 9835
SWIDTH 600 0
DWIDTH 10 0
BBX 8 9 1 1
BITMAP
0F
31
2F
31
21
21
27
E6
C0
ENDCHAR
STARTCHAR E801
ENCODING 59393
SWIDTH 600 0
DWIDTH 10 0
BBX 4 10 2 0
BITMAP
80
00
70
10
10
10
10
10
10
10
ENDCHAR
STARTCHAR E802
ENCODING 59394
SWIDTH 600 0
DWIDTH 10 0
BBX 7 10 1 -2
BITMAP
FE
04
04
04
04
24
04
24
04
06
ENDCHAR
STARTCHAR E803
ENCODING 59395
SWIDTH 600 0
DWIDTH 10 0
BBX 7 10 1 -2
BITMAP
FE
04
04
04
04
74
24
04
04
06
ENDCHAR
STARTCHAR E804
ENCODING 59396
SWIDTH 600 0
DWIDTH 10 0
BBX 7 10 0 0
BITMAP
C0
40
7E
02
02
02
04
08
08
0C
ENDCHAR
STARTCHAR E805
ENCODING 59397
SWIDTH 600 0
DWIDTH 10 0
BBX 7 10 0 0
BITMAP
C0
40
7E
02
02
0A
02
0C
08
0C
ENDCHAR
STARTCHAR E811
ENCODING 59409
SWIDTH 600 0
DWIDTH 10 0
BBX 9 12 0 -4
BITMAP
0200
0200
0200
0200
0380
1C00
0700
0380
FC00
0000
0000
0600
ENDCHAR
STARTCHAR E813
ENCODING 59411
SWIDTH 600 0
DWIDTH 10 0
BBX 10 9 0 -4
BITMAP
0200
0E40
0A40
1440
FF80
3400
15C0
0900
0080
ENDCHAR
STARTCHAR E815
ENCODING 59413
SWIDTH 600 0
DWIDTH 10 0
BBX 10 11 0 -2
BITMAP
0080
0000
0000
0200
0E40
0A40
1440
FF80
3400
1400
0800
ENDCHAR
STARTCHAR E816
ENCODING 59414
SWIDTH 600 0
DWIDTH 10 0
BBX 10 10 0 -1
BITMAP
1400
1400
1400
0CC0
0CC0
8CC0
8F40
F340
0080
0300
ENDCHAR
STARTCHAR E817
ENCODING 59415
SWIDTH 600 0
DWIDTH 10 0
BBX 9 7 0 -1
BITMAP
0E00
0380
1C00
3800
2800
4B80
F100
ENDCHAR
STARTCHAR E818
ENCODING 59416
SWIDTH 600 0
DWIDTH 10 0
BBX 2 4 4 11
BITMAP
80
00
40
80
ENDCHAR
STARTCHAR E832
ENCODING 59442
SWIDTH 600 0
DWIDTH 10 0
BBX 2 3 4 -5
BITMAP
40
80
40
ENDCHAR
STARTCHAR E833
ENCODING 59443
SWIDTH 600 0
DWIDTH 10 0
BBX 2 4 4 -6
BITMAP
40
80
40
40
ENDCHAR
STARTCHAR E834
ENCODING 59444
SWIDTH 600 0
DWIDTH 10 0
BBX 3 6 4 -7
BITMAP
40
80
40
20
C0
40
ENDCHAR
STARTCHAR E835
ENCODING 59445
SWIDTH 600 0
DWIDTH 10 0
BBX 2 4 3 10
BITMAP
80
40
80
40
ENDCHAR
STARTCHAR E836
ENCODING 59446
SWIDTH 600 0
DWIDTH 10 0
BBX 2 5 3 10
BITMAP
C0
80
40
80
40
ENDCHAR
STARTCHAR E837
ENCODING 59447
SWIDTH 600 0
DWIDTH 10 0
BBX 3 6 3 9
BITMAP
C0
C0
C0
40
80
60
ENDCHAR
STARTCHAR E838
ENCODING 59448
SWIDTH 600 0
DWIDTH 10 0
BBX 2 7 4 9
BITMAP
40
40
40
80
40
80
40
ENDCHAR
STARTCHAR E839
ENCODING 59449
SWIDTH 600 0
DWIDTH 10 0
BBX 3 7 3 9
BITMAP
60
A0
60
80
40
80
60
ENDCHAR
STARTCHAR E83A
ENCODING 59450
SWIDTH 600 0
DWIDTH 10 0
BBX 10 1 0 0
BITMAP
FFC0
ENDCHAR
STARTCHAR E83B
ENCODING 59451
SWIDTH 600 0
DWIDTH 10 0
BBX 4 2 3 9
BITMAP
30
E0
ENDCHAR
STARTCHAR F001
ENCODING 61441
SWIDTH 600 0
DWIDTH 10 0
BBX 9 10 0 0
BITMAP
1900
2100
2000
F300
2100
2100
2100
2100
2100
F780
ENDCHAR
STARTCHAR F002
ENCODING 61442
SWIDTH 600 0
DWIDTH 10 0
BBX 9 10 0 0
BITMAP
1B00
2100
2100
F100
2100
2100
2100
2100
2100
F780
ENDCHAR
STARTCHAR F004
ENCODING 61444
SWIDTH 600 0
DWIDTH 10 0
BBX 2 2 4 -4
BITMAP
C0
80
ENDCHAR
STARTCHAR F005
ENCODING 61445
SWIDTH 600 0
DWIDTH 10 0
BBX 3 2 3 -3
BITMAP
60
E0
ENDCHAR
STARTCHAR F006
ENCODING 61446
SWIDTH 600 0
DWIDTH 10 0
BBX 2 1 4 11
BITMAP
C0
ENDCHAR
STARTCHAR F007
ENCODING 61447
SWIDTH 600 0
DWIDTH 10 0
BBX 2 1 4 11
BITMAP
C0
ENDCHAR
STARTCHAR F008
ENCODING 61448
SWIDTH 600 0
DWIDTH 10 0
BBX 3 2 3 8
BITMAP
20
C0
ENDCHAR
STARTCHAR F009
ENCODING 61449
SWIDTH 600 0
DWIDTH 10 0
BBX 3 2 4 10
BITMAP
20
C0
ENDCHAR
STARTCHAR F00F
ENCODING 61455
SWIDTH 600 0
DWIDTH 10 0
BBX 3 2 4 8
BITMAP
80
60
ENDCHAR
STARTCHAR F010
ENCODING 61456
SWIDTH 600 0
DWIDTH 10 0
BBX 2 2 4 11
BITMAP
C0
80
ENDCHAR
STARTCHAR F011
ENCODING 61457
SWIDTH 600 0
DWIDTH 10 0
BBX 2 2 4 11
BITMAP
C0
80
ENDCHAR
STARTCHAR F012
ENCODING 61458
SWIDTH 600 0
DWIDTH 10 0
BBX 3 2 3 8
BITMAP
E0
40
ENDCHAR
STARTCHAR F013
ENCODING 61459
SWIDTH 600 0
DWIDTH 10 0
BBX 3 3 3 10
BITMAP
60
A0
40
ENDCHAR
STARTCHAR F014
ENCODING 61460
SWIDTH 600 0
DWIDTH 10 0
BBX 3 2 3 8
BITMAP
E0
40
ENDCHAR
STARTCHAR F015
ENCODING 61461
SWIDTH 600 0
DWIDTH 10 0
BBX 5 2 2 11
BITMAP
40
B8
ENDCHAR
STARTCHAR F016
ENCODING 61462
SWIDTH 600 0
DWIDTH 10 0
BBX 5 2 2 11
BITMAP
40
B8
ENDCHAR
STARTCHAR F017
ENCODING 61463
SWIDTH 600 0
DWIDTH 10 0
BBX 5 2 2 11
BITMAP
40
B8
ENDCHAR
STARTCHAR F018
ENCODING 61464
SWIDTH 600 0
DWIDTH 10 0
BBX 5 2 2 11
BITMAP
40
B8
ENDCHAR
STARTCHAR F019
ENCODING 61465
SWIDTH 600 0
DWIDTH 10 0
BBX 5 2 2 7
BITMAP
E8
98
ENDCHAR
STARTCHAR F01A
ENCODING 61466
SWIDTH 600 0
DWIDTH 10 0
BBX 5 2 2 7
BITMAP
E8
98
ENDCHAR
STARTCHAR F01B
ENCODING 61467
SWIDTH 600 0
DWIDTH 10 0
BBX 5 2 2 7
BITMAP
E8
98
ENDCHAR
STARTCHAR F01C
ENCODING 61468
SWIDTH 600 0
DWIDTH 10 0
BBX 5 2 2 11
BITMAP
40
B8
ENDCHAR
STARTCHAR F01D
ENCODING 61469
SWIDTH 600 0
DWIDTH 10 0
BBX 5 2 2 7
BITMAP
E8
98
ENDCHAR
STARTCHAR F01E
ENCODING 61470
SWIDTH 600 0
DWIDTH 10 0
BBX 2 2 4 -3
BITMAP
C0
C0
ENDCHAR
STARTCHAR F01F
ENCODING 61471
SWIDTH 600 0
DWIDTH 10 0
BBX 2 2 4 -3
BITMAP
C0
C0
ENDCHAR
STARTCHAR F020
ENCODING 61472
SWIDTH 600 0
DWIDTH 10 0
BBX 2 2 4 -3
BITMAP
C0
C0
ENDCHAR
STARTCHAR F021
ENCODING 61473
SWIDTH 600 0
DWIDTH 10 0
BBX 2 2 4 -3
BITMAP
C0
C0
ENDCHAR
STARTCHAR F022
ENCODING 61474
SWIDTH 600 0
DWIDTH 10 0
BBX 2 2 4 -3
BITMAP
C0
C0
ENDCHAR
STARTCHAR F023
ENCODING 61475
SWIDTH 600 0
DWIDTH 10 0
BBX 2 2 4 -3
BITMAP
C0
C0
ENDCHAR
STARTCHAR F024
ENCODING 61476
SWIDTH 600 0
DWIDTH 10 0
BBX 2 2 4 -3
BITMAP
C0
C0
ENDCHAR
STARTCHAR F025
ENCODING 61477
SWIDTH 600 0
DWIDTH 10 0
BBX 2 2 4 -3
BITMAP
C0
C0
ENDCHAR
STARTCHAR F026
ENCODING 61478
SWIDTH 600 0
DWIDTH 10 0
BBX 2 2 4 -3
BITMAP
C0
C0
ENDCHAR
STARTCHAR F027
ENCODING 61479
SWIDTH 600 0
DWIDTH 10 0
BBX 2 2 4 -3
BITMAP
C0
C0
ENDCHAR
STARTCHAR F028
ENCODING 61480
SWIDTH 600 0
DWIDTH 10 0
BBX 2 2 4 -3
BITMAP
C0
C0
ENDCHAR
STARTCHAR F029
ENCODING 61481
SWIDTH 600 0
DWIDTH 10 0
BBX 2 2 4 -3
BITMAP
C0
C0
ENDCHAR
STARTCHAR F02A
ENCODING 61482
SWIDTH 600 0
DWIDTH 10 0
BBX 2 2 4 -3
BITMAP
C0
C0
ENDCHAR
STARTCHAR F02B
ENCODING 61483
SWIDTH 600 0
DWIDTH 10 0
BBX 2 2 4 -3
BITMAP
C0
C0
ENDCHAR
STARTCHAR F02C
ENCODING 61484
SWIDTH 600 0
DWIDTH 10 0
BBX 2 2 7 -3
BITMAP
C0
C0
ENDCHAR
STARTCHAR F02D
ENCODING 61485
SWIDTH 600 0
DWIDTH 10 0
BBX 5 2 3 11
BITMAP
40
B8
ENDCHAR
STARTCHAR F02E
ENCODING 61486
SWIDTH 600 0
DWIDTH 10 0
BBX 5 2 2 11
BITMAP
40
B8
ENDCHAR
STARTCHAR F02F
ENCODING 61487
SWIDTH 600 0
DWIDTH 10 0
BBX 5 2 3 11
BITMAP
40
B8
ENDCHAR
STARTCHAR F030
ENCODING 61488
SWIDTH 600 0
DWIDTH 10 0
BBX 5 2 2 11
BITMAP
40
B8
ENDCHAR
STARTCHAR FB01
ENCODING 64257
SWIDTH 600 0
DWIDTH 10 0
BBX 9 10 0 0
BITMAP
1900
2100
2000
F300
2100
2100
2100
2100
2100
F780
ENDCHAR
STARTCHAR FB02
ENCODING 64258
SWIDTH 600 0
DWIDTH 10 0
BBX 9 10 0 0
BITMAP
1B00
2100
2100
F100
2100
2100
2100
2100
2100
F780
ENDCHAR
STARTCHAR FB20
ENCODING 64288
SWIDTH 600 0
DWIDTH 10 0
BBX 6 8 2 0
BITMAP
CC
44
44
44
44
44
48
F0
ENDCHAR
STARTCHAR FB2A
ENCODING 64298
SWIDTH 600 0
DWIDTH 10 0
BBX 7 10 1 1
BITMAP
02
00
D6
92
92
92
92
92
92
7C
ENDCHAR
STARTCHAR FB2B
ENCODING 64299
SWIDTH 600 0
DWIDTH 10 0
BBX 7 10 1 1
BITMAP
80
00
D6
92
92
92
92
92
92
7C
ENDCHAR
STARTCHAR FB2C
ENCODING 64300
SWIDTH 600 0
DWIDTH 10 0
BBX 7 10 1 1
BITMAP
02
00
D6
92
92
9A
92
92
92
7C
ENDCHAR
STARTCHAR FB2D
ENCODING 64301
SWIDTH 600 0
DWIDTH 10 0
BBX 7 10 1 1
BITMAP
80
00
D6
92
92
9A
92
92
92
7C
ENDCHAR
STARTCHAR FB2E
ENCODING 64302
SWIDTH 600 0
DWIDTH 10 0
BBX 7 10 1 -2
BITMAP
0E
42
22
54
98
88
84
C0
00
38
ENDCHAR
STARTCHAR FB2F
ENCODING 64303
SWIDTH 600 0
DWIDTH 10 0
BBX 7 11 1 -4
BITMAP
0E
42
22
54
98
88
84
C0
00
38
10
ENDCHAR
STARTCHAR FB30
ENCODING 64304
SWIDTH 600 0
DWIDTH 10 0
BBX 7 8 1 0
BITMAP
0E
42
22
64
98
A8
84
C0
ENDCHAR
STARTCHAR FB31
ENCODING 64305
SWIDTH 600 0
DWIDTH 10 0
BBX 7 8 1 0
BITMAP
F8
04
04
24
04
04
04
FE
ENDCHAR
STARTCHAR FB32
ENCODING 64306
SWIDTH 600 0
DWIDTH 10 0
BBX 5 8 2 0
BITMAP
60
10
10
50
10
10
28
C8
ENDCHAR
STARTCHAR FB33
ENCODING 64307
SWIDTH 600 0
DWIDTH 10 0
BBX 7 8 1 0
BITMAP
FE
04
04
24
04
04
04
04
ENDCHAR
STARTCHAR FB34
ENCODING 64308
SWIDTH 600 0
DWIDTH 10 0
BBX 7 8 1 0
BITMAP
FC
02
02
92
82
82
82
82
ENDCHAR
STARTCHAR FB35
ENCODING 64309
SWIDTH 600 0
DWIDTH 10 0
BBX 3 8 3 0
BITMAP
E0
20
20
A0
20
20
20
20
ENDCHAR
STARTCHAR FB36
ENCODING 64310
SWIDTH 600 0
DWIDTH 10 0
BBX 5 8 2 0
BITMAP
F8
20
20
A0
20
20
20
20
ENDCHAR
STARTCHAR FB38
ENCODING 64312
SWIDTH 600 0
DWIDTH 10 0
BBX 8 8 0 0
BITMAP
E2
25
25
25
21
21
21
1E
ENDCHAR
STARTCHAR FB39
ENCODING 64313
SWIDTH 600 0
DWIDTH 10 0
BBX 3 4 3 4
BITMAP
E0
20
A0
20
ENDCHAR
STARTCHAR FB3A
ENCODING 64314
SWIDTH 600 0
DWIDTH 10 0
BBX 7 10 1 -2
BITMAP
FE
04
04
04
24
04
04
04
04
06
ENDCHAR
STARTCHAR FB3B
ENCODING 64315
SWIDTH 600 0
DWIDTH 10 0
BBX 7 8 1 0
BITMAP
F8
04
02
12
02
02
04
F8
ENDCHAR
STARTCHAR FB3C
ENCODING 64316
SWIDTH 600 0
DWIDTH 10 0
BBX 6 10 1 0
BITMAP
80
80
FC
04
04
14
04
18
10
18
ENDCHAR
STARTCHAR FB3E
ENCODING 64318
SWIDTH 600 0
DWIDTH 10 0
BBX 7 8 1 0
BITMAP
DC
62
42
4A
42
42
42
4E
ENDCHAR
STARTCHAR FB40
ENCODING 64320
SWIDTH 600 0
DWIDTH 10 0
BBX 4 8 2 0
BITMAP
70
10
10
50
10
10
10
F0
ENDCHAR
STARTCHAR FB41
ENCODING 64321
SWIDTH 600 0
DWIDTH 10 0
BBX 8 8 0 0
BITMAP
FE
21
21
29
21
21
21
1E
ENDCHAR
STARTCHAR FB43
ENCODING 64323
SWIDTH 600 0
DWIDTH 10 0
BBX 7 10 2 -2
BITMAP
F8
84
84
84
6C
04
04
04
04
06
ENDCHAR
STARTCHAR FB44
ENCODING 64324
SWIDTH 600 0
DWIDTH 10 0
BBX 6 8 2 0
BITMAP
F8
84
84
84
74
04
04
F8
ENDCHAR
STARTCHAR FB46
ENCODING 64326
SWIDTH 600 0
DWIDTH 10 0
BBX 6 8 2 0
BITMAP
DC
44
44
28
30
50
08
78
ENDCHAR
STARTCHAR FB47
ENCODING 64327
SWIDTH 600 0
DWIDTH 10 0
BBX 7 11 1 -3
BITMAP
FE
02
1A
44
44
48
48
4C
40
40
40
ENDCHAR
STARTCHAR FB48
ENCODING 64328
SWIDTH 600 0
DWIDTH 10 0
BBX 6 8 1 0
BITMAP
F8
04
04
24
04
04
04
04
ENDCHAR
STARTCHAR FB49
ENCODING 64329
SWIDTH 600 0
DWIDTH 10 0
BBX 7 8 1 0
BITMAP
D6
92
92
9A
92
92
92
7C
ENDCHAR
STARTCHAR FB4A
ENCODING 64330
SWIDTH 600 0
DWIDTH 10 0
BBX 7 8 2 0
BITMAP
FC
42
42
52
42
42
42
C2
ENDCHAR
STARTCHAR FB4B
ENCODING 64331
SWIDTH 600 0
DWIDTH 10 0
BBX 3 10 3 1
BITMAP
20
00
E0
20
20
20
20
20
20
20
ENDCHAR
STARTCHAR FB4C
ENCODING 64332
SWIDTH 600 0
DWIDTH 10 0
BBX 7 10 1 0
BITMAP
70
00
F8
04
04
04
04
04
04
FE
ENDCHAR
STARTCHAR FB4D
ENCODING 64333
SWIDTH 600 0
DWIDTH 10 0
BBX 7 10 1 0
BITMAP
38
00
F8
04
02
02
02
02
04
F8
ENDCHAR
STARTCHAR FB4E
ENCODING 64334
SWIDTH 600 0
DWIDTH 10 0
BBX 6 10 2 0
BITMAP
70
00
F8
84
84
84
74
04
04
F8
ENDCHAR
STARTCHAR FB4F
ENCODING 64335
SWIDTH 600 0
DWIDTH 10 0
BBX 7 10 1 0
BITMAP
80
80
8E
42
22
54
98
88
84
C0
ENDCHAR
STARTCHAR FB50
ENCODING 64336
SWIDTH 600 0
DWIDTH 10 0
BBX 3 12 3 0
BITMAP
20
E0
00
00
40
40
40
40
40
40
40
40
ENDCHAR
STARTCHAR FB51
ENCODING 64337
SWIDTH 600 0
DWIDTH 10 0
BBX 7 12 3 0
BITMAP
10
F0
00
20
20
20
20
20
20
20
20
3E
ENDCHAR
STARTCHAR FB56
ENCODING 64342
SWIDTH 600 0
DWIDTH 10 0
BBX 9 8 0 -3
BITMAP
0080
8080
8080
7F00
0000
0C00
0800
0C00
ENDCHAR
STARTCHAR FB57
ENCODING 64343
SWIDTH 600 0
DWIDTH 10 0
BBX 10 9 0 -4
BITMAP
0100
0100
8100
8100
7EC0
0000
1400
1C00
0800
ENDCHAR
STARTCHAR FB58
ENCODING 64344
SWIDTH 600 0
DWIDTH 10 0
BBX 10 8 0 -3
BITMAP
00C0
0040
0040
FF80
0000
01C0
0100
0180
ENDCHAR
STARTCHAR FB59
ENCODING 64345
SWIDTH 600 0
DWIDTH 10 0
BBX 10 8 0 -3
BITMAP
0400
0400
0400
FBC0
0000
0A00
0E00
0600
ENDCHAR
STARTCHAR FB6A
ENCODING 64362
SWIDTH 600 0
DWIDTH 10 0
BBX 10 10 0 1
BITMAP
0100
0280
0380
0000
0180
02C0
0240
83C0
8040
7F80
ENDCHAR
STARTCHAR FB6B
ENCODING 64363
SWIDTH 600 0
DWIDTH 10 0
BBX 10 10 0 1
BITMAP
0180
0140
01C0
0000
0080
0340
0240
8240
8180
7F40
ENDCHAR
STARTCHAR FB6C
ENCODING 64364
SWIDTH 600 0
DWIDTH 10 0
BBX 10 10 0 1
BITMAP
0180
0280
0380
0000
0180
02C0
0240
03C0
0040
FF80
ENDCHAR
STARTCHAR FB6D
ENCODING 64365
SWIDTH 600 0
DWIDTH 10 0
BBX 10 10 0 1
BITMAP
0100
0280
0380
0000
0180
0280
0280
0280
0100
FEC0
ENDCHAR
STARTCHAR FB7A
ENCODING 64378
SWIDTH 600 0
DWIDTH 10 0
BBX 7 9 2 -4
BITMAP
20
DC
60
40
98
88
80
42
3C
ENDCHAR
STARTCHAR FB7B
ENCODING 64379
SWIDTH 600 0
DWIDTH 10 0
BBX 9 9 1 -4
BITMAP
7000
0E00
1C00
6400
8780
B800
9000
4000
3C00
ENDCHAR
STARTCHAR FB7C
ENCODING 64380
SWIDTH 600 0
DWIDTH 10 0
BBX 9 9 0 -5
BITMAP
1C00
0300
0380
0C00
F000
0000
0A00
0E00
0400
ENDCHAR
STARTCHAR FB7D
ENCODING 64381
SWIDTH 600 0
DWIDTH 10 0
BBX 10 9 0 -5
BITMAP
1800
0700
0600
0A00
F3C0
0000
0C00
0800
0C00
ENDCHAR
STARTCHAR FB8A
ENCODING 64394
SWIDTH 600 0
DWIDTH 10 0
BBX 6 13 2 -3
BITMAP
10
10
3C
00
00
08
0C
04
04
04
08
18
F0
ENDCHAR
STARTCHAR FB8B
ENCODING 64395
SWIDTH 600 0
DWIDTH 10 0
BBX 8 12 1 -2
BITMAP
18
10
1C
00
00
08
04
04
07
08
08
F0
ENDCHAR
STARTCHAR FB8E
ENCODING 64398
SWIDTH 600 0
DWIDTH 10 0
BBX 9 9 0 1
BITMAP
0180
0200
0400
2400
1200
0100
8080
8080
7F80
ENDCHAR
STARTCHAR FB8F
ENCODING 64399
SWIDTH 600 0
DWIDTH 10 0
BBX 10 9 0 1
BITMAP
0080
0700
0800
0800
2400
1200
8100
8180
7EC0
ENDCHAR
STARTCHAR FB90
ENCODING 64400
SWIDTH 600 0
DWIDTH 10 0
BBX 10 9 0 0
BITMAP
0040
0180
0200
0400
0200
0100
0180
0080
FF80
ENDCHAR
STARTCHAR FB91
ENCODING 64401
SWIDTH 600 0
DWIDTH 10 0
BBX 10 9 0 0
BITMAP
0100
0600
0800
1000
0800
0400
0400
0200
FDC0
ENDCHAR
STARTCHAR FB92
ENCODING 64402
SWIDTH 600 0
DWIDTH 10 0
BBX 10 10 0 0
BITMAP
0040
0180
06C0
0300
0400
0600
0100
8080
8080
7F80
ENDCHAR
STARTCHAR FB93
ENCODING 64403
SWIDTH 600 0
DWIDTH 10 0
BBX 10 9 0 1
BITMAP
0700
1B00
0C00
1000
1C00
0600
8100
8100
7EC0
ENDCHAR
STARTCHAR FB94
ENCODING 64404
SWIDTH 600 0
DWIDTH 10 0
BBX 10 9 0 1
BITMAP
0080
0340
0180
0600
0600
0300
0080
0080
FF80
ENDCHAR
STARTCHAR FB95
ENCODING 64405
SWIDTH 600 0
DWIDTH 10 0
BBX 10 10 0 0
BITMAP
0100
0600
1A00
0C00
3000
1000
0800
0400
0200
FDC0
ENDCHAR
STARTCHAR FBFC
ENCODING 64508
SWIDTH 600 0
DWIDTH 10 0
BBX 8 7 1 -3
BITMAP
03
0C
08
87
81
82
7C
ENDCHAR
STARTCHAR FBFD
ENCODING 64509
SWIDTH 600 0
DWIDTH 10 0
BBX 9 5 1 -4
BITMAP
0780
8800
8700
8200
7C00
ENDCHAR
STARTCHAR FBFE
ENCODING 64510
SWIDTH 600 0
DWIDTH 10 0
BBX 10 7 0 -2
BITMAP
00C0
0040
0040
FF80
0000
0000
0380
ENDCHAR
STARTCHAR FBFF
ENCODING 64511
SWIDTH 600 0
DWIDTH 10 0
BBX 10 7 0 -2
BITMAP
0400
0400
0400
FBC0
0000
0000
0F00
ENDCHAR
STARTCHAR FC08
ENCODING 64520
SWIDTH 600 0
DWIDTH 10 0
BBX 7 10 2 -6
BITMAP
0E
32
40
70
78
80
80
C4
44
40
ENDCHAR
STARTCHAR FC09
ENCODING 64521
SWIDTH 600 0
DWIDTH 10 0
BBX 8 8 1 -3
BITMAP
0C
04
04
8E
81
7E
03
02
ENDCHAR
STARTCHAR FC0E
ENCODING 64526
SWIDTH 600 0
DWIDTH 10 0
BBX 8 14 2 -6
BITMAP
04
07
00
00
0E
32
40
70
78
80
80
C0
40
40
ENDCHAR
STARTCHAR FC12
ENCODING 64530
SWIDTH 600 0
DWIDTH 10 0
BBX 7 14 2 -5
BITMAP
02
04
06
00
0E
32
40
70
78
80
80
C0
40
40
ENDCHAR
STARTCHAR FC31
ENCODING 64561
SWIDTH 600 0
DWIDTH 10 0
BBX 8 11 1 -2
BITMAP
08
08
00
0C
12
1E
02
8E
81
82
7C
ENDCHAR
STARTCHAR FC32
ENCODING 64562
SWIDTH 600 0
DWIDTH 10 0
BBX 8 12 1 -4
BITMAP
08
08
00
0C
12
1E
02
8E
81
82
7C
30
ENDCHAR
STARTCHAR FC3F
ENCODING 64575
SWIDTH 600 0
DWIDTH 10 0
BBX 8 13 1 -3
BITMAP
10
10
10
10
70
0C
0F
70
80
98
80
41
3E
ENDCHAR
STARTCHAR FC40
ENCODING 64576
SWIDTH 600 0
DWIDTH 10 0
BBX 8 13 1 -3
BITMAP
10
10
10
10
70
0C
0F
70
80
80
80
41
3E
ENDCHAR
STARTCHAR FC41
ENCODING 64577
SWIDTH 600 0
DWIDTH 10 0
BBX 8 13 1 -3
BITMAP
10
50
50
10
70
0C
0F
70
80
80
80
41
3E
ENDCHAR
STARTCHAR FC42
ENCODING 64578
SWIDTH 600 0
DWIDTH 10 0
BBX 5 14 2 -4
BITMAP
30
20
20
20
10
10
10
70
78
80
80
80
40
40
ENDCHAR
STARTCHAR FC43
ENCODING 64579
SWIDTH 600 0
DWIDTH 10 0
BBX 8 11 1 -3
BITMAP
08
08
08
08
04
04
04
8E
81
C2
7C
ENDCHAR
STARTCHAR FC44
ENCODING 64580
SWIDTH 600 0
DWIDTH 10 0
BBX 8 13 1 -5
BITMAP
08
08
08
08
04
04
04
8E
81
C2
7C
30
20
ENDCHAR
STARTCHAR FC4E
ENCODING 64590
SWIDTH 600 0
DWIDTH 10 0
BBX 7 13 2 -5
BITMAP
02
00
00
0E
32
40
70
78
80
80
C0
40
40
ENDCHAR
STARTCHAR FC4F
ENCODING 64591
SWIDTH 600 0
DWIDTH 10 0
BBX 8 9 1 -1
BITMAP
18
00
00
0C
04
04
8E
81
7E
ENDCHAR
STARTCHAR FC58
ENCODING 64600
SWIDTH 600 0
DWIDTH 10 0
BBX 7 10 2 -6
BITMAP
0E
32
40
70
78
80
80
C6
40
40
ENDCHAR
STARTCHAR FC59
ENCODING 64601
SWIDTH 600 0
DWIDTH 10 0
BBX 8 8 1 -3
BITMAP
0C
04
04
8E
81
7E
0B
0D
ENDCHAR
STARTCHAR FC5E
ENCODING 64606
SWIDTH 600 0
DWIDTH 10 0
BBX 3 6 3 10
BITMAP
20
60
E0
C0
20
E0
ENDCHAR
STARTCHAR FC5F
ENCODING 64607
SWIDTH 600 0
DWIDTH 10 0
BBX 2 4 4 10
BITMAP
40
80
80
40
ENDCHAR
STARTCHAR FC60
ENCODING 64608
SWIDTH 600 0
DWIDTH 10 0
BBX 2 2 4 12
BITMAP
40
80
ENDCHAR
STARTCHAR FC61
ENCODING 64609
SWIDTH 600 0
DWIDTH 10 0
BBX 3 6 3 10
BITMAP
20
60
20
40
20
E0
ENDCHAR
STARTCHAR FC62
ENCODING 64610
SWIDTH 600 0
DWIDTH 10 0
BBX 2 3 4 10
BITMAP
40
80
40
ENDCHAR
STARTCHAR FC6A
ENCODING 64618
SWIDTH 600 0
DWIDTH 10 0
BBX 9 8 1 -2
BITMAP
0800
0A00
0600
0500
0580
0800
0800
F300
ENDCHAR
STARTCHAR FC6D
ENCODING 64621
SWIDTH 600 0
DWIDTH 10 0
BBX 10 10 0 -3
BITMAP
3000
0000
0000
0500
8700
8500
84C0
8400
8800
7180
ENDCHAR
STARTCHAR FC6E
ENCODING 64622
SWIDTH 600 0
DWIDTH 10 0
BBX 10 7 0 -5
BITMAP
0300
0D00
08C0
8E00
8100
8240
7C00
ENDCHAR
STARTCHAR FC6F
ENCODING 64623
SWIDTH 600 0
DWIDTH 10 0
BBX 10 8 0 -5
BITMAP
0300
0D00
08C0
8700
8100
7EC0
2800
1000
ENDCHAR
STARTCHAR FC70
ENCODING 64624
SWIDTH 600 0
DWIDTH 10 0
BBX 9 11 1 -2
BITMAP
0380
0000
0000
0800
0A00
0600
0500
0580
0800
0800
F000
ENDCHAR
STARTCHAR FC73
ENCODING 64627
SWIDTH 600 0
DWIDTH 10 0
BBX 10 11 0 -2
BITMAP
1380
0000
0000
0000
0500
8700
8500
84C0
8400
8800
7000
ENDCHAR
STARTCHAR FC74
ENCODING 64628
SWIDTH 600 0
DWIDTH 10 0
BBX 10 10 0 -5
BITMAP
0280
0380
0000
0300
0D00
08C0
8E00
8100
8200
7C00
ENDCHAR
STARTCHAR FC75
ENCODING 64629
SWIDTH 600 0
DWIDTH 10 0
BBX 10 11 0 -5
BITMAP
0280
0380
0000
0300
0D00
08C0
8700
8100
7E00
2800
1000
ENDCHAR
STARTCHAR FC8E
ENCODING 64654
SWIDTH 600 0
DWIDTH 10 0
BBX 10 10 0 -5
BITMAP
0100
0000
0000
0300
0D00
08C0
8E00
8100
8200
7C00
ENDCHAR
STARTCHAR FC8F
ENCODING 64655
SWIDTH 600 0
DWIDTH 10 0
BBX 10 11 0 -5
BITMAP
0100
0000
0000
0300
0D00
08C0
8700
8100
7E00
2800
1000
ENDCHAR
STARTCHAR FC91
ENCODING 64657
SWIDTH 600 0
DWIDTH 10 0
BBX 9 8 1 -3
BITMAP
0800
0A00
0600
0500
0580
0800
0800
F700
ENDCHAR
STARTCHAR FC94
ENCODING 64660
SWIDTH 600 0
DWIDTH 10 0
BBX 10 12 0 -5
BITMAP
1000
0000
0000
0000
0500
8700
8500
84C0
8400
8800
7000
0380
ENDCHAR
STARTCHAR FC9C
ENCODING 64668
SWIDTH 600 0
DWIDTH 10 0
BBX 10 11 0 -4
BITMAP
0100
0280
0400
1800
0600
01C0
0600
F800
0000
0080
3000
ENDCHAR
STARTCHAR FC9D
ENCODING 64669
SWIDTH 600 0
DWIDTH 10 0
BBX 10 10 0 -2
BITMAP
0100
0280
0400
1800
0600
01C0
0600
F800
0080
0080
ENDCHAR
STARTCHAR FC9E
ENCODING 64670
SWIDTH 600 0
DWIDTH 10 0
BBX 10 10 0 -1
BITMAP
3100
0280
0400
1800
0600
01C0
0600
F800
0000
0100
ENDCHAR
STARTCHAR FC9F
ENCODING 64671
SWIDTH 600 0
DWIDTH 10 0
BBX 9 10 0 -4
BITMAP
0180
0200
0400
0400
0400
0700
F900
0000
0000
0080
ENDCHAR
STARTCHAR FCA0
ENCODING 64672
SWIDTH 600 0
DWIDTH 10 0
BBX 10 8 0 -3
BITMAP
0200
0E40
0A40
1440
FF80
3400
1400
0880
ENDCHAR
STARTCHAR FCA1
ENCODING 64673
SWIDTH 600 0
DWIDTH 10 0
BBX 10 14 0 -3
BITMAP
0180
0000
0000
0100
0280
0400
1800
0600
01C0
0600
F800
0000
0000
0200
ENDCHAR
STARTCHAR FCA2
ENCODING 64674
SWIDTH 600 0
DWIDTH 10 0
BBX 10 11 0 1
BITMAP
0180
0000
0000
0100
0280
0400
1800
0600
01C0
0600
F800
ENDCHAR
STARTCHAR FCA3
ENCODING 64675
SWIDTH 600 0
DWIDTH 10 0
BBX 10 11 0 1
BITMAP
0180
0000
0000
3100
0280
0400
1800
0600
01C0
0600
F800
ENDCHAR
STARTCHAR FCA4
ENCODING 64676
SWIDTH 600 0
DWIDTH 10 0
BBX 9 10 0 0
BITMAP
0080
0180
0000
0180
0200
0400
0400
0400
0700
F900
ENDCHAR
STARTCHAR FCA5
ENCODING 64677
SWIDTH 600 0
DWIDTH 10 0
BBX 10 11 0 -2
BITMAP
01C0
0000
0000
0200
0E40
0A40
1440
FF80
3400
1400
0800
ENDCHAR
STARTCHAR FCA6
ENCODING 64678
SWIDTH 600 0
DWIDTH 10 0
BBX 9 11 0 1
BITMAP
0180
0080
0180
0000
0180
0200
0400
0400
0400
0700
F900
ENDCHAR
STARTCHAR FCA8
ENCODING 64680
SWIDTH 600 0
DWIDTH 10 0
BBX 9 7 0 0
BITMAP
0E00
0380
1C00
3800
2800
4B00
F000
ENDCHAR
STARTCHAR FCAA
ENCODING 64682
SWIDTH 600 0
DWIDTH 10 0
BBX 9 7 0 0
BITMAP
0E00
0380
1C00
3800
2800
4800
F000
ENDCHAR
STARTCHAR FCAC
ENCODING 64684
SWIDTH 600 0
DWIDTH 10 0
BBX 9 9 0 1
BITMAP
0300
0000
0E00
0380
1C00
3800
2800
4800
F000
ENDCHAR
STARTCHAR FCB0
ENCODING 64688
SWIDTH 600 0
DWIDTH 10 0
BBX 10 8 0 1
BITMAP
0040
0140
0140
1A40
2780
2000
1800
E800
ENDCHAR
STARTCHAR FCC9
ENCODING 64713
SWIDTH 600 0
DWIDTH 10 0
BBX 10 11 0 -3
BITMAP
0600
0400
0200
0200
1E00
01C0
0600
F800
0000
0000
0300
ENDCHAR
STARTCHAR FCCA
ENCODING 64714
SWIDTH 600 0
DWIDTH 10 0
BBX 10 8 0 1
BITMAP
0600
0400
0200
0200
1E00
01C0
0600
F800
ENDCHAR
STARTCHAR FCCB
ENCODING 64715
SWIDTH 600 0
DWIDTH 10 0
BBX 10 8 0 1
BITMAP
0600
1400
0200
0200
1E00
01C0
0600
F800
ENDCHAR
STARTCHAR FCCC
ENCODING 64716
SWIDTH 600 0
DWIDTH 10 0
BBX 10 9 0 0
BITMAP
0200
0200
0200
0200
0200
0200
0100
FEC0
0040
ENDCHAR
STARTCHAR FCCD
ENCODING 64717
SWIDTH 600 0
DWIDTH 10 0
BBX 9 11 1 -2
BITMAP
0100
0100
0100
0480
1C80
1480
2880
FF80
6800
2800
1000
ENDCHAR
STARTCHAR FCCE
ENCODING 64718
SWIDTH 600 0
DWIDTH 10 0
BBX 9 9 0 -3
BITMAP
0700
0380
0C00
1800
0600
0180
FE00
0000
0600
ENDCHAR
STARTCHAR FCCF
ENCODING 64719
SWIDTH 600 0
DWIDTH 10 0
BBX 9 7 0 0
BITMAP
0700
0380
0C00
1800
0600
0180
FE00
ENDCHAR
STARTCHAR FCD0
ENCODING 64720
SWIDTH 600 0
DWIDTH 10 0
BBX 9 7 0 1
BITMAP
1700
0380
0C00
1800
0600
0180
FE00
ENDCHAR
STARTCHAR FCD1
ENCODING 64721
SWIDTH 600 0
DWIDTH 10 0
BBX 9 7 0 0
BITMAP
0700
0180
0600
0800
0800
0C00
F600
ENDCHAR
STARTCHAR FCD2
ENCODING 64722
SWIDTH 600 0
DWIDTH 10 0
BBX 10 14 0 -4
BITMAP
0100
0000
0000
0100
0280
0400
1800
0600
01C0
0600
F800
0000
0000
0200
ENDCHAR
STARTCHAR FCD3
ENCODING 64723
SWIDTH 600 0
DWIDTH 10 0
BBX 10 11 0 0
BITMAP
0100
0000
0000
0100
0280
0400
1800
0600
01C0
0600
F800
ENDCHAR
STARTCHAR FCD4
ENCODING 64724
SWIDTH 600 0
DWIDTH 10 0
BBX 10 11 0 0
BITMAP
0100
0000
0000
3100
0280
0400
1800
0600
01C0
0600
F800
ENDCHAR
STARTCHAR FCD5
ENCODING 64725
SWIDTH 600 0
DWIDTH 10 0
BBX 9 10 0 1
BITMAP
0080
0000
0000
0180
0200
0400
0400
0400
0700
F900
ENDCHAR
STARTCHAR FCD8
ENCODING 64728
SWIDTH 600 0
DWIDTH 10 0
BBX 10 9 0 0
BITMAP
0300
0380
0540
0740
0D80
1000
2800
4800
F000
ENDCHAR
STARTCHAR FCDA
ENCODING 64730
SWIDTH 600 0
DWIDTH 10 0
BBX 10 11 0 -3
BITMAP
0100
0280
0400
1800
0600
01C0
0600
F800
0180
0400
0400
ENDCHAR
STARTCHAR FCDB
ENCODING 64731
SWIDTH 600 0
DWIDTH 10 0
BBX 10 9 0 -1
BITMAP
0100
0280
0400
1800
0600
01C0
0600
F800
0180
ENDCHAR
STARTCHAR FCDC
ENCODING 64732
SWIDTH 600 0
DWIDTH 10 0
BBX 10 9 0 -1
BITMAP
3100
0280
0400
1800
0600
01C0
0600
F800
0180
ENDCHAR
STARTCHAR FCDD
ENCODING 64733
SWIDTH 600 0
DWIDTH 10 0
BBX 10 10 0 -4
BITMAP
0180
0200
0400
0400
0400
0700
F900
0000
0000
01C0
ENDCHAR
STARTCHAR FD30
ENCODING 64816
SWIDTH 600 0
DWIDTH 10 0
BBX 10 11 0 1
BITMAP
0300
0100
0300
0040
0140
0140
1A40
2780
2000
1800
E800
ENDCHAR
STARTCHAR FD3C
ENCODING 64828
SWIDTH 600 0
DWIDTH 10 0
BBX 5 12 4 0
BITMAP
80
80
00
80
80
80
80
80
80
80
80
F8
ENDCHAR
STARTCHAR FD3D
ENCODING 64829
SWIDTH 600 0
DWIDTH 10 0
BBX 2 12 3 0
BITMAP
40
80
40
00
40
40
40
40
40
40
40
40
ENDCHAR
STARTCHAR FD3E
ENCODING 64830
SWIDTH 600 0
DWIDTH 10 0
BBX 3 12 5 -2
BITMAP
20
40
40
80
80
80
80
80
80
40
40
20
ENDCHAR
STARTCHAR FD3F
ENCODING 64831
SWIDTH 600 0
DWIDTH 10 0
BBX 3 12 2 -2
BITMAP
80
40
40
40
20
20
20
20
20
40
40
80
ENDCHAR
STARTCHAR FD88
ENCODING 64904
SWIDTH 600 0
DWIDTH 10 0
BBX 9 9 0 0
BITMAP
0200
0200
0200
0200
0380
1C00
0700
0380
FC00
ENDCHAR
STARTCHAR FDF2
ENCODING 65010
SWIDTH 600 0
DWIDTH 10 0
BBX 9 10 0 0
BITMAP
0C00
1000
0100
0900
0500
2500
6480
A480
E480
1F80
ENDCHAR
STARTCHAR FE80
ENCODING 65152
SWIDTH 600 0
DWIDTH 10 0
BBX 4 4 4 0
BITMAP
40
80
F0
40
ENDCHAR
STARTCHAR FE81
ENCODING 65153
SWIDTH 600 0
DWIDTH 10 0
BBX 5 10 2 1
BITMAP
F8
00
20
20
20
20
20
20
20
20
ENDCHAR
STARTCHAR FE82
ENCODING 65154
SWIDTH 600 0
DWIDTH 10 0
BBX 8 11 1 0
BITMAP
F8
00
10
10
10
10
10
10
10
10
1F
ENDCHAR
STARTCHAR FE83
ENCODING 65155
SWIDTH 600 0
DWIDTH 10 0
BBX 2 12 3 0
BITMAP
40
80
40
00
40
40
40
40
40
40
40
40
ENDCHAR
STARTCHAR FE84
ENCODING 65156
SWIDTH 600 0
DWIDTH 10 0
BBX 7 13 3 0
BITMAP
40
80
40
00
40
40
40
40
40
40
40
40
7E
ENDCHAR
STARTCHAR FE85
ENCODING 65157
SWIDTH 600 0
DWIDTH 10 0
BBX 6 12 2 -3
BITMAP
10
20
10
00
08
14
14
24
1C
04
08
F0
ENDCHAR
STARTCHAR FE86
ENCODING 65158
SWIDTH 600 0
DWIDTH 10 0
BBX 8 12 2 -3
BITMAP
10
20
10
00
08
1C
24
24
3F
04
18
F0
ENDCHAR
STARTCHAR FE87
ENCODING 65159
SWIDTH 600 0
DWIDTH 10 0
BBX 2 12 3 -3
BITMAP
40
40
40
40
40
40
40
00
00
40
80
40
ENDCHAR
STARTCHAR FE88
ENCODING 65160
SWIDTH 600 0
DWIDTH 10 0
BBX 6 12 4 -3
BITMAP
80
80
80
80
80
80
80
7C
00
40
80
40
ENDCHAR
STARTCHAR FE89
ENCODING 65161
SWIDTH 600 0
DWIDTH 10 0
BBX 8 9 1 -2
BITMAP
20
10
03
0C
08
87
81
82
7C
ENDCHAR
STARTCHAR FE8A
ENCODING 65162
SWIDTH 600 0
DWIDTH 10 0
BBX 9 9 1 -4
BITMAP
1000
0800
0000
0000
0780
8800
8700
C100
7E00
ENDCHAR
STARTCHAR FE8B
ENCODING 65163
SWIDTH 600 0
DWIDTH 10 0
BBX 10 9 0 0
BITMAP
0080
0100
0080
0000
0040
0040
0040
0040
FF80
ENDCHAR
STARTCHAR FE8C
ENCODING 65164
SWIDTH 600 0
DWIDTH 10 0
BBX 10 9 0 0
BITMAP
0400
0800
0400
0000
0400
0400
0400
0600
F9C0
ENDCHAR
STARTCHAR FE8D
ENCODING 65165
SWIDTH 600 0
DWIDTH 10 0
BBX 1 7 4 2
BITMAP
80
80
80
80
80
80
80
ENDCHAR
STARTCHAR FE8E
ENCODING 65166
SWIDTH 600 0
DWIDTH 10 0
BBX 5 9 4 0
BITMAP
80
80
80
80
80
80
80
80
F8
ENDCHAR
STARTCHAR FE8F
ENCODING 65167
SWIDTH 600 0
DWIDTH 10 0
BBX 9 7 0 -2
BITMAP
0080
8080
8080
7F00
0000
0000
0C00
ENDCHAR
STARTCHAR FE90
ENCODING 65168
SWIDTH 600 0
DWIDTH 10 0
BBX 10 8 0 -3
BITMAP
0100
0100
8100
8100
7EC0
0000
0000
1800
ENDCHAR
STARTCHAR FE91
ENCODING 65169
SWIDTH 600 0
DWIDTH 10 0
BBX 10 7 0 -2
BITMAP
00C0
0040
0040
FF80
0000
0000
0180
ENDCHAR
STARTCHAR FE92
ENCODING 65170
SWIDTH 600 0
DWIDTH 10 0
BBX 10 7 0 -2
BITMAP
0400
0400
0400
FBC0
0000
0000
0600
ENDCHAR
STARTCHAR FE93
ENCODING 65171
SWIDTH 600 0
DWIDTH 10 0
BBX 4 8 4 1
BITMAP
E0
00
00
60
70
90
90
E0
ENDCHAR
STARTCHAR FE94
ENCODING 65172
SWIDTH 600 0
DWIDTH 10 0
BBX 7 9 3 1
BITMAP
70
00
10
10
30
D0
F0
10
1E
ENDCHAR
STARTCHAR FE95
ENCODING 65173
SWIDTH 600 0
DWIDTH 10 0
BBX 9 7 0 1
BITMAP
0400
0C00
0000
0080
8080
8080
7F00
ENDCHAR
STARTCHAR FE96
ENCODING 65174
SWIDTH 600 0
DWIDTH 10 0
BBX 10 7 0 1
BITMAP
1400
1800
0100
0100
8100
8100
7EC0
ENDCHAR
STARTCHAR FE97
ENCODING 65175
SWIDTH 600 0
DWIDTH 10 0
BBX 10 8 0 1
BITMAP
03C0
0000
0000
0000
00C0
0040
0040
FF80
ENDCHAR
STARTCHAR FE98
ENCODING 65176
SWIDTH 600 0
DWIDTH 10 0
BBX 10 8 0 1
BITMAP
1400
0800
0000
0000
0400
0400
0400
FBC0
ENDCHAR
STARTCHAR FE99
ENCODING 65177
SWIDTH 600 0
DWIDTH 10 0
BBX 9 8 0 1
BITMAP
0800
1400
1C00
0000
0080
8080
8080
7F00
ENDCHAR
STARTCHAR FE9A
ENCODING 65178
SWIDTH 600 0
DWIDTH 10 0
BBX 10 8 0 1
BITMAP
1800
1000
1800
0100
0100
8100
8100
7EC0
ENDCHAR
STARTCHAR FE9B
ENCODING 65179
SWIDTH 600 0
DWIDTH 10 0
BBX 10 10 0 0
BITMAP
0080
0080
01C0
0000
0000
0000
00C0
0040
0040
FF80
ENDCHAR
STARTCHAR FE9C
ENCODING 65180
SWIDTH 600 0
DWIDTH 10 0
BBX 10 9 0 1
BITMAP
0800
1400
1C00
0000
0000
0400
0400
0400
FBC0
ENDCHAR
STARTCHAR FE9D
ENCODING 65181
SWIDTH 600 0
DWIDTH 10 0
BBX 7 9 2 -4
BITMAP
20
DC
60
40
90
90
80
42
3C
ENDCHAR
STARTCHAR FE9E
ENCODING 65182
SWIDTH 600 0
DWIDTH 10 0
BBX 9 9 1 -4
BITMAP
7000
0E00
1C00
6400
8780
8000
8800
4000
3C00
ENDCHAR
STARTCHAR FE9F
ENCODING 65183
SWIDTH 600 0
DWIDTH 10 0
BBX 9 8 0 -4
BITMAP
1C00
0300
0380
0C00
F000
0000
0000
0C00
ENDCHAR
STARTCHAR FEA0
ENCODING 65184
SWIDTH 600 0
DWIDTH 10 0
BBX 10 8 0 -4
BITMAP
1800
0700
0600
0A00
F3C0
0000
0000
0400
ENDCHAR
STARTCHAR FEA1
ENCODING 65185
SWIDTH 600 0
DWIDTH 10 0
BBX 7 9 2 -4
BITMAP
20
DC
60
40
80
80
80
42
3C
ENDCHAR
STARTCHAR FEA2
ENCODING 65186
SWIDTH 600 0
DWIDTH 10 0
BBX 9 9 1 -4
BITMAP
7000
0E00
1C00
6400
8780
8000
8000
4000
3C00
ENDCHAR
STARTCHAR FEA3
ENCODING 65187
SWIDTH 600 0
DWIDTH 10 0
BBX 9 5 0 0
BITMAP
1C00
0300
0380
0C00
F000
ENDCHAR
STARTCHAR FEA4
ENCODING 65188
SWIDTH 600 0
DWIDTH 10 0
BBX 10 5 0 0
BITMAP
1800
0700
0600
0A00
F3C0
ENDCHAR
STARTCHAR FEA5
ENCODING 65189
SWIDTH 600 0
DWIDTH 10 0
BBX 7 12 2 -3
BITMAP
18
00
00
20
DC
60
40
80
80
80
42
3C
ENDCHAR
STARTCHAR FEA6
ENCODING 65190
SWIDTH 600 0
DWIDTH 10 0
BBX 9 11 1 -3
BITMAP
0C00
0000
7000
0E00
1C00
6400
8780
8000
8000
4000
3C00
ENDCHAR
STARTCHAR FEA7
ENCODING 65191
SWIDTH 600 0
DWIDTH 10 0
BBX 9 7 0 1
BITMAP
0200
0000
1C00
0300
0380
0C00
F000
ENDCHAR
STARTCHAR FEA8
ENCODING 65192
SWIDTH 600 0
DWIDTH 10 0
BBX 10 8 0 1
BITMAP
0400
0400
0000
1800
0700
0600
0A00
F3C0
ENDCHAR
STARTCHAR FEA9
ENCODING 65193
SWIDTH 600 0
DWIDTH 10 0
BBX 5 6 3 1
BITMAP
20
10
08
08
08
F0
ENDCHAR
STARTCHAR FEAA
ENCODING 65194
SWIDTH 600 0
DWIDTH 10 0
BBX 7 6 3 1
BITMAP
08
08
08
08
08
F6
ENDCHAR
STARTCHAR FEAB
ENCODING 65195
SWIDTH 600 0
DWIDTH 10 0
BBX 5 9 3 1
BITMAP
40
00
00
20
10
08
08
08
F0
ENDCHAR
STARTCHAR FEAC
ENCODING 65196
SWIDTH 600 0
DWIDTH 10 0
BBX 7 9 3 0
BITMAP
10
10
00
08
08
08
08
08
F6
ENDCHAR
STARTCHAR FEAD
ENCODING 65197
SWIDTH 600 0
DWIDTH 10 0
BBX 6 8 2 -2
BITMAP
08
0C
04
04
04
08
18
F0
ENDCHAR
STARTCHAR FEAE
ENCODING 65198
SWIDTH 600 0
DWIDTH 10 0
BBX 8 7 1 -1
BITMAP
08
04
04
07
08
08
F0
ENDCHAR
STARTCHAR FEAF
ENCODING 65199
SWIDTH 600 0
DWIDTH 10 0
BBX 6 11 2 -2
BITMAP
10
00
00
08
0C
04
04
04
08
18
F0
ENDCHAR
STARTCHAR FEB0
ENCODING 65200
SWIDTH 600 0
DWIDTH 10 0
BBX 8 11 1 -2
BITMAP
18
00
00
00
08
04
04
07
08
08
F0
ENDCHAR
STARTCHAR FEB1
ENCODING 65201
SWIDTH 600 0
DWIDTH 10 0
BBX 9 8 0 -2
BITMAP
0080
4080
8A80
8A80
8F00
8800
9000
7000
ENDCHAR
STARTCHAR FEB2
ENCODING 65202
SWIDTH 600 0
DWIDTH 10 0
BBX 10 8 0 -2
BITMAP
0080
4080
8A80
8A80
8F40
8800
9000
7000
ENDCHAR
STARTCHAR FEB3
ENCODING 65203
SWIDTH 600 0
DWIDTH 10 0
BBX 9 5 0 1
BITMAP
0080
0080
1480
1480
FF00
ENDCHAR
STARTCHAR FEB4
ENCODING 65204
SWIDTH 600 0
DWIDTH 10 0
BBX 10 5 0 1
BITMAP
0100
1100
2500
2500
DEC0
ENDCHAR
STARTCHAR FEB5
ENCODING 65205
SWIDTH 600 0
DWIDTH 10 0
BBX 9 12 0 -2
BITMAP
0400
0400
0A00
0000
0080
4080
8A80
8A80
8F00
8800
9000
7000
ENDCHAR
STARTCHAR FEB6
ENCODING 65206
SWIDTH 600 0
DWIDTH 10 0
BBX 10 12 0 -2
BITMAP
0400
0400
0A00
0000
0080
4080
8A80
8A80
8F40
8800
9000
7000
ENDCHAR
STARTCHAR FEB7
ENCODING 65207
SWIDTH 600 0
DWIDTH 10 0
BBX 9 9 0 1
BITMAP
0400
0000
0E00
0000
0080
0080
1480
1480
FF00
ENDCHAR
STARTCHAR FEB8
ENCODING 65208
SWIDTH 600 0
DWIDTH 10 0
BBX 10 9 0 1
BITMAP
0400
0000
0E00
0000
0100
1100
2500
2500
DEC0
ENDCHAR
STARTCHAR FEB9
ENCODING 65209
SWIDTH 600 0
DWIDTH 10 0
BBX 10 8 0 -3
BITMAP
0180
4240
8A40
8C40
8F80
8800
8800
7000
ENDCHAR
STARTCHAR FEBA
ENCODING 65210
SWIDTH 600 0
DWIDTH 10 0
BBX 10 8 0 -3
BITMAP
0180
4240
8A40
8C40
8FC0
8800
9000
7000
ENDCHAR
STARTCHAR FEBB
ENCODING 65211
SWIDTH 600 0
DWIDTH 10 0
BBX 10 5 0 0
BITMAP
0180
0240
0440
2840
FF80
ENDCHAR
STARTCHAR FEBC
ENCODING 65212
SWIDTH 600 0
DWIDTH 10 0
BBX 10 5 0 0
BITMAP
0180
0240
0440
2840
FFC0
ENDCHAR
STARTCHAR FEBD
ENCODING 65213
SWIDTH 600 0
DWIDTH 10 0
BBX 10 11 0 -3
BITMAP
0100
0100
0000
0180
4240
8A40
8C40
8F80
8800
8800
7000
ENDCHAR
STARTCHAR FEBE
ENCODING 65214
SWIDTH 600 0
DWIDTH 10 0
BBX 10 11 0 -3
BITMAP
0100
0100
0000
0180
4240
8A40
8C40
8FC0
8800
9000
7000
ENDCHAR
STARTCHAR FEBF
ENCODING 65215
SWIDTH 600 0
DWIDTH 10 0
BBX 10 8 0 0
BITMAP
0200
0200
0000
0180
0240
0440
2840
FF80
ENDCHAR
STARTCHAR FEC0
ENCODING 65216
SWIDTH 600 0
DWIDTH 10 0
BBX 10 8 0 0
BITMAP
0200
0200
0000
0180
0240
0440
2840
FFC0
ENDCHAR
STARTCHAR FEC1
ENCODING 65217
SWIDTH 600 0
DWIDTH 10 0
BBX 9 9 0 1
BITMAP
1000
1000
1000
1000
1300
1480
1880
1080
FF00
ENDCHAR
STARTCHAR FEC2
ENCODING 65218
SWIDTH 600 0
DWIDTH 10 0
BBX 9 9 0 1
BITMAP
1000
1000
1000
1000
1300
1480
1880
1080
FF80
ENDCHAR
STARTCHAR FEC3
ENCODING 65219
SWIDTH 600 0
DWIDTH 10 0
BBX 9 9 0 1
BITMAP
1000
1000
1000
1000
1300
1480
1880
1080
FF00
ENDCHAR
STARTCHAR FEC4
ENCODING 65220
SWIDTH 600 0
DWIDTH 10 0
BBX 10 9 0 1
BITMAP
1000
1000
1000
1000
1380
1440
1840
1040
FFC0
ENDCHAR
STARTCHAR FEC5
ENCODING 65221
SWIDTH 600 0
DWIDTH 10 0
BBX 9 9 0 1
BITMAP
1000
1400
1400
1000
1300
1480
1880
1080
FF00
ENDCHAR
STARTCHAR FEC6
ENCODING 65222
SWIDTH 600 0
DWIDTH 10 0
BBX 9 9 0 1
BITMAP
1000
1400
1400
1000
1300
1480
1880
1080
FF80
ENDCHAR
STARTCHAR FEC7
ENCODING 65223
SWIDTH 600 0
DWIDTH 10 0
BBX 9 9 0 1
BITMAP
1000
1400
1400
1000
1300
1480
1880
1080
FF00
ENDCHAR
STARTCHAR FEC8
ENCODING 65224
SWIDTH 600 0
DWIDTH 10 0
BBX 10 9 0 1
BITMAP
1000
1000
1600
1000
1380
1440
1840
1040
FFC0
ENDCHAR
STARTCHAR FEC9
ENCODING 65225
SWIDTH 600 0
DWIDTH 10 0
BBX 7 10 2 -4
BITMAP
70
C0
80
F0
20
C0
80
80
C2
7C
ENDCHAR
STARTCHAR FECA
ENCODING 65226
SWIDTH 600 0
DWIDTH 10 0
BBX 8 9 2 -4
BITMAP
3C
1C
10
28
47
80
80
40
3E
ENDCHAR
STARTCHAR FECB
ENCODING 65227
SWIDTH 600 0
DWIDTH 10 0
BBX 7 5 0 0
BITMAP
1E
20
20
1E
F8
ENDCHAR
STARTCHAR FECC
ENCODING 65228
SWIDTH 600 0
DWIDTH 10 0
BBX 10 5 0 0
BITMAP
0F00
0500
0600
0A00
F1C0
ENDCHAR
STARTCHAR FECD
ENCODING 65229
SWIDTH 600 0
DWIDTH 10 0
BBX 7 13 2 -3
BITMAP
20
00
00
70
C0
80
F0
20
C0
80
80
C2
7C
ENDCHAR
STARTCHAR FECE
ENCODING 65230
SWIDTH 600 0
DWIDTH 10 0
BBX 8 12 2 -3
BITMAP
08
00
00
3C
1C
10
28
47
80
80
40
3E
ENDCHAR
STARTCHAR FECF
ENCODING 65231
SWIDTH 600 0
DWIDTH 10 0
BBX 7 8 0 1
BITMAP
18
00
00
1E
20
20
1E
F8
ENDCHAR
STARTCHAR FED0
ENCODING 65232
SWIDTH 600 0
DWIDTH 10 0
BBX 10 8 0 1
BITMAP
0200
0000
0000
0F00
0500
0600
0A00
F1C0
ENDCHAR
STARTCHAR FED1
ENCODING 65233
SWIDTH 600 0
DWIDTH 10 0
BBX 10 9 0 0
BITMAP
0100
0100
0000
0180
02C0
0240
83C0
8040
7F80
ENDCHAR
STARTCHAR FED2
ENCODING 65234
SWIDTH 600 0
DWIDTH 10 0
BBX 10 9 0 1
BITMAP
0180
0000
0000
0080
0340
0240
8240
8180
7F40
ENDCHAR
STARTCHAR FED3
ENCODING 65235
SWIDTH 600 0
DWIDTH 10 0
BBX 10 9 0 0
BITMAP
0100
0100
0000
0180
02C0
0240
03C0
0040
FF80
ENDCHAR
STARTCHAR FED4
ENCODING 65236
SWIDTH 600 0
DWIDTH 10 0
BBX 10 9 0 0
BITMAP
0100
0100
0000
0180
0280
0280
0280
0100
FEC0
ENDCHAR
STARTCHAR FED5
ENCODING 65237
SWIDTH 600 0
DWIDTH 10 0
BBX 8 11 1 -2
BITMAP
07
00
00
02
05
05
07
81
81
82
7C
ENDCHAR
STARTCHAR FED6
ENCODING 65238
SWIDTH 600 0
DWIDTH 10 0
BBX 8 10 2 -3
BITMAP
0A
0E
00
06
09
09
8F
81
C2
7C
ENDCHAR
STARTCHAR FED7
ENCODING 65239
SWIDTH 600 0
DWIDTH 10 0
BBX 10 9 0 0
BITMAP
0280
0380
0000
0180
02C0
0240
03C0
0040
FF80
ENDCHAR
STARTCHAR FED8
ENCODING 65240
SWIDTH 600 0
DWIDTH 10 0
BBX 10 9 0 0
BITMAP
0280
0300
0000
0180
0280
0280
0280
0100
FEC0
ENDCHAR
STARTCHAR FED9
ENCODING 65241
SWIDTH 600 0
DWIDTH 10 0
BBX 8 9 1 1
BITMAP
01
01
11
11
09
11
81
81
7E
ENDCHAR
STARTCHAR FEDA
ENCODING 65242
SWIDTH 600 0
DWIDTH 10 0
BBX 10 9 0 1
BITMAP
0100
0100
1100
1100
0900
1100
8100
8100
7EC0
ENDCHAR
STARTCHAR FEDB
ENCODING 65243
SWIDTH 600 0
DWIDTH 10 0
BBX 10 9 0 0
BITMAP
0040
0180
0200
0400
0200
0100
0180
0080
FF80
ENDCHAR
STARTCHAR FEDC
ENCODING 65244
SWIDTH 600 0
DWIDTH 10 0
BBX 10 9 0 0
BITMAP
0100
0600
0800
1000
0800
0400
0400
0200
FDC0
ENDCHAR
STARTCHAR FEDD
ENCODING 65245
SWIDTH 600 0
DWIDTH 10 0
BBX 7 10 2 -1
BITMAP
06
04
04
04
02
02
02
82
82
7C
ENDCHAR
STARTCHAR FEDE
ENCODING 65246
SWIDTH 600 0
DWIDTH 10 0
BBX 9 11 1 -1
BITMAP
0600
0400
0400
0400
0400
0200
0200
0200
8380
8200
7C00
ENDCHAR
STARTCHAR FEDF
ENCODING 65247
SWIDTH 600 0
DWIDTH 10 0
BBX 9 8 1 1
BITMAP
0100
0100
0100
0080
0080
0080
0080
FF80
ENDCHAR
STARTCHAR FEE0
ENCODING 65248
SWIDTH 600 0
DWIDTH 10 0
BBX 10 9 0 0
BITMAP
0400
0400
0400
0400
0400
0400
0400
0600
F9C0
ENDCHAR
STARTCHAR FEE1
ENCODING 65249
SWIDTH 600 0
DWIDTH 10 0
BBX 6 9 3 -5
BITMAP
70
88
84
7C
80
80
80
40
40
ENDCHAR
STARTCHAR FEE2
ENCODING 65250
SWIDTH 600 0
DWIDTH 10 0
BBX 6 9 3 -5
BITMAP
70
88
84
7C
80
80
80
40
40
ENDCHAR
STARTCHAR FEE3
ENCODING 65251
SWIDTH 600 0
DWIDTH 10 0
BBX 10 5 0 -1
BITMAP
0080
0140
0240
0340
FD80
ENDCHAR
STARTCHAR FEE4
ENCODING 65252
SWIDTH 600 0
DWIDTH 10 0
BBX 10 5 0 0
BITMAP
0200
0500
0900
0D00
F6C0
ENDCHAR
STARTCHAR FEE5
ENCODING 65253
SWIDTH 600 0
DWIDTH 10 0
BBX 7 11 2 -2
BITMAP
10
00
00
00
44
82
82
82
82
C4
78
ENDCHAR
STARTCHAR FEE6
ENCODING 65254
SWIDTH 600 0
DWIDTH 10 0
BBX 8 11 1 -2
BITMAP
18
00
00
00
44
42
82
83
82
84
78
ENDCHAR
STARTCHAR FEE7
ENCODING 65255
SWIDTH 600 0
DWIDTH 10 0
BBX 10 8 0 1
BITMAP
0180
0000
0000
0000
00C0
0040
0040
FF80
ENDCHAR
STARTCHAR FEE8
ENCODING 65256
SWIDTH 600 0
DWIDTH 10 0
BBX 10 8 0 1
BITMAP
0800
0000
0000
0000
0400
0400
0400
FBC0
ENDCHAR
STARTCHAR FEE9
ENCODING 65257
SWIDTH 600 0
DWIDTH 10 0
BBX 4 5 4 1
BITMAP
60
70
90
90
E0
ENDCHAR
STARTCHAR FEEA
ENCODING 65258
SWIDTH 600 0
DWIDTH 10 0
BBX 7 7 3 1
BITMAP
10
10
30
D0
F0
10
1E
ENDCHAR
STARTCHAR FEEB
ENCODING 65259
SWIDTH 600 0
DWIDTH 10 0
BBX 7 5 0 0
BITMAP
08
14
1A
1A
F4
ENDCHAR
STARTCHAR FEEC
ENCODING 65260
SWIDTH 600 0
DWIDTH 10 0
BBX 10 8 0 -3
BITMAP
0100
0700
0500
0A00
FFC0
1A00
0A00
0400
ENDCHAR
STARTCHAR FEED
ENCODING 65261
SWIDTH 600 0
DWIDTH 10 0
BBX 6 8 1 -3
BITMAP
08
14
14
14
1C
04
08
F0
ENDCHAR
STARTCHAR FEEE
ENCODING 65262
SWIDTH 600 0
DWIDTH 10 0
BBX 8 8 2 -3
BITMAP
10
28
28
28
3F
08
10
E0
ENDCHAR
STARTCHAR FEEF
ENCODING 65263
SWIDTH 600 0
DWIDTH 10 0
BBX 8 7 1 -3
BITMAP
03
0C
08
87
81
82
7C
ENDCHAR
STARTCHAR FEF0
ENCODING 65264
SWIDTH 600 0
DWIDTH 10 0
BBX 9 5 1 -4
BITMAP
0780
8800
8700
8200
7C00
ENDCHAR
STARTCHAR FEF1
ENCODING 65265
SWIDTH 600 0
DWIDTH 10 0
BBX 8 9 1 -5
BITMAP
03
0C
08
87
81
82
7C
00
38
ENDCHAR
STARTCHAR FEF2
ENCODING 65266
SWIDTH 600 0
DWIDTH 10 0
BBX 9 5 1 -5
BITMAP
0380
8600
8200
7C00
3000
ENDCHAR
STARTCHAR FEF3
ENCODING 65267
SWIDTH 600 0
DWIDTH 10 0
BBX 10 7 0 -2
BITMAP
00C0
0040
0040
FF80
0000
0000
0380
ENDCHAR
STARTCHAR FEF4
ENCODING 65268
SWIDTH 600 0
DWIDTH 10 0
BBX 10 7 0 -2
BITMAP
0400
0400
0400
FBC0
0000
0000
0F00
ENDCHAR
STARTCHAR FEF5
ENCODING 65269
SWIDTH 600 0
DWIDTH 10 0
BBX 7 10 1 0
BITMAP
F8
02
42
22
12
0A
06
04
0A
1E
ENDCHAR
STARTCHAR FEF6
ENCODING 65270
SWIDTH 600 0
DWIDTH 10 0
BBX 9 10 1 0
BITMAP
C800
3000
0200
4200
6200
1200
0E00
0600
0A00
1980
ENDCHAR
STARTCHAR FEF7
ENCODING 65271
SWIDTH 600 0
DWIDTH 10 0
BBX 7 12 1 0
BITMAP
40
80
40
02
42
62
12
0A
06
04
0A
1E
ENDCHAR
STARTCHAR FEF8
ENCODING 65272
SWIDTH 600 0
DWIDTH 10 0
BBX 9 12 1 0
BITMAP
4000
8000
8000
0200
0200
6200
1200
0A00
0600
0600
0A00
1980
ENDCHAR
STARTCHAR FEF9
ENCODING 65273
SWIDTH 600 0
DWIDTH 10 0
BBX 6 13 1 -5
BITMAP
04
84
64
14
14
0C
08
0C
1C
00
10
20
10
ENDCHAR
STARTCHAR FEFA
ENCODING 65274
SWIDTH 600 0
DWIDTH 10 0
BBX 7 13 2 -5
BITMAP
04
04
84
E4
14
0C
0C
14
36
40
40
E0
40
ENDCHAR
STARTCHAR FEFB
ENCODING 65275
SWIDTH 600 0
DWIDTH 10 0
BBX 6 9 1 0
BITMAP
04
84
C4
24
14
0C
08
14
1C
ENDCHAR
STARTCHAR FEFC
ENCODING 65276
SWIDTH 600 0
DWIDTH 10 0
BBX 8 9 2 0
BITMAP
04
04
84
E4
14
0C
0C
14
33
ENDCHAR
STARTCHAR FEFF
ENCODING 65279
SWIDTH 600 0
DWIDTH 10 0
BBX 2 1 4 7
BITMAP
C0
ENDCHAR
STARTCHAR FFFC
ENCODING 65532
SWIDTH 600 0
DWIDTH 10 0
BBX 10 7 0 0
BITMAP
DBC0
8040
3680
CCC0
CEC0
B540
8040
ENDCHAR
ENDFONT
